<mxfile host="app.diagrams.net" modified="2022-05-31T04:21:16.188Z" agent="5.0 (Windows NT 10.0; Win64; x64) AppleWebKit/537.36 (KHTML, like Gecko) Chrome/102.0.5005.62 Safari/537.36" etag="8F1ZLjN2nodjCH6RQozm" version="18.1.3" type="github">
  <diagram id="vVtMvQG_TOd__MPzCW70" name="第 1 页">
    <mxGraphModel dx="1038" dy="1716" grid="1" gridSize="10" guides="1" tooltips="1" connect="1" arrows="1" fold="1" page="1" pageScale="1" pageWidth="827" pageHeight="1169" math="0" shadow="0">
      <root>
        <mxCell id="0" />
        <mxCell id="1" parent="0" />
        <mxCell id="_FJcgA4YUxXhmZtNspM3-5" style="edgeStyle=orthogonalEdgeStyle;rounded=0;orthogonalLoop=1;jettySize=auto;html=1;fontColor=#000000;" edge="1" parent="1" source="_FJcgA4YUxXhmZtNspM3-1" target="_FJcgA4YUxXhmZtNspM3-4">
          <mxGeometry relative="1" as="geometry">
            <Array as="points">
              <mxPoint x="280" y="175" />
              <mxPoint x="280" y="175" />
            </Array>
          </mxGeometry>
        </mxCell>
        <mxCell id="_FJcgA4YUxXhmZtNspM3-1" value="【隐患上报】&#xa;【前端】直接调用danger/report 接口 进行上报&#xa;&#xa;【后台】接口操作：&#xa;1. 保存隐患表单数据 &#xa;2.开启流程，设置发起人变量&#xa;(Authentication.setAuthenticatedUserId)，&#xa;自动完成任务(表单提交任务)，&#xa;走到下一个节点（网格员）&#xa;&#xa;【后续】网格员会接收到任务&#xa;" style="shape=image;verticalLabelPosition=bottom;labelBackgroundColor=default;verticalAlign=top;aspect=fixed;imageAspect=0;image=data:image/png,iVBORw0KGgoAAAANSUhEUgAAAdAAAAM8CAYAAADnRPHQAAAgAElEQVR4nOydeXxU1fn/3zeTTGDIsE0kEAhJNCTRQJQlgoSCRJaolChVrC1airZftT+VutVvq7YubS120foVbauWKmKluGBRUCkKBYpNAA2LCSCBAIFAAoFJBjJkcn9/TIZMJneSO0syN+F5v168SM59zjnPuTnnfM5271Xq6upUBEEQBEEIiKhIOyAIgiAIXRERUEEQBEEIAhFQQRAEQQgCEVBBEARBCAIRUEEQBEEIAhFQQRAEQQgCEVBBEARBCAIRUEEQBEEIgmitwE0nzNS5WodrvnFB52sYdL+tIZT0IhU3BDstw86Iq4bw+oxQ7p9m1Aj5ojduKG8aCXvZAjAMZ5sz/L3qhDrUKW1aX3KhtbcQ0uvW9aCdwvXroXL9sIYWVzUFVEXl/cPRPmFtpt2mnZZjutMLIQ/NLHTmoTtuJ/gS9nsf5vJGwpeA7ntn1FO9/uiO2zrU6G0m7PfKQL4YvY8Iuy9dss2E4ItmXBVQzv3+xITWs0pNAQ3aCS0zEc+QfDF6RxApX3QTznraBYXTfz7atnrsRDy1CWmQp9NOxLMzxbN92hRQEc6uJ5zdWTQ7o9H5s+2K4hlsPTW6aHaWP0bvI8LuS5Bxu7Notnff/QpoOEffRhLOUOMbWTwjhaE6pC45eg6vcPrPR9vWqHS1GWcgeehOL4C/WSQHnR1F71iIidI5UdBKQCPwZD2cdfmaBS6eoHMJN+yoMLQXjOwP5XWw9Xhgf/z4HjC6P4yyudenL+7jvlZeB3UN7v//fURlf13ruLrc64LC2VmNzyiqLeIZQDn82Oq1i9Tss6PpLuLZHQecSb3h4niFGI3nRHQWo03Dk/XwZaXKyXqtiPrRJ6BhvsnxsfD4pc2bs7/ZofJVTftuDO0F30lVzgmm1nVwC+r0RIWqM/DnXSpfnTR+wzD6KNpIvnSljsBDwiUKv7Sq3Pa5d1yVgUMU7rhQYWgMOOtVVpeq/ONYG+n1U3hguMIlsYBLZcd+ld9+7WXWT+HBEQpZTde371d5Zo9WAdsvh5GWbQMZLBhltUbEMzhfeka7xbOyTmXHMTjbGCZfmsJ6xsDliQpZFyhsONjo104P/gW0A29ufA//afjL4/qhCtcP1UoYqurB0dAsoN75/DRbYXM1/KlUxdGgHd/Xh/Z80YMI5/ndCbQI6gv3p8DQegVQz806Bw5TeGm4gvkMbD0Jyf0V7shVGLm9kZ/u0UhvgMKrVygkN8LOahV6K1xzmUJWH5W5W1QYoLBovPv6jmoVrArXXqYwvI/K9zb7/2O02tPqisJp9HpqJF8M3mZ6xriXbb+ohOkXKnwvWyFKaW2nz7mWVNapPL2xkZJqlZxBzYkGuyqiewk32Bs8qj/cdpGCJRo+OQxLytpoyH7ymH+xwihbc5ijAd4tVymvg/117t89vlzcxy2c+YOVc4I62gY/y1Z4ZrtKjTO4cviz0yxHN+kIjORLKzuDdwIAaobCKykwsAeYFaAeryVbhbvTFOLsKg+sVtkK0Evht5MVxg5VYHfrRPMuUkiOgg83NvLbo+6wB6YpXDMIrgHq09zXP9jYyDOV7usPTle4dhBcC3ygoywintqIeHbigBOoPu3+/+HxColxWhkHi8Lx01E8+9/WM8/20CqDrjcRhXKDh1rc4gkwdVBgcT12Dq8N348q4L4ilY8q4KuTYImGjN4wyuYWzq9Owr8r4aebVd7Zz7lZp6LAGd+NY1Vj9N2OL+3RXToCI/li5D0zf/dJBTgNe6pg/UHYeaa18aAeUH68STwB6lSOnKG5VV4WxcqZUfzqQlBVhYl9ALvKb4968lB5pgrooTBugMLE3u7rHvHE6/rYhPbLIuKpTTjrqWafoxGmO66GL5rpaRgG0td1pnh60ydWK+PQ6GVu+fvYRAWTnhmuBu3OQAO5wZm93WIG8MkRcJzVH7ctuz/vUqlrUNhSrZ4TzeuHuvc5LRolWFcJ7+5XeWe/yr8rYVaywutfq60EVC/BNrSu2AmE2jl251F0wJSr/Lrc/eN9Vylc4pPDS5sBu3eYwsAe4DzV9KsJzNFgbhLUuBiorfPxza5Si0Kv3oAZan3PEpxyX4/rDTQJq4inDPKMLpyqv/hhxJNHLzOMHqTw3wrtDNvyQ/9jLG0k5gm6J1Ohp8n9swK8dyC4O6CVxxt73YEX94EfDFNa7aN6MzEBxtgU3t6v8tEh9/6nnjzC3REYhW7TIXXBjsAdX8X7jSYe28/LvWL0UrhnrMLIKFi5qyl8cyN5RX4SDRI9fzsRzsD8MdKybSTojPYbbnzzuMCiz84X/XugXglZouHmFAVbrPsAzyt73Bc94tluWu2k3xbXD20WT0cDlJyEfbXgaFC5oIfC6KalXEs0fCtZ4aNDzQnLXqexfAkkH63lJz3xIjaC9lPgVqEqpF2k8PhwhYGN8K9tjTxTEYB/QQpCIH+P80k8u6JodpfBZqdNQjTyqfNZLdXrS/tLuBoJJVkg94Lm3z857H72UjO+Pj9084edKj/Ldj+i8qddaosDRKDy+teQP9i9bPvLYhHPruRL9+kI9N4YhTsmKdxogyPHVH61VWW1XcPM84PWcX7vUwwa5yJUjb0dWa7VJtwduLSZDvClA+gbC+u8VoMC8aXtV/npTMhian1BDcSRAEaGjgb42Rb1XNisZPes0xLtPkC0+GuVVYdglcw8u5Qv3acjaB3qz5cbv6FwY1/4V2EjvzrQXjlUdp9WGGmFq1RY3RQ6JV4hToXdu1VIVhhlhSm4r6uq1/Vd/ssm4hm5PiLsvkSgzfgtVxjuaa8Y/9eCJcrn6Oy7pSqNqn9f2vqz+T2Fa6Q1d3+V8ZaLFGYlQ3IcXNDDvff5yKVK+3F15hGIL3ryMFJH0BlLYb52agB5dHfxJE7hmgugvELlc0UhL0nhqqFN/zyn1S9WWDQ1igebnn9+7xg4eyjckqMwCBiUpHDLAHCeVHnP5/pAFQYNVbg1wX39XT9lE/EU8fRnpzc9TUL0pWfT1O6VL1XKdLxkRy+bD6v8u7xlpo1qYP2VN9qfMwvwxnkeFTntansf9LSrpb0e2qqMb+9Xubhv8/OejoaWB4ZEPCPni16C7Qi6pHB6X7hQYShAksJPk3xs7LD6sAoWheTecLzpKH/Fl428EhfFbckKbya7B4rOOpVXNqkcBvC6/nev6y//R0XrgOH5Lp7h7h9C8SVkf7rkgFPbrqHR/TKFgXHw9EaVt3ao2J164mq0Q5+gPrHw9QkYOVDhtMZTIoGi1NXVtcp14/EYlhyIbnKqNRYTfCfFfZinvM79cgRVhQkDYMIABYcL3it3v4t2aC/3wR+LCdYfVVnXdJT+uxcqJPdyH0JavLf1W4L0VkRLtHvWGR8LvyxW2V9rIOE8z0Qz3B1AIPENL55B1iFN3+IUJtoAh8q6Yxp2TddVh8q6o0H6pmXWAULSJeuqkXxR2/w1oPQjKZq+XDYAhvRWOH66vbjti6YvMVHQuwf895DKkdr2ffGk98uJLmaltxQqvwL6xgGNyWkIjaIjR3GWaPfMt7reQOLpJ7CjOwKj+BFIHl1z9NyxwunPzh/hrKfnU3sJJA/d6YX6d9Prj1HaTQf50SfWPQsNJK6ee3+2UeWwvfV7CtpLT0tA9X+NpRM6gmAro6Oh9THkzvIlUh1BoLYdSbfoBAKKaxzx9GcXyv2KCOeZeJ5/bUYr47Y5Wc+5r6W0nihotMEI1IPIfM5Mg67YMIw+ijaSL92nIzC2eHbKvQrATrc/EUDEM7T0OsUXzbjGEE/QI6ARHEWHE6N3SiKeXaEjMIZ4BvI3i5R4dpt6aiRfumSbCcEXI4mnnzwC+5xZd6mIIfhi9E4gEr4YqtFp2YXsjzGE0296ndFhGsgXo/cRYfdFhLOVcEZSNL0J6lV+ATuiJ60QbkgovgTij9E7gkj5EhE6pRPoJsLp58L53mYML5x+jM938YwUWl7oEtBwdwbhpqOF3MidgP9Ag43ow934IoCIZxj8MVK76WAM1V6M7otO4QxEYzp69glBvgu3MxpfZ/jS0XTnWaehGl8IvviPb4xKJEu2bYcH609n9FeRQMSzc/orD37fRBT0PpdOO6M3CKOLlZE6pK4onHpFM7ROQJ+dZhah1FM/F4zcbrpiHxF2X7pkmwnBly4snB4i8hiL0RtGdxZPI1VGY3UE3UQ8u4kvEdsOkjYj4uknrlZg+0u4ep3QaSfiqU1X9KX7dATGFc9Q7lO4fQnVH0PVUyP5Es42E2o9EPEMqA61/TmzABLSY2f0hmH0jiASS2H+fBHx7Jx6GgrSZrpAfxXuNqMvi7D60l2EM6D4TfgV0C5ZGUPwxegdQbBr9KGiq7znmXD6y7sr1lOj+BL29hJqml1RPCPkSySI5KzTm6AfY9FrZxTh7M6iGdH73iU7geDEsyuKptH8MXIfEW5furNo6vZFM65G+zPQgCUQf4J6jEWvnZEahlHoNh1Sl+wIghNOf/l2RjUL+73Saddt6mkgaYZ7ABwBDNV+u6B4Bqod/pdwu4lwdtaI3iiibfTK2J3F02j1NFi6s3jKgFN/XN2cp+IJIT7G0hUbhtE7AiP50l06gvNNPEOdiRkFEc9ItpkQfDlPxBMM9BxoV+yURDy7QkcQPvHsCLGKlHh2lzYj4mkwX7qxeGqZBSygXbFRGL0T6GhfDNUBhJimzDq7pi9G7yPC7st5JJzdWjTbsQvtayyhjr512oXij9E7gs7wpaMxVifQTYTTz4Xu2ma6onD6TfM8Es9IYQTxhE5awg3nUpiRO4GAfDGYP6FUyEjQrcUzzL5E0h+jDPL0IrPO0NqM21SjHXZE/2kAgv+cWRhVvFMwkFgZyRcjdQSB+BMJuqJ4htuXQPzpisu24eR8E8/uvGzrL27br/LrAOGMWGcQAUQ8Q0vvvFu27Sa+dEXhDHebiRginp1ah7Q/Z6YRyeiNwuidgJF8EeHsPvXUSL6EsqTcXYTT+G0mBF9EOFvR8a/yC3d6BuoIuqIv3acjMIZ4Gl04O8sfo/cRYfdFR9xAVuFEPLueeAJEBZO4bifCnV5X6wjU1oEaQaiqxohcIywkX/zYiXi241+awpvXRfHx1QrXa+WhC4UF10bxr1lRLBgWWMzg64DC89dH8dmNUfz0Ah9bzQTaD3owP4p/3xTF65eHy8fuK55+89UZGKwvuvsXrTy0+ivNuGor8dTbX+n2BWOJp7/kAt4D1e1EuNPrauLZSQS9FNadhdNfmsH4qIA1GswqmPWk5yePWDOYoyFWaQ6c9Y0ofjRA0/sW7NvXyPeLmn+/b1oU3+ytYViv8vz7Km8Do8cqjO4BOFT2xSlMi/Oyc6p8dMjHQQ8jFP4+VEELa5y7DKlDolg6QPveFe9o5Km9LcMCmYl1F/GMVLuJBEa/77p9CaJf1xbQAEYTejL0tkuOgzszFV7bo7Kzxk9aPeG+DIXtJSofnW4/fVRIjYf0Pgqj+kLdMZXnynX6G27RjJCAB5KP0TsBPeKp2w8jNrymi+Zo9z+nAyrOtjaL7QGDYsFs8glvildrh6pGQIHE3mB2udNWByvcn9xkbFG4+wqfhE/BR4dU7fvVSyGlrzsdp8vnYpMf5lhI9B1NmMCsQFWsT3oRuv964nbv9hKCL5pxNQavBhLOkP3Rk4+GTdDPgQYrno9dpmCJhgt6+E97cqrCyH5w+RiFAV+pvF7VdGGgwlPJ0Kvp1xgz9IuCGO8ORoUaFNLLVXY1Bd05WiE9hCdeS/apLKzwKZeWYYTE01CNL+y+aDRcvb6EeYQerlGrr11FZSNz/ts6vZvzovh/bcxQS3c3cncpMCqKjb2htgaWDVb4yziFFBPUVqrc+i8Vd9VVePybCtOtsKuitXj6+mw/qnLVJy1DH5kZxczeULavkdkbaXWtoI9XemEWTr9phjjo7EhEPCPXX+n2JYR7BeF6lZ8OO2/xXHcE1h7xn96aHSpOVeGOgTDjEoWYnSqvVAExMLgX9DoLh5xwth4OnoVD9XD0lEpZLXx+orU/A+JgSDTU1EJtAGU1x8KAGDgRE0AkL0Q8jSWeoXbggeWh8OosBc9E0NzU0kaNiOJfw6H6qHupta30Uppmc9Un/eXh5u4mkS05BW9PUEg0QW2VymPnxBPGX+EWT2eVysOb204PwNpXYemMlku5Vov7/8GDolj6zZb2vXs1/2zkWWdAvhipzehExDMAX0IUTwhQQMMlni+WqP7Tawpbv1OlTlW4fxBMz1Aoq1JZ02RTV6vy4y36ffGEb96k8qKffLX45miFuf3bz0NmniKe/vIINL3RSQo2E2CB0U37lrX+tjoAUBjdF3BCfJJbPHHARjtMv0JhOoBJYfxQt4OltfA/493CWFqmsuSwT3J1KvtqWu+Btle2U7VwCqg4o1E2DXsRT4P50sXEsyNWLgIVTwj1Xbg67IIRTw9bv1L5u0lhwJFm8fTrn16fw1wBRDwjJJ6dJJzB3yuVeW97QhWem6UwKgY2b2vk3lJ36LcntxaqKy5RuLlf8++11Spvt7FaM2i0QroC1VUqN++G/xms8K00mJaqcRBIgREpCiOafrUdV3nDR0DVYpXZxS0z8uTrWaY9dLj1Eq4//0Q8Q0tPxDM8A9N2wzQjt2/TroCGcjO0xDPQAv1ze+uLvfopLL3Kv891J1S+t1njQlNSV6UpjPC3B6vC14dV3q/W9sd/gL5RkpEqoT9fDC2c/tLr6M47RuGuGxXu8hfhrMoL76r83Z9/+rLl/wpVdjWdsK2uUimyt+EjcHPTIyql5SrqIXjpkMpL/207459+072X2SItFUDhD9cp5PhrG01nDVJTotiQ7MfmpMr4D7S6XxHOzvClO4tmKL74Cw/l7wbBvMpPp104xNNf4NGjKn8/1trOHK9wZwLU1Wsl0EzGAPhGLzjre8owCmIU6GunlYC252Aoo6Sw0iU7AQMLp4cG2HRIbbGHrvpc3+XPx3byiY1WmJbS2sYWrzDNBs7TKp9VaiQSrTC+H1CvsrHp0ZHEBIURFv8Zq4DVZ3Lawpemx2227VU51NKMwYMURvSE6hMqhad8LsYq5A12x9UzkNQiFOH0G1+nXddsN1oZdz5GF8+OEE4PfgVUz8jGX6F8xXPhV/pGNu4ghT/kwWCv8EOHVX68E7C4T+DWKArfyoC6Qyo/29Oc3oMXuhPZsrdt/zysW6Oy0MufmWNa73n6cbK9oMiNoiNAdxbPc2GqyubPVd4KxD8Ns1irwkszFIa7VP6vab9wUJLCz5P8+1VbCZ9VagxAG2BXHST2Upg+XGXZdrhyuMI9Cf7TauWjn3uzd4PKUz5hj8x0C+ipkyqPbvSJewl8Olhp9axsKH4YffZjJOHU64v/+MHPPo1CZ4sndMDnzPztebZwrE1nVV7b2fSoSi+F27yWigY0LSF5nk9LT1b4Sx9YWKRyMF1hVE84W6PysiMM0/12AwwmnJ3V+LSDO51I7bcF1fjiwPN45PCLFFCh+gjnlkSrq1WqrQrpZti1X2WfJ3JvhWn93Ylpl0Pl4a8V1mXDiCSFxO0qS1Y3sqQdF3+msYTrazfhm1Es9bnmOWmrdQoXE1i10jNKhdHiPBPP823ZVve9CgF978LVCvPjySV9wdKU6ocHtZdt22Nr06EJkuA2r/CxTb1QnV3l8b1w2wiF/L7w4DcUTkRDjAr/2uubmn90+ybied4t24ZcN/or3JcJo2wKKZbma9VHVf78hcqK43Bznnst1X5K5T8opNvAaVf5xTa37d357usVNW04s12lKF1hfD+FuXFwfAQMasflRI3HsjzldTrBGeV+61ArQfR6kcJgjammswFoaJlee3RGmwkkzXBiqPYr4hn+vo62lnADSMSblQfds9BJA+HRyxSe3KqyrzY8M5/0nu6fj5a703v5c5WDIxS+lwADgKOHVRa2tXfZRhYh9JcinAHF7ebC6aE3XJmk0B+orYP6WLBFw75DbvH05U8VcLMNhg9WSNymUuF5PEWF4t0t82iZtcquWoXxPSAzHcypChrbqW0X5VyCKvPf1b4BqgqPFrhP4ZaVNXLjxsjd+/OvzYTgSzcVzkiKpjd+P2cWTGIeuxe/UgHFLaIjFZ7Y4hbR9vJoU8V6KgzpAZyBf3vZ9TKDZ0A94AKF2y9QeflY2/55mHSVwiTvi96v1g+lchu8MnYH8TT8iLUMlllVtu9V2Vyr8MdZCja/DgHbVTYPU7iin8L9F6osGeh+PIUTKm/a2/anwun+Mc4Cs95obGWXmKIwM0blxV0+UTUSTByoMLhOpdAO2BTy+0B9ncqaI/DkGpXqi+HL/7b2JSNT4epGlT+U+itk2/lGos34y9JYbSYEX7qpeBqJDvucmbeIPjaqpYgGUxmHX+Q+WFRTp7INwAK3j1DIt8LZOlhyAm4YAldnK5iLVRZqiKjHv11HITbWfwPa6/PoQOtRv/97YvTK2B3EM2IEdJ9U/lbcTnItIqv8bo/CkuFwxaVRDGpqmUVlrU/D+mbueWOR8yz8dHoU8SdUii0K8xKgbL8KKQoZKNgcjTx1EB68OoobbfDpp408dNA7QYX5VyhMjlPY9mUj8+IUnrwI7EdgzRFYMF0hzwL2vvDdj5v9yh4dxZ+ywOxSsDoaeeKA3jL7D9MdV6ed3iWmcLaZ7iKcgfjT3ZdsfQnqOVC9dgt3qqAqTBrULKJlWu/S01GobzUN37fth9QkhXsvcr+er84Oz25S2QIcjFJ4KBGuylI4+F+V9x3avq7erbJaO1vdDU0zqo6455twuuOHVzwj1vg6mIptjfzpgijuToAUwHlC5Vcl/u17XxjFptHNv5edgdyLwGaGotNNX39BZf5OhaUjYOYVCmUrVRYfgxttkHupQuLB5tf9MQgy4oAGKCwGtcVL6FUe2gT/mKSQOlDhufFww0b3XfqyqJEXbFH8eCBcd7nCmgMq6zX8NZJ4dka7iQTdedYZKeFsyz2/3wNV1fAUbOFXKmsPQ69ot4imxPkaasQFiFf4ZdOL4wfYFE5UwdET8KZL4d5hMMQEBw+rPNAkngBbdqgsOQ6YYEiv1um2k21oo1SDtCAjiaeqqq3EU9Wy1QjUqn9acfXWU830dOahmV6YffGEVznA6RXW1n7mqaMq22pgW4XKH1c3srGfe5m4oqalXcWXjbxYCfbTMGacwjyHSuFpMPdXuNPrxNGc4QqJgPO4ykKt+3JQ5d4vVOxAfDzkqzBnWhRb5kQx4ZhKYT0Qp/DzvJYPmuq991qEVA+06pXOuH7rgcGFPBKcr+IJbXzOTA96C/WCZzl3EPx8lMLjW1T2aSyTnqMn/PwSSI+BgyegXz8Y1w9W7laprIG/lSkkVKms9H2YG3h/s0pZfyjWOEyUNFxhvr6iAdDL69NM59vouVOWa/2lqSOfcDa8cckKvuO6c/TwiIGCLQWmaGbi9bMLth1Q8X3FrKatj09zr4zi+4nub49W14Otn8LT18GyQpU/HtSIVKtye5EnQYWXr3T/tG23ijq8WcRUFRZ/3MhiFF69WSG3v8qrFZCTArnDFTiswhCFG5ueHy3c09JJq9eJ20M7VB48CYcOqBxC4bdxuE/nOlX+pxjW5ijYkhR+m6TywAFjtxtjtZkQfNGMq9EGDXLfQ/YlUsKpERjUc6CBNApPsB4R9XBntsLwGPep2vk7YECywi8ugpnDFWZeAmcboTJBId+Pf/16grkWbvq8pVMXJsCF7ZXN+xe/83PjV0bDi2cIDSO8jU/hR2Obv5rilxj49ljtD023wKnyfwfgTWB0psKMvu7nlgc1nXSrrmgdxdxD4c0bFFLMgAs2Fjdy30GFByYo3NBP4TsTFcbvU3lsY/Mn+nwZMVZhRDRwQuXFwzAiwx2eOEDhydwmo54KGdFADbz4hUpukoJVhRzgTD+g0T37/I3n5SSeqXB/hfdnKi1mxoxSIBpS4wAVyvYDdpWXkxRu76HyX41nsbtzm9FExLNbiyeE63NmOp14YWeziGb1hX12bbvKeqiLgpd3uH8/ul/lzqNwVaL7HbYDrM3fBNXixGk44fXsXGUt9IuGtRtVlrXhoG/QxCyF2X2h0uljZ/DKKOIZWD1du19t+eyk3jy0Aj2v9AM2WxX+6LUG6zyp8pHnRK1XZKcJ4s3grFN59d8qi467U//tSpVtOVE8kAY2K8SDXwEt3tTILScU8hrce5oVe1TmDVRItboP2nk7XbhXBTvMWaI2+1KsMvMQ5Djd8VWAIpWlCQrX9YEL/EzRnU4o+Vrl6aZyvf5RI68FMMDWY9e920wIvhhFPAMYZHQn8QRQ6urqWl3+97EYFpW11tZwFSqrH+zQ+G5nIHloZtEZN1g6Ao2lsI4XTn+2eu065V75EqcwyQZmml6WcLxl3MQEheEWqD2pUh8DRb7vu/XkYVMY43S/WF4FMga7Z6uel81HrJ7qTU/aTPcVTz+GHV2HIiGcC/Jc3HhxQ4uw0D5nFqQj20+ElofuuDp88WcnHYH+uJ2BnntvGOH02NlVPrP7hHlRUennERXfPKpVCr1+LT2k4nncUsRT21BP3M5oL4HEF/EMrQ51NFpuBPc5sy4oVpHwpTuLppGWa/2mGUnxDJMvhhrchdmXkP3pku0mBF90CGd3Fs2w9+t602ujHLq/xhKyEyHk4Q8j+WOUUdL5Jp7dVTgD8SXcda+7zjj92UVKOAPyR4d4Roou2Wb0ptdOOUJ6lZ+RxMrovnRa44sAIp5dQzx1+xMBzjfxDLdwdoX+SpcveiukAcQTOuBzZnoQ8dQ2NH5HoNFw9frSTQTLSL50xWVbw6zUgIinH1+MJJ5hbzN609NZjjYFtCt2AkbyJRINz18RRDi1A7uiL91FOI3SZgznSxcTzki1F3/B4b/3/glsD1SvE3rTE/EMewXQNOto8eyCwmk0fwxVTyPgi9+0RDwNLZ6RItLC6UH/Yyx6HdEyU9v+3W+enTU6MQk59doAACAASURBVFBlNFZHoEM8I4TMOrXxZ2dk8fQfWV/ccK7WdBfhDMSfrrhkGwm03ND3OTOdgaHc4HCjZ4QrwtlWfJ3iGULD6Gr7ZiKeYYir15dOaDcdTaTEszsLZyC+hLu/0qL950D1OqFl1hkj11BGuB2NwcWzKwpnpGaekaK7Ltn6TS+A9mysdqOVcecj4tm5/ZX/PVA9DujMTPY6u6Zw6vWnOwunzDrDEFePXZdsMyH4ohlXY/Bq8P5Kty/dTDg9ROQxFi2M3ikZqvGF3ReNhqvXl27S+Izki8w6w99mNM1EPLtPm9GbXpjL276AGqgjMJIvIp4inh3hix7/AtmzEfE0mC8dLJ4B1fnu0mb0phfm8kJ7AmogwTKSL4buCDpBODXz9ZuPdnxd6Yl4hoSIp8F86WDxDIgwtpnzUTg9+BdQAwmWkXwxfEfQCYQ06tVh112EMxB/zvdl24i2l24inp3RXxkFI4gn+BPQYCt3FxPObiOauuNqNFi9vugthx9bvXZGFs8uObgLJE2Dd96RazfB+dKdRfN8m3WqqnYCfmegiRb/7/rX+wfSjKs3aid0TGGvVDri6S2rpllniKfOfMNdjrA3Pn2uhDZYCLH+BDvq7YyOT2/ckOx0xg3l3uutHIH0dYZqNzpsukubCene6cxDM24bdkpdXV2ry1FR0TSqir7UBUEQBKGbE6WoNDY2tAyLkC+CIAiC0KURARUEQRCEIBABFQRBEIQgEAEVBEEQhCAQARUEQRCEIBABFQRBEIQgEAEVBEEQhCAQARUEQRCEIBABFQRBEIQgEAEVBEEQhCAQARUEQRCEIBABFQRBEIQgEAEVBEEQhCAQARUEQRCEIPD7PdDOotYJmw9GUXxYoaHRHWZSIC1e5fKkRuJ7RdY/QRAEQdCi0wX0uAPWlUVRWw8X2lT69ICVJQpD+8EFvdyfJrU7FTbtVzCbohhoVdl2WCHGBJcnqQzpqxIlnyoVBEEQIkynLuE6nPBhSRT/2R/F6QYFZ4NCfQMcP+2efSqK+5+rEWrOKNQ64awLTrsUio8orNwVRaW9HfU8uY8thUU+/7Zx2AngZMuzk5gy625eL3YGUYJqPnjgCiZ+43u8s19vHHee19y3iO213sH7+ODpu7llxvNscQXmxfEP7mfiNyYx/719BFMKQRAEIXQ6dQbqdEHZCYXsQY3kZzQSawJnI1yd2chXRxUcJ9zi2KjC5UmNjB6sYrOoJPdzsXF/FMVHFOz1MKitTPb/k/n3LfEJTGf+4r8xi/d5+W0nTop5+w8/4DNP6Yd8l6d+Ps0n3W288I0f8pZmJrt4ds4VPOsTOuu3a5k/1uxT6GLWrXRSSxnV3kJpTiF94CH2nyxiXdH/MMo3nhfHP/0VDy4pbU7y8C4Atr/2c+78wMd43AO8eNsI/KcmCIIghINOFVAVaGwEaw+wWdxhjSpMH9ZIbrKC2mSnAD1jVCwxYIoCixn69nTPThv1Znbtr3nvzkQ++en3eGFPNols5Nmf/Y7tpDBp9pUMtQAHN/L66l2YbRDrL53Mu1n422+SAsBhPn7sezy7JZ0fvfR/XDvEbXJ49U+57dkizei1697mHQcMGrSPlx/4Hq95XzztnpK+8+T32DbIW/JSuPmJx5niUXRHNbtLdjF8+lxGDgIY3zqjw5t5/aNtkGnXc3cEQRCEEIn4IaIoxS2QFrPavnEgxJiJYx/bi4H+Rbzwo2XsP5nCtQ//mh9fm4LZsY0XfrgILOP58b3T6O8vnZJF/OaBj87N6KrLAXbxt1//Pz7u6Qncpx3XtY+Pl30GjGDGbTdw5mBZK5NxmhGtxGn8ZQaOm8nNOXHaeW2vdQuoIAiC0ClEVECP1SlsPqDgbwswCrh4gEpyv+DEtbrwU9ZiZtYN09n15z8B1Wx/7+fc+R5w+jC79wOWUt557Hu8w3h+/ML/MPzcRDCe4XPn+iyF1rL75C42OQYxfMx4hlk94eMZB6TaWuZfu+6vLNwBZF7JxCnTSDaBs9aOs609zxgrcRbtS6sfn8XqgO6AIAiC0FFETEBdKhyxw2d7ozjrZ102OgpiYxpJ7BOMgFbwn1WfwaDvMPFbc5k/OYW/fFTawsI9+6tl90fL2HQ4G+8zPrXFG9jlN+3D1NYC1pahZdtLqU0bQRyAYyMvP/1x0yEfM5gAqvnkFzP4zedtuH3d71h9/3jNPUzNPVYPxc8z8Ue+e7+CIAhCRxExATUpkJWg8sT0BtQ29DHa5LYNmKIlvHUQuG40wy1QWxnH6OzRGobHcW5axqbDLUOdB/7D64s2EpeczqCezeHVJwHMVHy9kfpzJ3GdHC7ZR22mjWnXjSCOalY/8b+84/DNy8bUX3zMpLZmoKZYvweA3nlgEu+0EVUQBEHoPCK6hBulgNnUQYlfOpmJpiW89d5H/Od/xmNbdTfzg5igTbv7L16zvmo+eGAGv/k8hVt/8TdmJXusfE/smsHsJPlbN5Dy9jLWngsPbQY66e7nuT7VT7yyt5n//Gf6CyYIgiCERMQE9KwLig4pPPdvEy4/S7hRCsy+rJEZmbrP3jYTM5pZcyt46/GP+WDtPSy48z+su1PL0COK2sloz/q0H2Npxsq4G35HcpqVj99e5hVuJnnCXG65uA2/h8T7vbRry1o22/0cIjpc3UaigiAIQriJmIDGmCA7QeXRKS4a/QloFAzqrRIbpJe2S8czjs/Y9PlvefTpz7xmgu0TN2ouz/7+Zp/Q4/znzz/nrZJ0bvr53VzRxzdWPJ5zRHHZ4xnGNj72vuyshcGjGT24rZzNOKHlDNRiY1hmOlQXs6kNnRyWmQ5WeQJUEAShM4joEm5PM1xka7kBGqW4Dw+F5XV9F6SQDGw6PIKbVvyUn3hdcto388mXNqZOSMGME3sNWL2Wk82WeGwpNpIvgMM7ijnsiGXQpdP4wSNgfreeKyeOYZhHq2p3sXptPeOuTcHP/NDNySJeu+9XbGrT6RtY8K/7GedJ22knbuJPeWUyOE/acRJLXFw1q5/9FStsP2TBXK+XJrgOs+lTeQ5UEAShM4iYgKoqHLErbNyn4PLSUJvFfbhoUO8Qnwv9/G0WPm9mM4BpG+88/hHHM8fQ//UlrM68gZsGvc9bn0LVC58wacsPueuVen7w13e4Jc0d/fj633LL0xsZPv93XPuf+/nN5+nMX/x7er/yS17/1MlbLhsf3j8eM9WsXvADnvjUyfAzb7LwWynt+3btr3nvztE++5yelzS0NN3+ygzuWmLjphcegB/dz1vcwIJ/3c1ASxVbXvkh862ePKtZ+9S3eXS1k0l8zJNTfI4IC4IgCGElYp8za1Th5Bn4+oTC18eb/5WfdL8DN2T629m19DOqk6/kB3nx7C7cxWEX9AYgmRn3P84USyw71m7ENulbDOcwf/n7Z02Pshzms39uBEZwxaWJXonamPLw/3FTMjg//SefHDzMpiWfwnV3M8UC25+9j9dLdPgWYyauj9Xnn43YGB87ZxGr33PCoMlckeYtiGaG//D3/GQs7PtyI7vXPc+UWf/LrokPMMsCax//BR8cC+HeCYIgCO0SucdYotwvSbh4QIBvUtfLsLk8+9J4zDjZ/uK3+QuDuGnsaFiyBOqd0OdKHnt3NJtemcZNt45n3Fjgo0/ZPP9KrtixhIU7wJz7TaakWnFPCquprgWSR/CjP/6NaaQzrMdGfvPi7/gg824WPvUddty3hL88vohxi+cyrK3TxZ+/zcJXttHyS2217C5vaXb8kzd5xwHJ113JcAv8x/uiaRDX/motU01mDr/9PZzHdrHb8Wsee3gaKx77mN88/zGTnpjW9pKyIAiCEDSdKqCKAijgqAd7fWBx6+rdy74Bb406qzlit2LOmsy04RnszwU2PM+dcz5iUE8nh0uArCu4dWY6iRNGkwI4belMTRtD4tzpDDKZSR8+CD4/zOt3XMHrGlkMyk4nPSebn3ynit2532xbPAEcFWzbVNUq2P2MqQc7FcedxFnG8+3rRmBmH/HJwP5lPHTVslZxYQTjhtuIS76Hh6/rzan80SKegiAIHUinCmh0FCT2hh2VCooS2Orx3uMKvc3Qq71DpiZby9Oo5kFMeehvTHQ4MZvNDLv/eU4N28y5w6zjbKROmszwNBvDPWFp3+Qnf/3muSSH3fIXXhnyKZ/t9z0CayUxcwTDL3Uf5Bl15+OM8rGIz0xn2ICmlyOYrNgy0xmWczcv/nCMzx5oNWsX3Mdru+Oawq0Mv+V5PvyWEywAKdz0x78x7OtT2uW2pjIqGcDGlPvvb+cmCYIgCKGi1NXVtTqtExUVTaMa/q9WN6pw6KTCh6VR2M8EFtdihkkXNpJxgUp0xHZuBUEQhPORKEWlsbGhRVinCqggCIIgdEW0BFTmcoIgCIIQBCKggiAIghAEIqCCIAiCEAQioIIgCIIQBCKggiAIghAEIqCCIAiCEAQioIIgCIIQBCKggiAIghAEIqCCIAiCEAQioIIgCIIQBGF9mbyigMkURVSUEvhXUwRBEAShA1FVaFRVXA2NtHqHbRCETUBjoqOIiWnvO16CIAiCEGFiTDjPumhoaAwpmbAs4ZrNJhFPQRAEoctgjjFhDlG3QhbQmOgook2ylSoIgiB0LaKjo4gO4fuYISmfoiAzT0EQBKHLEoqGhSSgJpl5CoIgCF0YBYJeRQ1JAaOi5KytIAiC0LUJVstCW8KVh1UEQRCELo4SpJTJGqwgCIIgBIEIqCAIgiAEgQioIAiCIASBCKggCIIgBIEIqCAIgiAEgQioIAiCIASBCKggCIIgBIEIqCAIgiAEgQioIAiCIASBCKggCIIgBIEIqCAIgiAEgQioIAiCIASBCKggCIIgBIEIqCAIgiAEgQioIAiCIASBCKggCIIgBIEIqCAIgtClUVU1IvmKgHY3HHso/G85Dr8Ge1jz2iJWlbj8WtTsK6PqrG+onZJ1qyjc7wJqKHy37TQAaoreYdFHJbRtFU5q2Pr+IpZvqQku+vFC3nltKZuOBpl9YwUbli5i+X+rgiuzs4byvZXn/nZ7Vi/izU/LOvH+CULnoapq2P5FiuiI5Sx0DC6o2b2KxXuzKJidS0JdCes27vMSVAdVZ5zUf7GSVfub//yWlFwmZlihsYby7WvZtLqYcTcVkG1tMnCWUVpShWWoC2jAecZJfb0LMPl1pcFZj/O0E4/VnjWLWLvXiUsxY47xcdvpxDVgHHNnZmNuo3hVG9/knZ0OzGbTuXimYTOYOykRx871bDniJPbsJlYdO1cyUsZPJNPqk9CeNSzaWN4yrNGF0+mi6oNFlPgUa+Dlt5Cf6b+s4KBk1cfscA4kNyUWh93eysLUw4rlXLntlG8vp/L4AaqPn+LIiRqcjWb62oYx6oIE0qwVVFQ4MWXGt3GHBUGIJBERUGeNnXqfsFirFbMJ7B89xMy/xPPonx4izxZoytUsv2c6T9Y8xD9em01qEL6VLrmTJ1alcsvT88lPbKsr18BRTdm29VQkFJCbAny9lDsf30Duw88w55IA0woWaxpTb7ZSuHwly5fUkz97AmPGD/aaxexhzf4qLGnjyM2IbY5nsrj/j+pL9oxbiF+/lBVvvYl95s3kDoCaL0qopB7r9jWsKm3gxBlwfPUxq440VaGeKeROzMRXp7xJy5tLfNxSln49mBk35xLvueAoZvmSLZjS09oUz3OYhzHt1okkUsG611ZyKiEejm5g+cYq4i8vIO8id1lObF3BqkNmLtFSoAYHTi5kxq0TSfSEHdvAm+/uZvDUuUwc4gmsYsOb71DV1mChsYbiD99jUyWYY45QuOptClsYuHCecZEwdi4Fl3pKWE/NKQeW/klEn95KOeOYe53X4OHgHvaeMROvlrNju09+fYaSldTWnRYEoTOIgIAWs3DKPBa3CMvmoXdfZbatkFdeWIO9Ips1/1hIiedyxnXcNTmxVTqLb/0NK31Cq/YBjhd56NblPp1xLj95+S6y2+ih7UXP8sjvC+E7c8i21GOvaSXzWPs2J1D9+WLe2lpFxbZCSktLKasB+qaS94NsclJSOVS0nMKdgykIVIhDJSqBnILrsKwvxl5rZmBDOWVHPWU5QT3grD5A+X6PX1aGDvfukE0kTriZgpjlbCqrwBnvoHBHDfEZuWTYABw0VFZgSkgl6QJPHMu52PYDOyg/CY6aeqirYMd2E+bYeIYNS6DvmElk7V3OqrWpzJmUCI5y1r2/iRNJE5mdaSEgDu5hryuBS5VNLH2/BFN6PlMvS3B7cnQDK3ZB5tRxDPWX7Nkqyrbv4ITnd8cJ6nFRtW8HO86tAjs40Wo5uxlX9Q4+WbWB8pg08q7PI61/a5vKjW+yfJeVjGHe9SCe7PHuIUTVqWIKT7eMs2fnbpy9+hFdc4ADXivS9ccPUdnTxbCktmfqgtBV2bZtG+Xl5UydOhWz2di1PGJLuBkP/oM3bkql9K8z+e66CVxqq2D5I/ey2DybR1+Y7J4V2At58eFXsT54NU5o1WFU7SyFe17lpZmeuWYFKx/+Lgsct/HoHwvOzUArPnqI7z5TS+tFtWYqPnqSe3+2nKqUDBK/WMiD97S87qwopaxmNs9tfIjcJkes/dwdYM6UHMo+L6XgmU95dLJHiCooXFUKxLL+7wvZ65Nf5rV3kZfkFbDhCfhTEXzrBShIImSi+pI1cWKT84kM7emZgzrZsxGibUkMTfbMQE3ENtJqRzxhbAEFQMXaxZT1yGTGFVm4xwJV1Gzbiqv/MLKGt1PBY83uv1t9PfWAOSqB3JkTsS9bwaJ3E+ltr8CRkMt1UzMJUD6p+HovrguGYd9ehisxi6z+dsq27wDs7CnagaN3GlZ7GTu2xxKfnkaCt6uJ2eSO1aoRJlq2WQupo3KJHdDSylVdwoZ1myiphvj0ieT1q+bEKTv0bzkzdJSsYOVOyJyah+7xwdENFO6zkHnNDCYO8XbGSfF7i7D3jxfxFLotVquViooKVqxYwYwZMwwtohHeAy3jy08ryBgRx4ZHbmBh8QQe+tN8Ci4yA042PH0vJRMf4o1vpvrtMEo/XcrrDs/stJbSCqBiDUv/furc0lztrkPgb0G3ppTlLzzBb96t4NI7XuSl7+dg812pq1jOvd9+Em7NJ8fLEXN6PnelA0eXswaIjfVaEt25isXbzGRfP4YWc+eabSxf9iW1I28nL8kMZ4EYoE+C+7qlKQNX05BB9waYnZJ1G9h3biaTQPb0kVibZoPNaM1AwT0LHaq5BJs46WbmOJpdaw9rUhZZSe6Z1VZnPMOGZ3n9/VzYq09j7mHGebySKpeZhH5WaKD1CKlNytix10XCFTlMzMyhcvduqs4tGFhJG5NLGgCV7NhYzsC+aSScW5Z1UlnpbzjlwukEXzWvP3kC54CEcy6aGp2QkMOMKVkkWt0z0T2r3uTP/81ixvW5JMZAzZfLea/QweBJVzMx2SfB44W8s2IHp3Dv40IhS17bAj0GEk859UMmMmaIucmumktuzidTLaGsykxCdjyC0F1JSUlh0qRJrF271vAiGlkB3VfI8p3Z5E7Zx7/+CbYR8VR98jILPwGqi1j8rpPU6VWsfG0hxE/glhuyvTr4VApeeJHcFglW49y4lA19s5kwModzW6gjc5h8UyyDvU2dFax56UmefK2Q+vQC5r8wn96lZeytzsHmPdtwFPPsPU9SOOYh3rjdZ9nMYcfuBGrqcQKn7FXYa6zEWp2sfGkhFSPu4pkH55HhFcm5cQGvLjOTkWqGPa/CEx9C+jVwRa3b4MxeePV3sKEE5r0Jub103sxY+g1KwlUPOMoo/KKcROdIDUFMIGt8gkZ8Jw4nuIrf4b2dp5rCLGTmz2bcqbUs9Ry4OevEqZowm824Chfx56LmA0GWtGnMHu+71N7E2XIKPymi9HAV9b0SyRyex80ZQ7GcLqe4qIgVb6zCgZm+iTlMm55F33ZKW7+7lHJlMJMuNAMurAOH+pnBOtnje1iIU+wp2sChgblkXeBr7zsDBY7tYMOBgfQbltA8GLogm4lecU22LPJvHkrZ+pWs+Nti+vZtoMYRz8gZBeQM1PCsfw6zbs0BKlj32gpKeufwnaY9UMeRMuy9U93lcTmpP1OPUwXqLcQnZZI4xJidiSCEi/T0dADDi2hEBbR09WJKR8zhqe/O5q6ZN1JYWuV1NYecKU12797JsxvjudpLQJ0VZVT5Juih0s4poOUZpHqqqpwkevYjzYmkJqVyyy/nUzAlA5u9lOWrl3PvNc+S8+AbPHNTKuajG1hw172813cez/1sNqk+/WDxy5OZ95pXwM9msgrInZJH4cZUZr9wIxnmatb88h5esf2Ev96RyZcb3oNLbiezL+C8CK7IhK3vwa6mNP7xa+jRD4ZfB31qAb0CaiZhWBYJAMdqKP7CfXesSVlkDXRgP9PGwxAmC1ZL01R3zCzmjgEoYcWfN7lnY2l5zHVP59ynYI9m8Z3rstn74Z/Z1Gsacyf5EU0AXJyq2ErRFjtJw8eQf+Vg4i0mPI/CVF98C/l5QxkJ4HRgPxvd5kEkD7GDE4lvKKTsIKRdWEnpxmIqNS0d2IF+Wmn4LkE33bfeiVlkDfEyLCljwwEdTjU4qCcaMw6iB4xj1hWZxMe0E+fgHvaeAc5s4eOSNGZkWrAMTMV1YAdlpzNbrJvUHKnEOiKXVOP1I4IQdrqCiEZOQB0bWPlaBRl35JBqAizxZGZoL005bUBFyzB70Svc+YSd/Nu9l0hr3Qd5YqvYt7XQS2ArKHp5FfVN+64eUq9/qLmD6ptBwc/eIG/mYh768Y1c+bdUrLWHiJ/+KH+9p4AMjV49+54iiu6BimXzmPl0MbP/uJGHxpvBVcGGyXZyxlqBauyVpZSa7EA9vbPmkB8/wt0JDpkEd04CRxE8+ATuTdox8LvH0KUievl6DW+uqyE+Ob7VLK3hxCEqeuS0PAHaBjV2OyY9ldhZQ5W9Ho4WsnxdIpkjx5E52ILjjAP3Ex4nOO1w4jh1Aru9aek7KhZrL50NxJJN1tBC1uzcARdmMXK6PxF3DwS0qCxawqIvvQIaXThxUfLJIvZ6L527nGDqrZ38WQeVB3awY2spe6odYO5L2ohRJPRyUVm6o6WoNx2kai6hk+ItJURbzDh79MO1aTHLz86hYISLks83sCcxgdRhzdGrykrY5OxLdmJWGzdGELoP6enp1NfXs2nTJtauXcvUqVMj7VILIieglmxyrjGz+B+fUvqdVOLXPcs9r5VomjorAM3+MZOr59117lAPVLN851I21ORy4x3ej7EU8+zLq3weLdDOqKzMLbtOZzw3PbWAG3NTsba5D1nB+g+KAVj6+4XkXzafbEsiud+ooPiLMlJHeHW89ipONVzKbbfmNHeirkr4/dNg7we3TIXXl8KvX4VH5rXahwsNK2mT81udQnbPKPWmUUFFJVgzB7chtpVsWrqCYnss1h4uuCCHm68f6S5KxVY2bPNISgMnnOA6UMQGzzHYmETG5GWjd4cvLW0oa1eXUbKnkk2tlmk9uHBioqX8xZN78w99lv/x8xiLBvYKireVUHawjMpTYImLpf6UmbTxI9FaHHenrbEMfHATxdWJpCbb2XEqlanXxLP8/eVs6JtF1XELg8fFA6XN5R0+jE0rStlqz2KkPMUinAc4nU52794NQHJycoS9aU0El3Ct5M68ncRlC1n5xTzmT3mUN6ZoWxb/cQzzirSuvMcTc78k3qsU2o+xOPGrwY4KSosKWfnPxSz/tKzppG4qebeO4MzOlby+s6V5/LhbmH1Zc+/l/Hwxz26jKdYG5s108uL7D5G5cSHzHrbz6IePNUeuKeTFJxaQnVjE/DFNYZv+BLuccNVjMDUbKIbXP4RProSCC7VvSFBUUvj3RWzxDT7r9F3r9otj5xZ2O+MZ1eqtBEDJCv68uR8F380lZ8bN5FgsnNj4Ju8cNTVXssSR5J/7IzQ9X5mWR/6lQS7LWC1YqOSoZQZzb/V2tJKKMwkkajxS4sHlsFMfY8WiVrJnlx1rehoJfTPImZxEorcKNtqp2Oeg74UJzeMZqxmwknFFAVMHxmOp2cCb71YRn55Flr+i+C4DN1ayYX0JpowC0ljDjlMQPSCXGdOTcBzfyg5LAtkDAO8DYIlpDLWUsPsrOyMvFwUVujdOp5MVK1ZQXV3NpEmTzi3pGonIHiK6JJfrEhfyVtEqUl99hCc3tmXb8ldb/lN8OtHXSPsxlnOYz+2gUvrWIzzxt/WUHnVCXxs2ZzX2EfnMG+tvKbBpGbjf1c0C6ipl8TNLyblhNlXLlnLpPQuY8953ufcP2TxmWgUjHiLbBsWeJJImkD9iAQveX8NtY/Lcq7S5j0FyCfTPdNvk/S8MqYWLw/AoCw72fFFOfA+ABHK+XRD0DNSxf537RQU51zFSYzWzsqoGeg2lH2CyaEydG5046uq9Xuhgx9UIrvpTzUu40HI/1i8N1Dud2I+cwIGZntXrWPx5T/IvruSd//Ym7/JTrF/vYtR3Csh2FrJ02Q4G5nvPKmvYsmIppQkzmHNJGYUbdzO4bxr9Thex/tMjxE+czQzPMydnyihcswnscyi41FOu5mc4g6WmaC07yCT/sgRMXzSHW5N6U/KfSqwpBRp7nYmkDbVQUl6C/fKcsK7yC4KR6AriCZEWUOKxpUB1lZW8X35Kntc5F+fREg7FZTYd3HHidJpbTpRMsWACqxUqtn3JIQZz6YgMrn7wOVLJJruvV/dytJTi+lSyz2mSmYyx+Vzds4CfZGeSmQQrfzydJxOv5vY7cv0sT/ouAzspfuERFjpn89zMDJYuA6IHU/DYG2TaK1h+PWQ/6N7fPSegJDLh2mwWPL2KDfflke85ajok06tc/eBirSMvgVJPxWfLKT+WwNThAJUULlnEFt+3H/uZgdr3VWDHBTU1lO1awSd7TQwdN4Opw5vPx8bbrDi3rWTRfhMup5P4jnp6twAAIABJREFUMf4fN6JuL0UtXimosYQL0DuDvCvaSAcAF2X/WsLa471JvXwS8Sc+YauSfW6GaMmcwbTKxaz4sJCEmZcyYVgpKzYVMvKGJtGpKKa0xkrqlYlA2blUzcPyufrYmyxf/wnFQwvIdpVQ+HUCuRMSWbHuHdZdMIeJbZ2XCoC+wycxdaiVoRZaHobbU0jxqXhG5WsvBideOBRzyQH22HNkGVfolnQV8YQICqi9rIyyfU5K94E56RBrnllI8cRbsD78CIX3Pcfsogd58sR8/vHyddj/Oo95H1zNG8vmkdE0ObGvfoTJP6vn0fd/An+50/36vr9OoPiFB3myKIenlj1H/gCAalY9/X0eWZfDox8+R4HnEZWUPOakeLypDrwArjKKVh8i9/bnyI0vZKknvG8qiZ+/yFJyefQbqa3SThybTzYLWL/VTv7kDuoB613UU0P5saHkXp1H6tEVQAI539E3A3WUrODt9XYGXzaUqk0r2DMhn5snxLtXLr2IH3szPxyr0ydrJhOnew0UQlrCjSXz6rnkAVDBusUOEkakYaF5HzTxG7OZ07CbNYuW0HvKKBJ2F7JpXw5TU5yUfLEbh22Ue4n0WMuUE8YXUGCrJLYHULKHrcWxxH97GhP2L2HNmnWkzZmovRWAnYqdOzD5a1HHHOC9E2tJaHWqG8DVL5HMbCsZfs4sMSSFC22nwO6inc15QeiSbN68uUuIJ0RQQK01q3jyrkPUZ93FM1Nh+e1lmCc3HT41JVLw2FMUznySBe9eynPX30beS4+w8IMCnptpA+xs+HQNjH+UnITY5lmhKZGCp16i7NZ5PPL4crJfyKPqw/Uk3vMcc8rv5MmfLCX75dnuU7+hYsrgxj/8lYKUxJYa6SrlHy+swXzNAvK0etqkHPIvgQWfF/PYZH+z3dCwH6mCxJEU5OWQYAE0lmhdDjsOVz0Hjvqcqj26geXrq+iXcx1TL+2La0ghK9a8w5v/sRCfEE+bq6sxSYzJyyL2YAnlNS5qjjo6/Hs/rtJidjckkjvMAoei4cwRSjyv5zu1h8qofgwdmE3SRXsotVfhOuvE3hBP1tgsd127IIF+UTvYu2UTthqvAc3OQjZ9WQG9x5FgNmP5xgQqi+oxe158oYGj8gB+n3apdeoqj8mWRa4NOFVOyUkL/Y5V4WhxD4cy8VtDdaUlCF2R9PR0Bg0aREpKSvvGESZyS7gj7+TVp927lBXL5rHGkseCkYnNy51983hq1QRK//l9xv/4Ku66yczCvy6ndOY8Ur94hYWrzeQ/k0eiyadjsmQz/09vcDUZJLoKWfrYkxTe9w/++vN5bPj+Ap5clsOrN/l5K9HGpTz70pfEaV6s8FqKdWO9KKO1mSmDgp89SmL8BD97VKnkXJvPnJ7x7lfbaXsSEtYxs5jrHdB7MEOT61v44ziwlQ37HNA7i0mXZXr5YcKSNI6pl7qXak2JORTMyWkSXHAcK6fK77fSrMQCseZowEXftHFMHZTpp4yx2AYPxRTgJDzWNpihZ/o2vxEoI59bkpyYLcBFucyoL6bkUJOQ9UxkXF4qmRYwTZ51bk88Z2aBV4ppTL3eRMlh30JZSLp0KiPTm15oYEkjt9WeexM9bAxONpE0eZz/ZzQrtrKqxKR5L2Jtgxmq+NyIRgdHd+5kH1Yyx2WRZqzH3wShw7DZbNhsAX9JJCIY4HNm1ZRsLSPxujuZ0Hcw9vGw+I1nWXAigzic7FtdinnMXdxYcBd7+8VjrnFir+9N5jXzuW2su9PJHJkILzzLHfftoyDdI38ref3z5awikTnpgzGPuJ2H7qilYmQbhz9sVj/iGRi2sQXkU03hkrcoM8OqL8Cc1NwDpt70FPPDkI9uWpx+dWPNmEi+hv4zYBwF01sHmyxWrIDVmuX/UY1zaaSRNaA9IyuZE/PbM2odS8Nvs+cdg1FWEofnkjg8sDRNtlSyQmmv1kwmatyzFmj8Dc5Fz5hIqzvR13fJWxAEo6HU1dW1+hppVFQ0jarSbuRYczQmU/t2LXF/RaX4hmdYMLOpR3E5cbrM7leoHS1m+ar1HPJMCOIv5KrJ+U1fAfGDq5rSor2c0roWG0/miPae5bRTvOx11luu4vZrMvzMmCpY89J7VGTfxJzxPs7Yi1n6xnp6591OfrontpPSD1/mX+UA8eTMmk1Ou6IiCIJwfhDuD2ErSqBa1IzL1Ui9s+1P10cpKo2NDS3z7HwBFQRBEM53uoOAGmAJVxAEQTjfCEXwjEIHn5EUBEEQhO6JCKggCIIgBIEIqCAIgiAEgQioIAiCIASBCKggCIIgBIEIqCAIgiAEgQioIAiCIASBCKggCIIgBIEIqCAIgiAEgQioIAiCIASBCKggCIIgBIEIqCAIgiAEgQioIAiCIASBCKggCIIgBIEIqCAIgiAEgQioIAiCIASBCKggCIIgBEF0pB0Qguf48eORdkEQBMGQ9OvXD0VROjQPEdAujNVqjbQLgiAI5y0ioF2YmJiYSLsgCIJw3iJ7oIIgCIIQBCKggiAIghAEIqCCIAiCEAQioIIgCIIQBCKggiAIghAEIqCCIAiCEAQioIIgCIIQBCKggiAIghAEIqCCIAiCEAQioIIgCIIQBCKggiAIghAEIqCCIAiCEAQioIIgCIIQBPI1lm5EQ0MD+/fvx2q1Eh0dTf/+/amvr+fkyZMAWCwW4uLiqK2txeFwANCnTx9iY2M5fvw4DQ0NAMTHx6MoCseOHQPQnVbv3r3p0aNHm2mZTCZsNtv/Z+/+46K67n3/v2BgwNFRkDGYQY2DKER0/FGIRoyJRCt6UjGtIW013oR4c9Ter9rchqSnJrlVc5pqT6/6PZo0NSbHaNOgJ4Y0UVItNlaoCSTq+CODEgZFJqKDoAMjs2Hg/jGAAw4/nCgT8fN8PPhj9qy99tpjMu9Za6+9NoqiUFVVBUBoaCh9+/b1WldVVRWKogAQERFBYGAgFy9epLGxEYfDgcFguOWfqxBCeCMB2oM4nU7Onj3LgAEDCA0NpX///tTW1nLhwgXAHUB9+vThypUrLQ/jDg0NbQnQ2tralnKNjY0t+4WEhLQEaPO2/v37twSozWZrKRcaGkplZSVXr14F3A+1ValULfup1eqWAG3eFhYWRt++fampqWkJ2uDg4Ja6ampqWso119XQ0EBFRYUEqBDCbwJqamoa224MDAyiobHzJ3mHqINQqW78id9KlR1n27q0WtQqsH+Swew/6njxDxkkR9xozRVkLZ3BqqoMdmxNo7OvVu/tCMFpb7u1VQm0Yerrttq/zsds0xE3wYDnY64r9q1i6dYInt+8BOP1u91UTqeTgoICkpKSbu2BvgPq6uo4dOgQDzzwgL+bIoS4zblcDTgVV4dlAgMaaWiob7XNDz1QE5umpbOt1TYjGbu2kBaRz5sbc7BbjeTs2IS5+e3YOSyZqr+unm0LfsueNlttJYDjNTIWZNE6r5LahJi3dsSSsSGN3KWryG23/Wmsz8sgqU0YWj5ezOKtXt5z2Cg8GYK93fpuHpVKxcCBA7vhSP4XGBjI3Xff7e9mCCHuYH4bwo19bgfbHzdQ+NZs5h2YzJgIK1krlrFNncaLG6eiB7Dn89oLW9A+NxMFaNuBs50shKVbeH12c1/Typ4X5rHG8TQvbkht6YFaP8lg3tpqryHW3A6OrCNhYT7oU1lfkEpLb1a3nryXklADlvfm8djG69txU+SuhD8UwI82Qupgn6oICgpi2LBhN7lh300qlYqYmBh/N0MIcQfz8zVQC0f3W4kd3YfcFXPZZJpMxh+WkzpMDSjkvroM85QMtv/A0G5oFe7P5B1Hc++0mkIrYM0h889XaNl6qgw6HdBtTSl4hzfz9KRtMLYc215eCENT0d3MBK0DgoF+ke7XmqbKXU0/GVRdr8rlcmG1Whk82LcAvp00NDRQVlZ2R5yrEOK7yb8BWpJP1kkjSdNK+NtfIGK0DtvezWzaC1QUsG2XgmGGjT1bN4FuMk/MNXpcXzSQuvE1Wl/tq0DJyyQ3zMjkcYm0XEIdl8jUx0OI6kqblApMOzex6tU9aH+6lqcTFApPWtFpTGTvA/1Dhg7qsXA0Nx+1xqNFRTZAab1dE8WY0XrURVtg5W4YMQvur3a/V1sMW/4Dcs2Q/i4k9e5KqwH3LNyzZ8/eEaHicrkoKSm5I85VCPHd5NcALdy3jcLR81k9L40lsx8jv9Dm8W4iidOayu1azLo8HTM9AlSxWrC1rbBZuZ0rQOs5SE5sNgW9vnX3sTD7TTZV6sFqAsBW8A4rtliZ8/vtPJZkQKuycvCt58gsh6hpL7J6XmIHQ7hm9r+17rrrp7Ejr5DruT0yjbVrU9GHDoP74+DwB3Cq6b0dv4HQcBg1B/pVA10PUCGEEN3HfwHqyGXPViuxixIxqACNjrhYndeiSgRgbb3NXvAmi1faSVmYwLXpRdVYqoAQGyWH8z0C1krB5myczdc7PcSOnkziuAjoW8KW3WXoJi3h9dFHKXPYMBe4a9DPXc7ypvLOKjtEaPFKM5OMzRkkdnWId9CDsPhBcBTAcytxX6RNgP94Cdo5REeCgoKIjo6+8R1vQyqV6o653iuE+G7yX4BqjCTOUrNtx34Kf2pAd2AdS7eavRZVrEDbSbgAxDEzfYnHrNcKsk5mkluVxGOLPG9jMbFuczb53qqIiiVxggFCcoEywE7+Hxezyp5C+gTPg1ZTuDuT3EnryXshyXsvdOjQG78+6iqH378K9nB4Yjq8kwm/2QIr0kHT+e6eVCrVHTMzNTAwEL3e638UQgjRLfw4hKslafZC9Ds3sedIOsunvcj2ad5LmjYkkF7g7Z0PWPnkUXQeZ+H9NhaFdjO4PbEzWbjIMyibwtlrYQW7AygvJP+z/PaHlnVxJA5r07U89Ac4pcDDL8F0I2CCd3bD3ocg9cZ6k/X19RQXFzNixIgb2u925HK5KCoqIjY21t9NEULcofw7iWhkEnP0m3ivIBvDlhWsyuuobOuXESmr2T+lbSHvt7G0UF8/Lqo47Nir7HBFufH2t7C5g9tlImuj9160raSQilleeq9JL8E9Zugf536d/EsYVA333vjkGJfLxcWLF++IAG1oaODChQsSoEIIv/HzbSw6IoZChU1L8iv7SfZYCEK5YKasTxwGDYCCoqhbTwpShYAKtFqwHjtKGVGMGR3LzOfWY8CIMcwjLC8UYnIaMHrJJMvGdKZubH7l8WW8cxmTdnpp8lwv2xQLhQUQu2g1by2M9TK823RPaTufAoPiPM4rHO4Nb6+kEEKI7wi/BajdYsFSolBYAurBZeSs3YRpyhNoX1hB/rPrSSt4jlWVy9mxeQ72t9JJ/3gm23emE9t0X6R93wqm/srJix8+D39c7F6+763JmDY+x6qCRFbvXE/KXQAVZL/6FCsOJPLi7vWk3tXcAiPLP8vjaQdotW0ib0MBqQCKAmp1c4MprIoidrCXi5wn8/kAPWkJ7d+v2h3UajWjRo3yYwu6T1BQEKNHj/Z3M4QQdzC/Pc5MW5XNqiXvcDR2CWunQ+5uC87mRQNUelJfWk3K16+xZpeFuEefJrl0E5s+rmgqYCd3fw5MSiYxMuRapSo9qatfZ/5duaz4dRZW7Jh2H0S/dD3zh+ay6vlMLJ7LHR7bxIypi8gsAey5rJk1iWUfuo+h5K0hYdIysqwACqbtGcx79LfkOtqeiUL+3kwUfTJJI/wZnxAQEEC/fv382obuEhAQQFhYmL+bIYS4g/nveaDjFrNl93a2r03HUJRNjiaZ5HEe03zCklmd/QnLXSuZ9HMrcY+ryX0ri0JAOfImm/apSXk0GX3blXo0Rpb/YTvbV6aid5nJeWkVv83TseTldAzH1rBqp6WlqOlAJsroyYzRA9o4YmMUck+a3csGJkwlTZNP5j8sgBrjgheZPzSLZb/LpdXV0lPbWPOeQtK8VMbc4KzZm62uro4jR474txHdpL6+nsOHD/u7GUKIO9h34HFmFZgPW9DPWczksCjsk2Db9nWsqYylDwol+wpRJyzhsdQlFIfrUFcp2J19iZu1nKcnuK9zxo3Tw8Z1LHq2hNQRfZrq3cM7n2WRjZ75I6JQj15IxqJqrOOa7jV15JK9U8H4VBIGNUAEhpFq2FWI5YUkYtVjSJoFmR/nY3ncgEFjZMmzaWQufY5Ns/NYPhZwmFj3b5soS1jC6g6WG+wuDQ0NLY/+6ukaGxuprq72dzOEEHcwvwSobmQsUb2ah14jSF75CZNdatRA6ootkH2QMgeAmqE/Xs3TU5PQRiSxunly6YR01ky4Vl/sgrfYPrKYK20PNC6J1BAdcaPd0Za4MKPlLaXCiXpCGvNnX5v0ExUzn7RH++C0A1o1xpQM0vV9UeyAFtST5vP8XB26sKYNIQaSF2SQlJRGbCe9T21kLLFtr7UKIYS4bfnleaDi1lEUBbW65wd1Y2MjdXV1d8S5CiFuLV+fB+q/a6DilrhTAiUgIOCOOVchxHeTBGgPoigK//znP/3djG5RV1dHXl5HK28IIcStJQHagzQ2NtLQ0ODvZnQbl6vjIRchhLiVJEB7kICAAFSqG3gC920uODjY300QQtzBZBKR+NbKy8sBCA0NvWMWchBC9BwyiUjQ2NhIbW1ttx+3qqqKrKysbj+u0+ns9mMKIUQzCdAeRFEUvvjiC383o1vU1dXx+eef+7sZQog7mASoEEII4QMJ0B4kMDAQrfb6Z572RAEBAfTt29ffzRBC3MEkQHuQ4OBgjEajv5vRLYKCghgzZoy/myGEuIN9BxaTFzdLQ0MDly9fJjz81jyQu66uzuv25vsx6+vr2y1zs285aWxspKqq6padqxBCdEZuY+lBnE4nBQUFJCUl3ZL6t2/f7tPTXoYNG8bDDz98U9tSV1fHoUOHeOCBB25qvUKIO4+vt7FID1R02fjx471uLy8v59SpUyQkJNCrV69ubpUQQviHBGgPolKpiIyMvGX133vvvV63BwYGcurUKYYNG9ZtCykEBgYycODAbjmWEEJ4I5OIepCgoCBiYmL83YxuoVKpGD58uL+bIYS4g0mA9iAul4uysjJ/N6Nb3EnnKoT4bpIA7UHq6+spKSnxdzO6RUNDA8XFxf5uhhDiDiYBKoQQQvhAArQHCQoKYujQoX459qhRo7r1eCqViujo6G49phBCeJL7QIUQQtzR5HFmgvr6eoqKivzdjG5RX1/P6dOn/d0MIcQdTAK0B3G5XC0Pt+7pGhsbOX/+vL+bIYS4g8lCCnekRkqPfc6Z2nDuTRxBBFBlMXHy/FUC1SoaFBf0G8qkkZFQY6HAdIH6iBgmjIggAHCeMZFvvYp26ATG3A2lxz7jTDVAMAPjxxPT9iEpFac4dKqSeiCw31Amjazn6D/PUdN8DI92lZu/4HRlEHcbxzKsdzd9HEII4QPpgfYgwcHBjBw5sgslLRQVWfnG3khzRjkd9Wj0sYwfBBfKrJRVuNe8LT9ppqisiuAB7vAECBnUh7rzVr76qhAA+0Ur586X803ZGUzHStscy8Xp42ZKyqyca6m3mosex7gmAF2jnXNlZym72PEZBAUFdfvEJSGE8CQB2oMEBgZ27ekkVx1cdUFov0hCmzZFxo9n7D1hqNsUrbDXgqo3fT2rVWnprQYcdq4NGPcncoAK5ZtizK2OVUjxRRfqvtqWY7WrzsrnxVUQMoC7O1mRMCAgQJ7EIoTwKxnC7UHq6+s5ceJE58/JvFKLAqhUndV4keqr3rYPoE8v4HItVzy23j0sEttFK8XHHMSN1gBw7mgxlSoNw4eEUXrc3qoW14XjvJ91sulVA0qdC0L6Y0y6j+GdrEnf5XMVQohbRAK0B3G5XFRXV9/EGrWogwGli8UHxTKot5XikmOcGz2BQa5iTn9Thyo8lvjwy7Qd3FVFxDJ1rEdXs+YiJ45/hSlnH1cfnsH3OuhgNjY2cuXKlfYLCCHELSZDuHeiSC19gNrqy50UDCVUDTS03X6Ryw6glxZdq+1hfG/4AFROK+bTUPvVGcpdwUQOi/Y+fKsKJjws7Npf1HAmT4mmLw6KT5zx8eTacXYXv8jYgulGf19cLuC9N3d1vl/Zx/zimQ0cvJm/X4QQ32kSoD2IWq3me9/7XhdK9qdvL3BVV1HZScmhEVporOIbz+5jdTmVtaAOG0DbTqIqJpq7Q8BmKeBwaRX00hM7uNOxYo+TCEYF0NjxTc3BwcHcd999Xay0kj1vbqF4YByGPk2bLhXwzivL+MkzC/nJig0cbGddenv+Ll7dX4m6eUi5upg9b/6af31mIT95Zhn/9oEJuwuIMpKo2sv/fs/UxTYJIW53EqA9SEBAAKGhnU7VAQagjwiG6kuUOjsuGToymsigOqwnvsTmAlx2Tn5ezJUgLdEGvZc99MTrNXCllDM1KvoOiaarTyh11Z7H9I/TVKKib//+nZYPCQnpWsVlf+fP+8OZ9YNJaAEUExuX/pr//OZefr7iFzzep4D/7ydLeO+6EK3h8zwThpRJxKmAqyZ+v2gZ/ydPTfIzv+DlZx4iZOfv+P2hSmAws9ISUP7rYw56vW4shOhp5BpoD6IoCl9++SUTJ07stOygWD29z53h3CkHxqYJP16popkywc4nnxezb9c5VCoXLkKJjBvP6HaSMXzkYMIthVSGDCB+ZFi7VbvKj/LnnUdbHy5US+TwkSTFt78fQF1dHQUFBdx///0dlgOwHPoY05CH+GXT0rkV+95h89nBPPvvi7hvCLDsaY7u/h2/zzbx+NPGaztWF/C3fb2Z/J/uHcs+eZ13Lsbx8n/9kjkDAeJ4edujLcW1iQ8xk9+x+1ANk6fKTaxC9HQSoD1IY2MjLlfHQ58twkcyrP85TGdOUj464VovMTKBOXMTWhVV3T2GWakjqamqQUFFL62WUI9R2ZHJj9Lq7tNeI5kxt839qG3qnTY3tqun1a76+vrOC1HO0c/KiUpKIFoFUMORAjMMfJTEqOb2GrkvCT7YfxTL00YMTZuV4/nsGfgQ/xWnBko5uLsUddIveHhgO4fqE8d94+DXh4/yf6ZOuu6WICFEzyJDuD1IQEAAgYFd/ScNZeR9o7hHW8u5M3Vw9TzmEyc50+5F0WB6h13i2Kef8ulX9vYKtSjP38Ofdx2k3dVqXaUc/MsudvzD92d6qjq/Dwcop/gQGO6JbAq0auwVwL2DiWrZPZyoIcDZcxS3TAJSOPLZP4maaMSgBqqLOWqGAdHhKKaPeefN19n47l7MrSYNRRIdB5w+RyfrQAghegAJ0B5ErVZ3aUizRZ9o7n9wMt+7JxiunMP8VSGmM1WAi1q7w8vdK3UodXUo9Z33cq/U1nVcQDWYBEMYrvJCPvchbYKDg5k0aVLnBS+WYgG0vZpnD5VTfBhQeesfepyxy8zB3cFMnjTGfd30ajV2oOyNX/O/PihHGzcMcl/nJ7MW8I7l2m4Rg6Khwl1WCNGzyRBuD6MoCmr1txw8vHiUvZ+eoTZyDD98IJqWjtrFGqqB1v0+K198WkzbOzKvXnGBq4rTnx7knOcbQf0ZmTSSSCD03nuIPH2Uc6dKuW/A4BtqYmNjI4qidH0iUYtwouK6UOxEHu9xL/9+b+trmVHTFvG7X013914Te2P/wW/4/a48Hn/WPWQbqlIDCooCMoYrRM8mPdAexOl0kp+f/+0rGjCe5FH9ofwonxytura9oQFQ0aeP1qOwncqLF7E5Q4nQ9W/606BqAHpFoG/Z1p/e9VWUX7h0LWxV0QzSqVAunGl/qLcd9fX1fP755z6cXB/6RgCnzmJr2aZw5SowcDBRTbermA//HZIe4r5+TUX6hRMFEO0x9KseRtwY4GJlS4+z1uVOzm/7G0YI8d0nASq86h2XSHx/FVdOf8YXzddFK2uoJZDgUC/XHnv1xxg/sulPi6oO1BH3MLZl20ju6Xv9foPDNOCqovzc9VXeFAMGYwDsV5svVoZjiO8NZ02YLzVtchVjPgTqUcOawtHMwY/ruG9CHC0/FdTDiJsIZaavqWipXMFZBep+fVo6mxXniiGiD54/MYQQPZMEaA8SGBhInz59Oi/YJRpGPjiOQSEOTucf5wpgvexwLyzf2SFK3b1MpfwMpzu5XBoapkVNHbU3uIJPQEAAWm1XYmow9ybBQfPXLVc446Y+jhEzG3e5Fz0o++RN/ng+nEe/b3QH31kTfzsfzcPjPe/TiWTWDx9EfWgL/7HP/YvCXrCLd8y9ebglaMspNkPU8EG0faKbEKLnkWugPUhwcPDNXVxdNZiExAaGagbRlypOV9ZCLz2DO7xFs5aTp8tRgrT0DTrPF385CD+YzPD2JsyqVQQCV2urgI7v/fQUFBTE2LFju1AynLiESHjPTDGTiAOIepR//7WZX7z6K8b9F4Ca+xa/wrMT3esqWfL/ijn++yQOaNPUiYv587OV/I+VC5jyWm+cF+sY+/Qv+d9TmoK22sznh9UY59wrPVAh7gASoD1IY2Mjly9fJiys60HUmdCB9zAIoLIYazWE3qO/bvk+TzXmzzhxCXobRjEj9jL7953ki71H0aXc3KemNDY2UlVV1aVHmhkm/gvG9e9x8HQ6ccPd26Km/pJ3pyjYq+tA3Rtty9NfSvl8XznGGfcTdV1NvTHMeYUDP2jar1dvtB7XOu35f2fPwAT+//HymDUh7gQyhNuDKIrCiRMnbk5ldVWcOXcJ9wisi9PHz1ED1JYV0d6dm1dOH+ST45dAew/fGzsQVZ9Ypk4YTGh1Mfv+UYzX0dwrNdSioo/2xkK/vr6e48ePd61w1EMsmFbHxg/yWt+ao1Kj7ecZnsBFEwdPDGba+A5mBTfv12qiUCm7MwswzPiXaxOPhBA9mvRAe5CGhgZcLhfl5eUEBwfTv39/nE4nVVXumbQajQatVovdbsfhcAAQFhZGSEgIl+yK+6Er1VZKjxzji69t1AZHEEcsugvHOVLuIuTugah3w1IYAAAgAElEQVS+OU/B347S/75owrRa7HYndUBj5VfsLVcICB+OcYwela2ccmBA5HimxdfwyakSTvdpgEb3/aHN7ao8Xw2EEh4B1dXV1NTUANCvXz9CQ0O5dOkSdXXufXQ6HSqVivLyclwuFw0N1z0mph3hPPzkfB5+w8SRi5O4b0D7JZUqNXH/41EmX9/97FiZGXPEg/xstlHuXhHiDiEB2oMEBAQQHByMzWYjNDSU/v37U1tbi83mvmGjf//+aLVaqquruXTJPQW1V69ehISEUHHpKi5AOV9IbrCWu4clolVdhjMmPvumGrTRGOOjsSuXMFeUkF98F9PHaHE46qgDCA7jgYQYwvSRlH79Nbba2pZjamIfIK7hK6qtxeAuTV1dHTbbOc5VKqDux91hUFNe09JWtVpNaGgoly9fbgn78PBwVCoVNpuNxsbGG7sHdMij/G5158XUw6fzs+Fdr7ZF1HReXj3dhx2FELergJqamsa2GwMDg2hoDOh05xB1ECpV5+XEbaCyhOPWevpE6hmk0xCEiyvnTvN1+VXoFcE9I4bQPwjAwdkThZTX92PYmGj6U87JL6xc7TuI7w3voGsHVFmOcbqqF0PGxbjX3nWcxfRVJYEDhzMqqoMF7YUQ4hZyuRpwKh3fMhAY0EhDQ+v1tyVAhRBC3NF8DVCZRCSEEEL4QAJUCCGE8IEEqBBCCOEDCVAhhBDCBxKgQgghhA8kQIUQQggfSIAKIYQQPpAAFUIIIXwgASqEEEL4QAJUCCGE8IEEqBBCCOEDCVAhhBDCBxKgQgghhA/keaC3sYsXL/q7CUII8Z2k0+kICLi1TwuTAL2NRURE+LsJQghxx5IAvY0FBsoIvBBC+It8AwshhBA+kAAVQgghfCABKoQQQvhAAlQIIYTwgQSoEEII4QMJUCGEEMIHEqBCCCGEDyRAhRBCCB9IgAohhBA+kAAVQgghfCABKoQQQvhAAlQIIYTwgQSoEEII4QMJUCGEEMIHEqBCCCGEDyRAhRBCCB9IgAohhBA+kAAVQgghfCABKoQQQvhAAlQIIYTwgV8CVKmyY2/zp7jc79k/yWDq3DXkVPhScwVZSxNIWJCJpYt7mLbOY96CTZiUVlvZtmAeK3Zb23ndxGXH9EkuVlcHLdq3qqn+CvJfz2DeW6aun44vHEXkf34WR7sFisjZ+jbZ5g4aDSgns3n7g8NUeT8I5k+28XZmLtaGrjQph8z/zsVa13nZb6eKwx++TdaX3lvdqUv5vL81k0MXurpDO59lUQ5v7zxEuefrrdmY25y/q8KC5VJH9dsxH8jmsBWoOExWZg6WLnzeQojuEdT9hzSxaVo621ptM5KxawtpEfm8uTEHu9VIzo5NmJvfjp3Dkqn66+rZtuC37Gmz1VYCOF4jY0EW6lbvJPH85iUY1W12qCqk8OQY7G3rOVmIxe5s9zWAYs0l648ryFqbypr3XiQ5wsvpOmwUngzBTgSJSUNRnlrEunF5LB/rpezN4IKq09lsK44nNS2JyBozB/JKPALVga1WwXlkD9lnrv3za4YmMSVW2/K6zFqGSz0UjZcDWA9mcaBSxxBO8NGHWubPMXopd40mOpH4U//NR++5eOSnU9B/i59ttrx3ef+kA7Va5W6NoqAa/ghPPqjHcfIgX55XCKk7RPbFlqMzdNIU4rRtKirK4e28s623NbhQFBe2j9/GrGr91sD7niAlrs1G6nHUKricLsDjvXoHiiMIl+frWhdKY5tzsRzm0y8/5cTkH/HIyLYNBHBSUXYWWz+FcWNiidG8y95sM8/MiuvgExJCdBc/BKhb7HM72P64gcK3ZjPvwGTGRFjJWrGMbeo0Xtw4FT2APZ/XXtiC9rmZKEDb7LOdLISlW3h9tqFpi5U9L8xjjeNpXtyQSsvWTzKYt7b6upC8zrFtzFu7B1CwAvY/ZjDvY/X1rwc/wdpXUtAPTuHFrQailj5FxqNWMra+RtrQ9qtXj17I8rlZbDOZsI810uorM3cl/KEAfrQRUgd35SP0ThvD9J9oyc/aQ9afnKSkTSZhUtS1L3OKyDljQxMzkaTYkGv7qdwRaC89wdnLDkrPu1CFVXH6+AkAQu4aTsxdasrzMvmoSMPE2SkYQ4vYuyuH9/+q5YffN7QfooFa4lNmUpWZxUfZd337AFAP5/sLpqDHyoGte7gSqYMLuWTl2dDdl0ryMHdLKg9/RHaZmpFtcw/coUY0jyyYQstPs4u5vLvrNFHTn2TKoOaNNnLffR9b25D0oijnbQ6eA1wK1FnZs7XYvYfLPbyR/6e3+TJQQ1xKGhPvgsiEH5I24ABZe9/l3apUfjIpsoPaNcRPNnLiv09issdh9Ja3Qohu5bcAdbNwdL+V2NF9yF0xl02myWT8YTmpw9yhlfvqMsxTMtj+A8N14dmscH8m7ziavwKrKbQC1hwy/3yl5Yux+lQZtMQpQAU5ryzlzUJQrAAfsPLJoyQ+9hKvb0gFTLw2bRlHF7zYFM5tX4dcCz9NLOkb3oKlm6g+m01mdjE2jyNVn7IAFjLX9+GoFghLZbTjIHuOGEgbq4U6IBjo1/TlqWk6U1fTT4aOv7O9C4wkMXUOmoMm7NVqBtafxXKhufdciRNQKko5e6b5U9UyZJT7jOwXSym1VlLmUKPtX0VpmXs4VN2oRf1VLtkWDRNnp2LsDxDD9Efryd65l8zdSfwoJR5te73LwEiSUsZRtjOXvcVxTI/24bzaOldEsSuSMQGHyPzQjGpECtPHRrqD/EIuH52CuOkTGdJestfZsBw/QWXza0clTlzYSk5womUU2EFl26Fne3Ov3kEV4Pzqr2Sfj2LkAz/iRy7g6xzeNWl58NFEIml6/bkL4w+mE6cGVei1qjT3TCFtloqPjlg5W2rHftlzlMN9bPv5E5xQqQEN8RNi4cxZ7KOGIBkqhH/5N0BL8sk6aSRpWgl/+wtEjNZh27uZTXuBigK27VIwzLCxZ+sm0E3mibmevTYDqRtfI6lVhRUoeZnkhhmZPC6RlhHVcYlMfTyEqJZyWuJmL2e5Awp3LWbdvsk8sewxYnV6tGFaQOsO7BBtO6/b0MSSvnk92E1kniy+tr00l8wDVsCIts1uikOBoi2wcjeMmAX3V7vfqC2GLf8BuWZIfxeSevvwwQKBYcRPmdJ0MD1DejX3QRWK8iAoYjBD7mnugaoIaQACQT8+Bb3mI964pGP85CQig0LQhtrIz9pDtmMghsgrmHMyrw2vA5qYRKLP5fLuu+WkpCUzJLidNoXpCFe5sBw+jD163LcOAOvXxbgGDMd+3IJLH098fzuW4ycAO0UFJ3D0jUFrt3DieAi6ETFEev4K0xtJmuBtTEKFutWvNQ2G8UmE3OWxqXd0U6/eszevISRUgzoQCFUBQWi0Wvc5hrp/BYVotWi9/BJU6ZNI1YNyochjlMRF+cnDWGshTN12JwWHgte6hBDdx68BWrhvG4Wj57N6XhpLZj9GfqFn3y2RxGlN5XYtZl2ejpkeAapYLa16eq2U27kCtL4k6cRmU9Dr1YAa/ehE9EDIZwA6DOMSSWz5QjKyZN9+nGptO6/boTWStsjY3ELy125jCwAGJk95GOPQWPSevaFzw+D+ODj8AZxq2rbjNxAaDqPmQL9qoKsBasd8IJeSq82vIzHOGIe29ARnL3uW89YDBXcv1N2rsZwrR6VLQnM8i3cvxPPknBjCo+JJGZXYfm+uIYaYEgdh7YUnwLlSylChqjiB6cI4ku7qoGynLJwodhF5fyJT4hIpP30aW0vnTUtMQhIxAJRzIu8sA8NiiGwZllUoL29vQN+FokDb8Wjn5UqUuyLdP6QC1Wi0aqCXe4AguC9azzQblsxPojyqaHod0sn/beq7Yohv/kwUE0WHVKiCXQSFhKDR6TEM7OhKsxCiu/kvQB257NlqJXZRIgYVoNERF6vzWlSJANpMgLUXvMnilXZSFiZcu4ZFNZYqIMRGyeF8j4C1UrA5G2fTddd2KQr5r09i8daOGh5Lxs7tpA0F04YE0j3Kpm3II2NS0xdpyQe89p6OpElacvNMvPlSFpaY1ex/NeVaz2vQg7D4QXAUwHMrcXc/EuA/XuLGu2chhN89GJcTcFjIP3IWveKtlxdJvNdrbU29mqAiikoh8v5o1JcON72nIea+KA5/ks1Jj3qMM4yE2Z2EaM+yZ/Mh+s56kikdtNBafBYl3Mi4wMOYTBaSpnXwb9EJ5+lCzgZE8WC0GnChHTiknWuwCkVtJwtxhaKCXMoGJhE/oG35tj1Q4OIJcksHEj48krZT2Voz89EbByhXq1EFAi4FxaXyOuHJPYP3IC0ti5zIEzPiWkbsbQUnKA8fgkGxYK8y8+mHX2L7cRqJfTtsgBCiG/kvQDVGEmep2bZjP4U/NaA7sI6lW81eiypW8P7NFcfM9CUktXzhVZB1MpPcqiQeW5TmcdXTxLrN2eS325ij7Fm7mBWFU1mcAIzMYMfWNAyYWJeQTn5z8B5ZR8LCa7UYF+5n/wLgwh4yfrrGoz47OX9ch2nSctYn5ZKbF8XylY/x5oIVLNtpZMtcj5NxlcPvXwV7ODwxHd7JhN9sgRXp1/WCOqYmcni8+5rbxSpMR9w/H7SD44kf6MBe28FtKyoNWk3Tl/xJM5YGLTG1p7FUOaHGyonjKiKGqCg74yDyR9OJsx8m669nsSm9+PLdQoY8Gdt58xqKOPG1E/2EeBLVVZhyTJgUw/WzorsoJEqPrj4fyzmIiS6nMM907baRVhzYgXBvdfQfTvwojwY0fW599fHED/IoaLaQW9p+W5wVX5L9rgnnyImoUDN8WtMkJPNHvPF536YJT2De/QaHWvaKIXmBu49sy3uX9y8otExTcpjIPenCkByL5jMLjqhkZvbNIuvDA0TNn9JJiAshuosfh3C1JM1eiH7nJvYcSWf5tBfZPs17SdOGBNILvL3jnvyj8zgL77exuGfRtvriUSqwHD5I9mEACxbHElavnIn6Q88g7IRGi1YDKCGtJjkpea+x4pMo5m+eQ9zZXPfGmDRefC6bx15dQeaELaQ1T7Q99Ac4pcDDL8F0I2CCd3bD3ocg9WbMtME9ieVAFbp7dNdlcn1lGdbQRJ6cY0QNqAZduzboAAhRowaUWgVQua/jNahueG5T1ZdfYgkewvQYDajHEZf/Pl/+04rxQR/jQGMkfkg+OSdPQHQ842a0V4+Zj9445PWd8oI/8fZRjw0NLhRcmPe+TbHnCboUULXp+ilVnD1ZRBXgKLcRNT6V5OGV/PUz307nGgcncvKpvCuR5GgNps8AgoiclEx8aRY5B2KYP0UiVIjvAv9OIhqZxBz9Jt4ryMawZQWr8joq2/plRMpq9l83Xuj9NpYWzdcwXSbWTUtnm9rQVGYOS16eT5IavvUyB9Ysnnshk6jHX+PpsWoUj9FDw9znWbJjHmvWZvHwhlT3Ndqkl+AeM/RvurUj+ZcwqBru/Ra3snilJWZqynU9Pnfvx2ND3yHEj2p674qJw4qO4aPiUWPGjA3TB5mYGxzYvfbp2qGYOXisCt2YmRjUADoSE4Zwev9B8sf5PiwZEzOET/dZMBeVc+i6YdpmLhRUtD6EjqSfPNNmAhrt3MZyvaqCTDKP2AnT61ABkSO/T1KsGq7N5/WZ4+hecm06Jv7QiNbzKn9gJEkPxGHZncOBmPlIhgrhf36+jUVHxFCosGlJfmU/yR6jjMoFM2V94jBoABQURd16UpAqBFSg1YL12FHKiGLM6FhmPrceA0aMnrNlLxRichowNmeSKo60zTt4epgBy8bW1zEBOLmGxxI8eqJrHyNhbfOLDoYr7fmsW7qK3Lvms+VniWiBVgsqqWKZv2I+HyxcxaYDM3lxSlOaDfK4L1IVDvfeQDh1WTn5f36bL9turlPazrZqzeXEVmrGEaIAOoxzUjFezuXdXe1O4WrDgXnfIay94kkde+3fRD18CuNPbONQjon4ThZiaJdWg4ZyLmge4ckFnocsx1obib5/B6flsOMM1qJpLKfolB3tiBgiw2JJnDoYvecl4gY71hIHYdGRLW0MG/MI88do0ASb+eiNcloPjiuYd7/hMUvZykdvXHul7uA/H4c5mw/yHcRNT8Xo7UfFoIkkDDrNgbx8xs1NlNtYhPAzv62Fa7dYsJTkU1gCalUZOWsXsa4glzenTWXRbhMHX19G+q/2YNOGYNm5iBn/uoNCj28q+74VTJ36HFlWG/l/XMzitQcpc1nJ2fgci59aQXZLr6qC7FefIv3R58hq2aZGP8KAtr1xyJEZ7CgooKBgC/NxL/pQUFBAweb5HZ9ULz1xI1PI+O0SjO0kgnrs0yxfMJ9E3+fP3AAHRUfMTcvxRZL44yd5ckHrv0fubf01bC89Qf6BbLI/yOSjr+xQWcihYxeodDoBF87Lduw1LjpeCPCaqiN7ybWGEDc5kchW/7VpMH5/IpG2Q+w92v7Cg97V41QU7OcrcaCmV8UBtu3Kx2b+iDe2HqDobD5/fT8LkwOoyidz89scONeqVXz50bu8n2eFy0Xk5x2k8AIoJQUc3J9Dztce7am1kJ+T1bqNwRo07c42VhM36xmeeeYZnpmih9A4HnnG/bqjXi24uHLZiS5xJlPuae/nhJq4SUnE3aXBecuXRRRCdMZvAaqtymbVknc4GruEtdMhd7cFZ3OgqfSkvrSalK9fY80uC3GPPk1y6SY2fdzcn7OTuz8HJiWTGOm5mo6e1NWvM/+uXFb8Ogsrdky7D6Jfup75Q3NZ9Xwmlq5+83eZgiU3HwtguRBCysrVpA3raGaMluSly0kZfKtv4nNi/XsWOSesVDoBysn/09u8vbX130dftb6dw36xHKXvYAYbH+TBGA3ojDwyawqJg7VAPfbys5y9cIX6LrTAYf6IDz6vdIfCIC/nqzEyfbKeys/eZ2/xjYSoC8vf/sR/mxQM9z2IrvIsjoCQlh6iJu4Rvj/czqHd+ZRrxjB5eBDmQ/nX7rG0miis0mK4t/U4qHp4CjNHhWA9uNcdvnYz+aciSWpq44E2M8FvijobpRccoDjRJKbyyJiwjsuHxTFlSjy6jm4XEkJ0C/89jWXcYrbs3s72tekYirLJ0SSTPM7jCy0smdXZn7DctZJJP7cS97ia3LeyKASUI2+yaZ+alEeT0bftRWqMLP/DdravTEXvMpPz0ip+m6djycvpGI6tYdXOLiwz76y+tsg9oDiaFr2/orQpqGDa/BTz/q+F5EVp2F6dy7L3CrF7hLQ24Wle25hy/fXYW8npwkkVZy+GkzQzGUMIQCSJP+28B6ofn0zS2HjioyPRBrf9cEPQjYgn3hCO+2dLHI88k+plJq0L6+fvk3nQhm7CHFI7CAVN3CPMmaClbF8mH5m7GqIhxM18kifn/ZDksS5KzzqINMS0GgbWP5DG/Nka8t/+E0WDjURWmThUAqBgPnIaR0QcRi/3oUZOSiX1ASNDQoHSIg6bTNijv8/ke+ox5xxoezfVt9NQTu5/v8/RwHiMoWbe35VPVavF4vsSk5BE/N0386BCiJvFz9dAASowH7agn7OYyWFR2CfBtu3rWFMZSx8USvYVok5YwmOpSygO16GuUrA7+xI3azlPT3B/+ceN08PGdSx6toTUEX2a6t3DO59lkY2e+SOiUI9eSMaiaqzj3PeaVny2jfcOWzn2ITB6aNPkliZfbyJ92qZrrzemM3Vj84trF7GUI5tY9bqFxBe2s2Sugacn6Mn4+TymrtViGKlvd/lBAEY+zYYXkju8/Ogr+3kb6MeRmpxIpAbw8nQRl8OOw+Wk9IId1XU3PrbPVevAXuXEvWaBC4fdgavqAnaC6BsIUIXpww84dEFDzINzSB7eSY8KCBuTyo80e8n6dBtvn0vmiWkxXZ7l6yo0cbpeT9JwDZQFQe15zM3L810pojwwnCEDjQweVkSh3YarTsFeryN+Qrz7GuKASMIDT1D85SEiqjx+TJzM59BRK/SdSKRajeaByZQXOFHXAdiwFJbjsBdhQ0N0RKs52Jze9zbFTT9N1dj461b36lQuBVTDm8s5MGfv4QRxPJIyEX1QHNq9e8jcYkITHomuj+f/mqUUtTprNYMTkom/Ff/xCCG6LKCmpqax7cbAwCAaGgM63TlEHYRK1Xm51txPUTHNXcua2U09TpeC4lK7b2C/YCIr+yBlzZ0RXTQPT00htsOJLhUUFhRzxWsjdcSNvv56p2I1cbTUHQN9DYnENvVGrPs38UHpGB5fkHR9uJXmsOljK2N+ON+9io7DxJYNVlKeS2nVE1aq7NisZso6Wr0+PJrEEd30DWg9TPYxJ7FTJ7b8ULAXHiC3xAHBWmLGJhHjZcKNvfAAuZcGk3y/ATVWDn9ylrDhIRSeLkcTOY6EsRrONq1+pNbGMH5iDGGB4Dhvplwdh6GDSTxe2a1YasI6XHHHXniA3LIwEpKNNC+7oTgU1Bq1e8LPSRPmMvfIAb0iGDzIQFy0rsNAdlVYMH/jrferQTfC0HoJQHcrOHv8rHtIODicIcP1TWsAWzn8iRnV+GSM1y3QANYvszEHJ5A8Wge4sB7Jxaaf0ron3KDgqHHiUiop+8bezrVmFbroOPePIyHEt+ZyNeBUOr6+FxjQSEND64tXfghQIYQQ4rvD1wD13zVQIYQQ4jYmASqEEEL4QAJUCCGE8IEEqBBCCOEDCVAhhBDCBxKgQgghhA8kQIUQQggfSIAKIYQQPpAAFUIIIXwgASqEEEL4QAJUCCGE8IEEqBBCCOEDCVAhhBDCBxKgQgghhA8kQIUQQggfSIAKIYQQPpAAFUIIIXwgASqEEEL4QAJUCCGE8IEEqBBCCOEDCVAhhBDCBxKgQgghhA8kQIUQQggfSIAKIYQQPpAAFUIIIXwgASqEEEL4QAJUCCGE8IEEqBBCCOEDCVAhhBDCBxKgQgghhA8kQIUQQggfSIAKIYQQPpAAFUIIIXwgASqEEEL4QAJUCCGE8IEEqBBCCOEDCVAhhBDCBxKgQgghhA8kQIUQQggfSIAKIYQQPpAAFUIIIXwgASqEEEL4QAJUCCGE8IEEqBBCCOEDCVAhhBDCBxKgQgghhA8kQIUQQggfSIAKIYQQPpAAFUIIIXwgASqEEEL4IMjfDRC+u3jxor+bIIQQ30k6nY6AgIBbegzpgd7GGhsb/d0EIYT4TuqO70fpgd7GdDqdv5sghBB3LAnQ21hgoAwgCCGEv8g3sBBCCOEDCVAhhBDCBxKgQgghhA8kQIUQQggfSIAKIYQQPpAAFUIIIXwgASqEEEL4QAJUCCGE8IEEqBBCCOEDCVAhhBDCBxKgQgghhA9kLVwhhBB+d662gZM1LqzOBhwu99NUQgIhUh1IbG8VI3qr/N3E60iACiGE8IujdhfbrU7+clGhsMbVYdm7QwKZpQvmx3eH8HBEcDe1sGMBNTU11z00LTAwiIbGzh9EGqIOQqW6tQ8sFUII0bMcr3ax+uurZJ53+rT/lPBgfhndixm6mxOkLlcDTqXjAA8MaKShob7VNglQIYQQ3Wat5SrPn3LclLr+15BQNtzb+1vX42uAyiQiIYQQ3WLh8ZqbFp4A/3m2luT8K1xUGm5anTdCAlQIIcQtN99kZ0tZ7U2v9++X6njkSzuX668bTL3lJECFEELcUhmFDv70jXLL6s+/XM8TpupbVn97JECFEELcMrvKFX5XcrXL5R/qH8ymkb3ZMqoPzwwK7fJ+H11UWP11149zM8gkIiGEELdM/MEqvurkFpVmI/uoOJ4U1mrb40ft7Djf9d5r4QNhDNfc2D2jt9ckIpeV3J25WD3aq1TZsXf218m1Z+XIFuZNS2BdgW9tynp2Egk/24blBq5xWw9kkV/RTnu+ziRj7mNsOuZDe4QQ4jb3Wmltl8MT4I/xfa7b9t4YLQPUXY+q35fc/Ous7fHLQgqKNZ+s11eR83oa63dlkKQ1sWlaOts623HuevJeSEINKHY7zrb/LkMTeDgCNu3MJi0mCW3b/VUhaLVqby3CtHEZqw4oREywsmfrJi9ldEyel4bRs1K7ieytv2XTkW3M37yd5WNb160emkiCdg1rduTwxOjk69sjhBA92ObSGwuz+8O8R1J8HxV/v9S1mbZvlNbymxEawoJu/eio/4Zw7fls+tdlbDk3h/XZGSRpmt+oIPvZGaxQr2b/qynthE4FWUtnsCrvBo85MoMdW9MweG5z2cnfmM7irU7SfvUiU/Vt9nFZ2f+fq8hU0nhtcwaJYW3fryD394tY9l4ZKa/8hdUzIlqf5icZTH1Fy/rsFz3OUQgherYjdhfj86puaJ+GNt+fzZLzr/D3S3VdrmfzqD6kR4V0ubyvQ7j+W8pPm8iSza8TusGMHsBhx64AmDEdAMNCvXtYt7m8Rsu1zmMEqRsKSAVQ8lkzbTGZc7dQsNTY6hCW9+bx2PZEtuxcjtFbx9NeSOYri1iTZyBxbBmZHx4jdWM6sc1B57CQuTKDTCWN1f93+fXhCaCKIOm57WwJX0lBRFm7wb5sSlar17HP7WD744brCwohRA/wt4pbN+u2MzkVdTcUoL7y71q4GiPpL7hDz7RhKulbPd7bnM6Mzddeths46kRS5qrJ/LiAwqVGYlvesJKfXYj+oeXEeR21LWTLv85jM/NZvX0JKXob2a8sY17K35i/ei1pIdms+tUmzAnL2fKH+Ri9/TByFJL9D0iaFotx4WqMgBK7n2SPHzLWTzKYt/YKy996ndTBnu2WAV0hRM91+ErXr33ebF9cqe+80E3QzQFqx7TzHQ7aml9fu65oXFpAwVKw71vB1BfsvLh7Pal3AZhYl5BOvmctX+djtl17rYRNhor3yNw5mpTmkCrJYt2xCCZPtXP0M4+9dXEkDtOCOpb0t/czX6VFrQLQk/KrLWj7zGXZs7PZBkTMeJHtL6ei9xbAgP3YHt55ZRsrP3mRnWtT0atArdXiWVzXy/1KrbxWpcEAACAASURBVNWi9daDFUKIHuhrR9cC9KH+wVxQGjhZ3Xn5h/oHd2kot6vH/rb81wO1FrBltxNdSuuJOZaiHBi5kLgOwsaSu451+1pvix2pw/zhOswe2wwjdZTte7N12QnLeetnie6QU2tRuxQqSo5yMDuLrJ3ZmDCSsvTnzAwzs23DKmZP24TxoVRS/2Umk0dGEeExCUk7YTlvvaXnuadWMXuhnR2b52P47j1xRwghul1lF1cGem9MH/70jcLPzTWUXG1gaK/rZ9x+42zgsYFq3hujZfCnlZTVdjyhqL4RrtQ30vcWTyTq5gDVYpy7BCPAkXVs2e3uGVbsW8XSre7os5Uo4HiHFQv/1tSTU7AC9j9mMO/jWJ54dTUpC7azfcG3aUcF+a//lnUHjmI5VQF3xTJ5Sippv3ua9aMNaFUAKSTNXo5SamLP/mxy1y/it6cqUFBjWLCe7UvdIawelsb67SGs2aWj77dpkhBC9CANjV0L0I8v1hGtcYfmXyuU6xZP+OJKPYU1LubcpabkakOn4dmsOxb2898s3CPrSFiYT8bO7cxRmzha2rXH2uhiEzE0906PbWPe2j1d2s/w47WsnnVtiq1SauJohZa+lfvZU1hLO6O0rY898XFm6q9gdUYRO7idPdq2yWah8IKCdmgs+pZZuEk8v3mJ94lNQgjRA9z3z8sUdOFa5DODQnk9vnfLTNuXYzS8PKwXADvOKzx+1E7foAByJ/Qj51Idy76q6bTOAMDVzoxeb26/Wbge1HojiZEKdntHIRqCNqxN4rhsFJ7k+gk6ni7sIeOna7C0qVs92EjiYKj4cB3bNoewfONjTROQKsjduIJt+uW89mjzlKRCdvxsHbnhM0kba/CYqNTMQuZTiyh47C3WTEpi+c+ulajIXceKP0Hq/1zOtQU2QtB1cKZCCHG7M2hUXQrQN87V8j8Hh7D8nlCOV9fz6yIH737jJCiAluuiPx/ai5BA+E1x15bqM9zgSkS++k4EKAAVe1gxaxW57RZIY31eBkleem0dTtBRQrrQu9RhGJdIohqgAut2IMzAmAlN10oJIRcoa2/3k/vZdiyE5J/pIExN4oRrs4UrynWADX1sIolDO22IEEL0CGO0Knac71rZl047WH9vbwruD+P1s7V8fdWFqxFSdMGk6NRMiwjm8aN2zju7Nnw7TnunBKjLTv7mHTDN3d1O25BHxqTWkVfx4TJmrGyvgkLWzE1gTSeHub7X6OkDVj55FF3Tp2ErAY6s5KmTzf1E93XYtmssNL+X//FmrCMXMlPGZIUQAoCp/YO7XHaPrY4vP7vCyzG9+LdhvejjcWnQZHfd8Hq4D93Asb8NPwdoITueT8dyQUvGyFQf64glY+d20trr3V3IYtmsVdjaedttJs+vW97UA7Wy54V5rNE/z4alzT1QE69NW8ZRr/XvYdt7CsafJWGQ/BRCCMC9LN+I3ipOdXEt3HKlgSUna1hysoacRPeUzEUna7q8v6c5kd3zZey3AFWuuNcYslQZyNj8ImlhOeQCV+w27FWtFxmwXe3ol4dCdZUde3srRlU56fx3ixOlHlqN9dYrONts8nZs05/fJFeTwurZsV2aiCSEEHeKp6JC+OWpG3g6Rxu+hOdPBqqJCume56T4LUCdV+1opy1n/bPzMd4FXHBvz/7VbLK97tHesncWNi2cirfl3z11PISbzYrZbY+6gtm7O6njwh7e3GpF/9MXSY6gaWax9yXxrxtm9rYurxBC9CA/v6cXG87U8k0Xrl0uGhxK2sDW3ZDmnmjJ1QbSj3ftgdk/H9rrxhvqI78FqHbGGvbP8Nig0qIbGUv60rdYktDmGui+VSzd2uf6Hl6EkfSFyxnzw/kk3dXOgewmMrcfRBns/S5N9ZAk0hfO5OH0FGLb7UJayXn9A6xt64hIZvnvwTJkjLtto5ewf9/T7VXSRog8nUUI0aOpA2HVcA0LuxB+bcPTk7fFFbx5dmgvEvp1X6zJA7WFEELcUunHqnnb2rV7/X01MSyIvAn9fNr39nqgthBCiDvGltF9mBZx62bG3tMrkK2jr38Y960mASqEEOKW+3C8llkDbv5Uy7jeKv4yTktMNy2e4EkCVAghxC0XGhjAR+O1LL8ntPPCXfTDSDX/mNCPUVr/TOeRABVCCNFtfh/Xm93f03J/mO+hF61RsXlUH3aO1RIR7L95ODKJSAghhF/85YLC9m+cfHhBoSsPWZkeEcyP71bzVNTN68WC75OIJECFEEL4VSOQV1XPCXs93zgbcTS4Y0kdAJEhgcT2VjGhX9Ate76nBKgQQgjhA7mNRQghhOhGEqBCCCGEDyRAhRBCCB9IgAohhBA+kAAVQgghfCABKoQQQvhAAlQIIYTwgQSoEEII4QO/PVBbfHuXLl3ydxOEEOI7KSwsjMDAW9tHlAC9jblcLhoaurCApBBCiJtOAvQ2Fh4e7u8mCCHEHUsC9DYWFCT/fEII4S8yiUgIIYTwgQSoEEII4QMJUCGEEMIHEqBCCCGEDyRAhRBCCB9IgAohhBA+kAAVQgghfCABKoQQQvhAAlQIIf5fe/cfHWV5IHr8G4ITjB0KEo0GYRuKJCUaC5e01LhQU0HsYY3bWlwrtZb29LTcc6v2HN3u2dR7brVnu3p3q3uO2HarsjbqFq0tLlWqNlYuQdpQ0ChsIilBKKnBpKQMjMyESe4fk0AIkwBPggH9fs7htHlnMnnyw/nO+7zP+44UwIBKkhTAgEqSFMCASpIUwIBKkhTAgEqSFMCASpIUwIBKkk5r3d3dI/J1fUdmSdK7bqSiN5zcA5UkKcCIBDTZESPW718ylb4t9qvbufzau6lpD3nkdlZ+YxazblxB83Hdv57qG2/ghh/Ukxzg8Wq+O9jtgz9u1TMtJ/RZwyLeRN3vdhAf8A5N1DyynNUNqQHv0bG9mbbO/ltjNKxZTd2bKaCDup8P/hgAHRueYvmvGhj8XsOpg01PL2flxo6wT/9zHU89soL1u4/z/i2bWP2rTQz4W/5zHU89spqGo36Wg+vY8BTLn1xP64l9mqR32QhM4daz7IolVB+xrZTbf/4QiybU8eD9NcRaSql5YhkNvTcXXcPSywuOepzqG/+ZZ/ttbdsOxB/g9htXEjnilnL+/sdLKY30u/+WRhqnxw5vSMaIxXOIjkvfMdbaSGN2jBPVtqWRxtY2Yh3RDLcefvxhl4KOraup3lZC5aJy8vc3sGbd9j5BjdN2IEnilWdZ/ebhX3/uh8qZUxSFrg52vP4S61+oZ/Z1lZT2Dj/ZTGNDG7mTU8BBkgeSJBIpIHvAoRxMJki+k6T3Xk01y3lpW5JUVoTIGf2GnUySOnc2N11dymA/mbZ1j/PUljiRSPahz8u+cCE3zS0gvmUtG99KktO5ntVvH/rO+NClcyju/2toqmH5uh1HbutKkUymaPvlchr6fVvnfewLLCjut3HvLna8maIgOYOCTINOJUkcSJA8wZmqg8kEyXjyXXzhIZ063njjDd58803mzp1LJHKSnieHyYgdAy267Qkeva6Qxoev5oY1l3HJhBZWVt1MdWQR377/cgoAYnU88K2HiN52FUk46om1bUsjfOMhfnB1Yc+WFp791g3cHf8y3/63Sg5t/dXt3HDPPo4ng+2rq7jyOxO5b93tlA/xd9d8/xIuvz/TLYuOfvza78APN8Bn74fKSeFfNDqVeddHqVv5LCsfS7Bg0WXMunRinyfjJmrebCN36mzKi3IOf152bvp/R42jdOEXyFu7glU/fZzY1ddTfi50vNJAKwmir9ewuvEgew5A/L+fY/VbPX9CZ36I8jnFZHq50GtqxU3kfWAFK/4wkYXXl5PXe0O8npWPbSR72tRB43lI5ELm3ziHAlpY88iz7M3Pg921rFzXRt7HKqn4cPp72bNpFat3RZieqfEH4ySZwsIb53DopdnbtTz+861MnHcTcy7o3dhG7eNP0XaMFwtH3Hf6TVReMsQ/nuRWnntkW8abcqfOZ9Gl/V9QSu8N+/btY/v27cRiMRYuXHhKR3SEFxE18+qLLRRd/AFqq65lWf1l3P7DW6j8cARIUvu9m2mYczuP/k3hgE+sjS+u4Cfx3ieTfTS2AC01rPjPvYeeGPe9sQsO5XQIku00r/81zYWLqDiOxvW+SBhUJ3AG8MH89Me5Pd9pquclw7GeszMZlU9Z5TXkrq0nti/CeQd30Lw70XPjHhJAsn0nO97s/alGmXxR3/RlU3DZ9VSesZL1zS0k8+LUbe4gr6icogkAcQ62tpCdX8ikc3o/J/fQZ8d2bmbHXyDekYD9LWx+PZtITh4XXpjPuFlzKdm2ktUvFbJ4bgHEd7Dm6fXsmTSHRcW5nJA/NrEtlc8lWetZ8XQD2dMWMO+j+emR7K5l1RtQPG82kwd62M42ml/fzJ7ej+N7SJCibftmNh+aBY6z5wSnYAeSireyoz2XwkmDvczocehFgvT+MnPmTGKxGG+88QarVq06pSM6sgHdXsfKLaWUX7GdX/8XTLg4j7bnf8yy54H2DVT/PEnhlW08+8gyyLuML1xb2mcPp5DK+x+g/IgHbCe5bgW140q5bEYZE3o3zyjj8utymHjofklaXnuVXfHG9PGrna+y9rcRCovKGJtpnOse5LavfIe6V9pJAov+7RoqJg3DL7TpIfjOMzDt0/CJfeltB7bBQ/8CtQ2w5HEoPyvssUeNo2TOnPT/TxYw+czefdAkTetg9IRJTP6r3j3QbHK6OOqIeP7HK6kEWl6qpnlMMQs/UdIzVdlGx2ubSJ19ISUXHePnkBNJv/hJJEgAkVH5lF89h9iTq1j+8wLGxlqI55dzzbxiTjCftPxhG6lzLiT2ejOpghJKzo7R/PpmIEbThs3Ex04lGmtm8+s55E2bSn7foRaUUv7xTHMS2Rz532ouhTPLyTm3z6bOOLEDKTiQAlIk/hIjlptDNOOvKsaOl1fTtHMXbfEUnDubmyYNPk0tvd/NnTsX4JSP6IgGtPGFahovXsxdNyxi6dWfo66xrc+tZZRd0XO/n3+de9flcVWfgCZbmmnr/4C9WmPshcMBBSBBW1uSgoIIEKPh6Xt5sDGZDmjjizx4fy3l33iY6wBopvahKh58uob63cC4HCYuuJUvL2njgW/ce9SXq3/kBv75hb5b0o8b+/fbueGX/X7pk77APd9dkN6zGPNh+EQxbPoFvNFz+xP/BGPGw0XXwAf3Accb0BgNa2rZ/k7vx/mUXjmDaM/e4GGZ9kAhvRc6OeMUbMHc61kcP7xzfCzRSSWUTIK2vfVsSuZx4UUlfYKRItb+DpExEZJ/bqUtFSF/fBQOcvQc/aCa2bwtRf4nyphTXEbr1q209e5kE2XqrHKmAtDK5nU7OG/cVPIPTcsmaW0daEI/RTIJ/Wue+Msekufmp4f45np+tm5HzywB1D/7MzaPuZD5i4rSj9CxjbqaLTQ2txEnl9wz8plxxRxytq1k1VELlJqoeWQtRxyN7UxCqoFnH9nWbwIil+IFi5h9LtJ73ukQ0ZELaLyWZx9poehrZRRmA7l5FBflZbxrcgL0X+oY2/AgX/9OjAVfmdVnmmsfzR1AThvbN9X1CWwLG368msShKdUJVPzjo1RQz72zllB9xS08/K1C1n6viq+9UAtEqfvDVXzu5jsofbSK6umLueXaciK7+y9M6tHRSCO38FCf466Z1P/75dz82l4OPc9fMBe+PhfiG+C275A+SDsL/uUOBj2YmFEO48+fRCoBxJupe2UHBckZGR4mn5JL8zN8fpJ4ElL1T/GLLXt7tvU8Ye99iRW9C246kyS7s4lEIqTqlvOjDYcXBA16bK5zB3XPb6DxT20kziqg+KIKri+aTO47O6jfsIFVj64mToRxBWXMv7KEccf4bhNbG9mRNZG5UyJAiuh5kwfYg03S1H+xEHtp2lDLrvPKKTmn//3774ECb2+mdud5jL8wP/23NrWCm6YCDav40ZoUZX9XSXFHPet/8Txb90OqpZG8D09nzpzdrHlxD4WzZlAYgbaMhzQPEj8Aky//LGXnDfYdN1Hz+KvpuEvvE30j+vLLLx/6+FQxcgHNLaXs0xGqn3iRxs8XkrfmXr7xSEPGuyZbIPPBoGKuWrK0z2KcdlZuWUFtRzmf+9qiPjGr594fr6buWGMaN4vPfXoXdz92Cbd893bKI+2s/GWf2+MJ2iiiLD9TRiNEx0UH7V40J8PGVCv86/cgNh6+MA9+sgL+6SGoWnLUXtDgIuRfWEI+wNsd1L+SfvkQnVRCyXk9U44Dyc4lmtuzrzPrM9w0C6CBVT9an37C7g0GPatgd5fw+WtK2fbMj1h/1nxumjvYkboUe1s2sWFjjEkXzWLBJyeSl5tN76kw7R/5AgsqJjMDIBkn1jn6uF475EwsIO9gHc1/hKlTWmlcVz/AaR9xYsD4TI/Rfwq65+c2tqCEkgv63LGhmdqdg48nsSfBmR8poXDDemLTr2LOJRF4u/24D2GPPjNKdNBv/Mygw+HS6SyZTNLenj6n8fzzzx/h0RxtBKdwo5Rf/RUKnlzGs68s4ZYrvs2jV2S+Z/2/zWLJhky3/ILv3PQqeX2+i8ynsaSnVAdfkFFAxdcW0f50LXcPdJeOFhqByuF8Jlv/Q3gjCZ+6A+aVAvXwk2fg+U9C5ZTh+Rp/qOHxNR3k/VXeUU0+uGcXLWPKuOma4zsu1xGLkX080yjJDtpiCdhdx8o1BRTPmE3xxFziB+LEYgB7eCeeJL53D7FYzyuLUTlEzzrOKZrcUkom11GzZTNMKWHGlQP9dtMvBDJp3fAYy1/ts6ErRZIUDc8vZ1vf33EqCdkZj44fEi0qo4w2ajcy4Grvto7j/NlJIplMsmrVKtrb25k7dy7Tpk0b6SEdZWQXEU0v55qCZfx0w2oKH6riznWD3ffIDycsuIsX5/S/U+bTWA6JnPC8aI8Yu16ro/75WqCQsZnmF7es5sEftA0a6ZZNGTaW3wF/1QBnF6c/rvgHuGAffGQIp7JkFGXq5QuOPg923eM8dbwXDqCFllaIFk8cJLatrF+xivpYDtExKTinjOv/dkY63C2bqH2tdz/xIHuSkNq5gdreZbBnFDCropTME/lHmzp1Mi+90ExDUyvrj5qm7ZUiSXa/xWF5lF//1X4L0BjgNJZhkIgTS7Sx+y+QM3Fshp9d/5W/mbQSh8yL3KT3mNMhnjDSASWPCR+C9rYoFd99kYo+s4zJ3Q3s+kAxhbkASZLJyJGLgrJzIBuiUdIrapnIJRcXcdVt91FIKaXj+sRydyP1iUJKB2tSKkZzy0BPUFFiWx5ixe4ybv/XxVT0C2jexUtY8pVjf7cFH1/CktyJR3+NC4r7fF/j4SOZJhyHqpW6/1zOxv6bO5P9V1sNKL5lI1uTecw86qoEpI8H/n48lTeUU7bwespyc9mz7nGe2p19+I+sYAYLDr3C6DlncmoFC0LPmYzmkksru3MXctONfQfaSsuBfArOHvhTU/EYiTOi5Ha30vRGjOi0qeSPK6Ls8kkU9D1E3BWjZXuccVPyB59R70ySHGhm4kATtWt2wMQy5s3q/xJrIqWXzj6Oc5TTx66jFlTvcadLPGEEAxprbqZ5e5LG7RCZtIuae5ZRP+cLRL9VRd0372PRhtu4c88tPPHja4g9vIQlv7yKR59cQlHPk1TshSou/8cE33767+Hfv86dHbfzxMOXUX//bdy5oYy7nryPBecCtLP6e1+iak0Z337mPiozrWB8poorn4mR+JsHeLQo83iLr3uAR6+D2CurqXkjhwXTeqsTo213HmWfWUTZuUAyRjI7SiQbiLfTvD3BxOkFRID2367g2UTh8fZqGMRpemUHeWMA8in7u8rgPdD4m2vSFyoou4YZGZ7EW9s64KzJjAeyczOkpitJfH+izwUdYqS6IJXYe3gKF448HjuggySSSWJv7SFOhDPb11D92zNZ8JFWnvrdWCo+tpe1a1PM/Hwlpck6Vjy5mfMW9N2r7GDjqhU05i9k8fRm6tZtZeK4qYx/ZwNrX3yLvDmLWNh7TuqBZupq1kNsMZWXZEroHhp++Th17SmKP70g83A/WMqCz5YCbTRs2AzTS8jvfai3m2n6c4SyOcVEu5LED2STm5sNpIi/tYvY2Mnp+8Z3ULehg7zpmb+E9F7x+9///rSIJ4zgxeSjHau5c+lPeLVoKffMg9pnmkn0Pm9mF1B5x10s+MMD3P3zZor/9stU7FzGsl/2XiA3Ru2LNXBpBWX5fZ98C6i86wcsPreWqv+zkhZi1D+zloJv3MfiD9Vy59+voDkF0MLqO5Zw5ZwlVBOl9JNf5u9/8DS/+Wb/80AncNV3X+TF/1l2aNqteU0VVXf9+vC1drc8QdU91bzYFINkLXdfejlfejJ9a/K1B7nhxq9R3XOKStuWJ7j3m1Ws2D7sP84MErT8ZiU1m1vYkwBope6x5Sx/5Mh/q/47875PbHsLMVLs7eiguaaa6ud3MX72QhZecnj3O29ClOTWZ9OP0xAn70MDX/CC/dvYsK6W2kP/NrMrCfGdG/psq6X21R3Hcd3hFM2/foyf1Scp/Nhc8vbsIJ6Vc2gPMbd4IfMvjLH+mTpacy/hsgtH07C+7vBeXks9jR1RCj9y5N5g5MIFXHVRDi1rn6c+DsQaqHsjn/LLCtjz26dY07MSPLm7njXPPEV1bQvZuWPJmzibhTcuprz/zuWEMiqvn0fxoZepHWx/ZT11O3q/wyQNdXU0702RDSRfe5bqJ2t7FpynaPrdalat6/lLG5NDsmU9K1dnXmgnvVdMmzaNefPmnfLxhJGcwp3xdR76XvooZcuTS6jJreDuGQXU994+roK7Vl9G4399iUtv/RRLr4uw7OGVNF69hMJXHmTZCxEW3FNBQXa/p9vcUm754aNcRREFqTpW3HEndd98gof/9xJqv3Q3dz5ZxkPX5VFQuoBbP/NtyqYXMuGoZ/3EofMSI9Fonyi009wETJ2YvihDqoWVP1hGy6W387lZUYiUMutKWFFbT/t1hUyYtYBFuSv4RW0jS6YVUXTj3dy+5nPcfUc1ZQ8vTp++czIkUiToYMfbkym/qoLC3auAfMo+f3x7oPGGVfxsbYyJH51M2/pVNF22gOsvyyPa73PzPn49X/34cY4pWsycK/tMVQ9pCjeH4qtuogKAFtZUx8m/eCq5fc6mLPjrRSw+uJWa5Y8x9oqZ5G+tY/32MuZ9KEnDK1uJT5hJ6bnA20c+cv6llVROaCVnDNDQxKb6HPL+bj6XvfkYNTVrmLp4DgUHIbtgBvM+OZn8wfaWR0XI7ftDi+1hb1cO543t2fbH9WxoyaX46pJ0/KcUMO63TTS/DQXnRCidXkhdzWYaKKR4VD7lnyplx8o1rGooZmFxpi8onf4mTJjAhAnv3jzdUJwC7wfaTsOmZgqu+TqXjZtI7FKofvRe7t5TxAdIsv2FRiKzlvK5yqVsG59HpCNJLDGW4k/fwpc/nj4WVzyjAO6/l699czuV0z7Q87jP8pPfrmQ1BSyeNpHIxV/h9q/to2VGHhCl9NpFlGYYTTR/IhFWcNu1DRT2X81ysI3mNyKU35He02p+soo715Wy9JFrKIwARCksLYJ7GmlIQnmklIprI1T/Zy2NXyqiKLuQRf+wlCc+fy9VPy3n0c8Pw+UFM4i91QYFM6isKEtP/2WYok3FY8RTCXbu7rcydHctK9e2Mb7sGuZdMo7UBXWsqnmKx1/OJS8/j0FnV8+YxKyKEnL+2MCOjhQdu+MnfY4j1VjP1oMFlF+YC7tGw4G3aOi9PN/eJlpHjWfyeaVM+nATjbE2Up1JYgfzKPl4Sfp0mXPyGT9qM9s2rmdC3wv/b6lj/astMHY2+ZEIuX99Ga0bEkQ6SV/FKONqsRxyx0Drpl+w6q2xR/3HdfAvb9GRO5GyPKCrldr/10D2lAXM6D2sEJ3IeWM20borDufkwpRJ5P9mDU0NUFwMnDObedObeerl52meNo9C34xQGlFZ+/fvP+q9IkaNGk1Xd9YxPzknMprs7GPf70jpd1Gpv/Ye7r6651kolSSZiqRPYN9dz8rVa9nV+/YheVP41OULeq7BOoBUO40btrE30205eRRfXEj0BPb2YtvraWhNZL4xOpFLigrSxzh31rJiSwHXXNln6vK1aqqej7BoySJKx0HslRX8pH4sn/rbBRRFAZLUPXwvLeVfp3Ja6KrgE9SyidWvJSi6fHZP6CHWuIba7XE4I8rUj5YztXfBze71rNw0jnlXHnlpvXRwIf72DtoGfK+09NWMcnY3sbXn2ru55xdTOCHTDz995aSOCyqYPeX490BjjWuo3TXuiNW6yXiSSG4kveBnSz0Nu2LpaeAzJzDpgkKKp+QNeg5lqr2Zhj9l+qZyyZtWSMbTfgfSGWPHth3EMl4/t8/jdbaxua6Z6EfL+lyrN8nmF1bRfPZsFs4sAJI0v1zDzvHlzOlduNW1g7q17UyeNePwcVTpNDTcb6idlXWiLTosleoikRz8/Y9GZXXT1XXwyK/57gdUkvR+914I6CkwhStJer8ZSvBOFR5FkSQpgAGVJCmAAZUkKYABlSQpgAGVJCmAAZUkKYABlSQpgAGVJCmAAZUkKYABlSQpgAGVJCmAAZUkKYABlSQpgAGVJCnAEAM6vO/nJknS6WJIAe2yn5Kk01xoy4YW0FTXUD5dkqQRlwps2ZACmurqJuVuqCTpNJVKddEV2LEhLyLq7Ex5JFSSdNrp7oZkZ/hM6pAD2tXVTSJxkO5uMypJOj10dXeTSA6tXaOHZSBd3bxz4CBnnJHN6OwssrKyhuNhJUkaVt3d3Rw82EXnwaGv4RmWgPbq7EzR2QlZWVnYUEnSqaS7u5vhnCwd1oD2Gu5BSpJ0qvFKRJIkBTCgkiQFMKCSJAUwoJIkBTCgkiQFMKCSJAUwoJIkBTCgkiQFMKCSJAUwoJIkBTCgTT/NRQAACu5JREFUkiQFMKCSJAUwoJIkBTCgkiQFMKCSJAUwoJIkBTCgkiQFMKCSJAUwoJIkBTCgkiQFMKCSJAUwoJIkBTCgkiQFMKCSJAUwoJIkBTCgkiQFMKCSJAUwoJIkBTCgkiQFMKCSJAUwoJIkBTCgkiQFMKCSJAUwoJIkBTCgkiQFMKCSJAUwoJIkBTCgkiQFMKCSJAUwoJIkBTCgkiQFMKCSJAUwoJIkBTCgkiQFMKCSJAUwoJIkBTCgkiQFMKCSJAUwoJIkBTCgkiQFMKCSJAUwoJIkBTCgkiQFMKCSJAUwoJIkBTCgkiQFMKCSJAUwoJIkBTCgkiQFMKCSJAUwoJIkBTCgkiQFMKCSJAUwoJIkBTCgkiQFMKCSJAUwoJIkBTCgkiQFMKCSJAUwoJIkBTCgkiQFMKCSJAUwoJIkBTCgkiQFMKCSJAUwoJIkBTCgkiQFMKCSJAUwoJIkBTCgkiQFMKCSJAUwoJIkBTCgkiQFMKCSJAUwoJIkBTCgkiQFMKCSJAUwoJIkBTCgkiQFMKCSJAUwoJIkBTCgkiQFMKCSJAUwoJIkBTCgkiQFMKCSJAUwoJIkBTCgkiQFMKCSJAUwoJIkBTCgkiQFMKCSJAUwoJIkBTCgkiQFMKCSJAUwoJIkBTCgkiQFMKCSJAUwoJIkBTCgkiQFMKCSJAUwoJIkBTCgkiQFMKCSJAUwoJIkBTCgkiQFMKCSJAUwoJIkBTCgkiQFMKCSJAUwoJIkBTCgkiQFMKCSJAUwoJIkBTCgkiQFMKCSJAUwoJIkBTCgkiQFMKCSJAUwoJIkBTCgkiQFMKCSJAUwoJIkBTCgkiQFMKCSJAUwoJIkBTCgkiQFMKCSJAUwoJIkBTCgkiQFMKCSJAUwoJIkBTCgkiQFMKCSJAUwoJIkBTCgkiQFMKCSJAUwoJIkBTCgkiQFMKCSJAUwoJIkBTCgkiQFMKCSJAUwoJIkBTCgkiQFMKCSJAUwoJIkBTCgkiQFMKCSJAUwoJIkBTCgkiQFMKCSJAUwoJIkBTCgkiQFMKCSJAUwoJIkBTCgkiQFMKCSJAUwoJIkBTCgkiQFMKCSJAUwoJIkBTCgkiQFMKCSJAUwoJIkBTCgkiQFMKCSJAUwoJIkBTCgkiQFMKCSJAUwoJIkBTCgkiQFMKCSJAUwoJIkBTCgkiQFMKCSJAUwoJIkBTCgkiQFMKCSJAUwoJIkBTCgkiQFMKCSJAUwoJIkBTCgkiQFMKCSJAUwoJIkBTCgkiQFMKCSJAUwoJIkBTCgkiQFMKCSJAUwoJIkBTCgkiQFMKCSJAUwoJIkBTCgkiQFMKCSJAUwoJIkBTCgkiQFMKCSJAUwoJIkBTCgkiQFMKCSJAUwoJIkBTCgkiQFMKCSJAUwoJIkBTCgkiQFMKCSJAUwoJIkBTCgkiQFMKCSJAUwoJIkBTCgkiQFMKCSJAUwoJIkBTCgkiQFMKCSJAUwoJIkBTCgkiQFMKCSJAUwoJIkBTCgkiQFMKCSJAUwoJIkBTCgkiQFMKCSJAUwoJIkBTCgkiQFMKCSJAUwoJIkBTCgkiQFMKCSJAUwoJIkBTCgkiQFMKCSJAUwoJIkBTCgkiQFMKCSJAUYPdAN3d3d7+Y4JEk6dWUdvSljQLu7u+nq6jaikqT3vaysLEZlHV3QAQOaSqXo7u4+9E+SpPeTrKysQ/+yR2UfdfuAAT148CBdXV10d3Wlt2FEJUnvD1k9c7ZZo0YxatQozhg9iv47oRkDOnp0NpEzRtPV3eUeqCTpfal373NU1ihGj84mlTp4xO0D7oGOHXvWuzJASZJOdYlE8qhtnsYiSdIxZJqJNaCSJAUwoJIkBTCgkiQFMKCSJAUwoJIkBRjwWrg6cXviUNMEjbth/9ErniXplDP+TLjofJhfBKMyXO9VA8vav3//UWtzR43KZsyYnJEYz2nrgVp46HcjPQpJCnN2Lnz1E/DZ0pEeyanpwIEEXV2pI7YZ0GFw29Pwmz+M9CgkaegW/w+4ec5Ij+LUkymgHgMdov/7ovGU9N5R/Xv4Wf1Ij+L0YECHoGE3/PSVkR6FJA2vH70MXV4C/ZgM6BD8qnGkRyBJw+/PcXjO57djMqBDUN8y0iOQpJPj9T+N9AhOfQZ0CPbER3oEknRy7HlnpEdw6jOgkiQFMKCSJAUwoJIkBTCgkiQFMKCSJAUwoJIkBTCgkiQFMKCSJAUwoNK7YT7U3QpVJ/NrzISaW2HF/JP5RST18g21pZEyH+pKjn23ld+Hu07gYQunwuLnoDp4YJKOhwGVRthAgVx8Ldw86QQeaCM8NCX9OVfPh+rnhmuEkjIxoNIIq7wVKo/zvsuWQtlxvNd9Yckge7cJuG+Ze6jSUBlQ6STqvxfZG8vYTqjYm952InugS5edrJFKOlEuIpJOouonoez7ULY5/fHK76c/rnhy+L5G1Rdh2cwMN8yHui8O39eRdCT3QKURdiJTuP0tvhYqz4bYFGDjkbdVAc1np1f/nuhCJEnHZkCld1nVF6HgNVja83HoIqLe25s3w6IMC4bueg54Lv31Km+Fgpdg6caj7ycpjAGV3kWVt/YErydkZYOslK1+cuCFPn3jSQlUPZchwjOhZi40vAT3TYGb50LNlOGdPpbezwyodJJVfTE9zQqH9zZX3AqFJ/Igf4ay/zjy8Zo3w6I2qAEqroW7+oWx6mKIAi0boXojVPecd7pspnui0nAwoNJJVPVFKP0TlP3pyNNKFn0/w517Alc32FTr/HQ8+96nIi/9eVX02QudCRVnp1f7Htr23OB7vJJOjKtwpZPorv/IfHwSCLu833PpVbxHBPY5qEtAZZ8Vt717nzVO10onjQGVRsjisUACtg/DYy1dll5xW3Pt4ZW5zZtdeSudTE7hSiPk0nMzby+bC3Vz+2w4zisHLXopvWjoZtJTtwPu+UoaFgZUGgkzobjnknz9r1s76DHQAfQ/5SV61tCHKGlwBlQaActmQ/TPhxcXLWs7fF7oCenzji6xnYdPUVl8bfr46kDniEoaOgMqvcsWX5u+IHzdemAjlJGesq1JHP9j9D01JlMke88hrfpiOqReQF4afln79+/v7r9x1Khsxow5jrd8eJ/7zMOws2OkR6FTWd+p1dhOqNiWPk7ZliF6faN4lJ7zQA+9G0uf80KPS89FFaJgTHVc5hfBdz890qM4dRw4kKCrK3XENgM6BAZU0nuVAT1SpoB6GoskSQEMqCRJAQyoJEkBDKgkSQEMqCRJAQyoJEkBDKgkSQEM6BCMO3OkRyBJJ8cHfX47JgM6BCXnjfQIJOnkmJ4/0iM49RnQIZhfNNIjkKThd1YE5k0b6VGc+gzoEFx8PlReNNKjkKTh9dVPQI5vNXJMBnSI/vEK+NjkkR6FJA2Pz5bC52eO9ChODwZ0iLKy4P7PwnUfHemRSFK4SDb8r7+Gb31qpEdy+vDdWIbRjj1Q0wSNrbC/c6RHI0nHNu5MKD0/vaZj7JiRHs2py7czkyQpgG9nJknSMDGgkiQFMKCSJAUwoJIkBTCgkiQFyBjQrKysd3sckiSdsjJ1cYA9UAMqSdJgBtgDfbeHIUnSqSvTHmjGywVnZWWRTB6+lE73UZdakCTpva1vM487oJ2dyZM2IEmS3gtchStJUgADKklSAAMqSVIAAypJUoCMi4j03tTZ2cm+ffs4cOAA3S6tlqQhMaDvE52dnbS1tRlOSRomTuG+T+zbt894StIwMqDvEwcOHBjpIUjSe8r/B5Cm0iEmUHxnAAAAAElFTkSuQmCC;strokeColor=#FF0000;fontColor=#000000;fontStyle=0;align=left;" vertex="1" parent="1">
          <mxGeometry x="30" y="10" width="184.93" height="330" as="geometry" />
        </mxCell>
        <mxCell id="_FJcgA4YUxXhmZtNspM3-4" value="【网格员处理-驳回 转交 指派】&#xa;网格员从任务列表，进入任务详情&#xa;每个任务会绑定几个任务变量：&#xa;preType, preDocno, curType , curDocno&#xa;还会获取到globalTyp, globalDocno （上&#xa;一个任务的type 和 docno）" style="shape=image;verticalLabelPosition=bottom;labelBackgroundColor=default;verticalAlign=top;aspect=fixed;imageAspect=0;image=data:image/png,iVBORw0KGgoAAAANSUhEUgAAAYQAAALlCAYAAADE/ZGxAAAgAElEQVR4nOyde3wURbb4vzWJEwgZQBJeCY9EgSCSKI8sjyjvXfAJ7CLsCqgEH4hXwRd6FfEKencB3QX9EXTRoAh4RVYERUAREA3CBnkkyCZBTQCZACYITAhkIKnfHzNJZiY9M51mJglQ389nIFN96pzq6qo6daq6e8TE7eUSV9y/aSZJHTKaeqRfEU3dfm37yRMo25p6DNSFHttGyqLHtlaSkTrVY9urDiP14c+YXvu6bPvtEtX1XEx9+JAJ5jWua/uB6LeG+0mwxgwDdaGrfQXJtqdM6MUWojY7i6Ypgw0iEDJGO4sR23qozY6qw5QuofrVWaoLGZnoaOuuLqNHjw7zQbMdrGsRqMnO5eAMtI3rEDHQVvTUaai3AhhRpqIC7wm12VHq3YzN4HUI2ExYl33pV+ZyjAr0toN638ZqybamniCNn3VhO7S+RwWBurCBkrmSowJd7UBHefTYrr3OUl3IyERHW3d1GT16dJg3JKPH9uUYFRheLtMhE8zJtF/bLlxlgsZhBsdvl4RQz2M1VgZEmSG5BZRcgPRf4cx5DT0aentEQvdmgvYR0K5R1bH/nILCc7CzSLKryHd5jJY5EFFJbXYW3fZ9F0eXXqO262tnqYGagEW9eqjNNma0PP5s69FT10tEeqityDdg19Ple5coiGsq/KnVZTtUbwF8Kbu/oyC+sePvkguSb4/7KJSEm1vCyLaCqAZaSuG6JkATuLmloPAc/Oug5Jtj2rK+yuzNfk311PcQWiuxNm1fCiF0h1YQYYM9Z3CLClo1F3RpCMU2yY7ffOtpFeUu6yZytWCwBewlkq2/ahTUV5k10oLlCOrbRKcuowJdbVBLLogTnZo6osZh0KaxYOthSYNQOF2qnU/vREczQvBXmZ0bO2RyTlc/FtVAVFrzVNMwBB7oKOgR6Z5+6Izj8+s5aN8IohpURQxRDeCheMF1TeGfOd4LdjlGBXobrB77enQHRCaIncWvbS0ZgFaCF3vB0X2SPT9VHBE8OVhwiwXsZWAOFRw9KnnyO8nRanoFE24WjItyyoYICo5KntwmKQBu/Z2JKW2AMiBEYD8pefkryXadZVZRgXdTwYwKDNmuJ1FBBc0aOpxAjAUm3iC4o2P1SKEmhNa0s45oKxjexvH36sPwyWHtq6GV+mBHQXenMyi5AKsOSTZYvdv/Y3vByHaOv/u1BIHgLQ2nEAhnoEV97yx1GZVcCp1FthPM7wDtLBAh4ChV0UG3JMEt4fDR1+W8+Ru06ih4q6vgsXaS5w566OksGN0cvvl3OS8ehtadBG8lCKa0kzx7TjCuLRzMKeeBLKC14IO+gok3SLbv9XPuwZxF6pCpS0ekw5S+PEFq39qZjJXHn56LiUquMjn+btbg4p0BuEQI3hpnVBiEhzpm8Ej3gklnPl+V63rs40OSzk0E2adgaZ6k8JxjH6FtOFzXVBAe6nAU/zkp+c8p+Fe+ZOtReDBe0CgU3v/J3dAVGxXUoiPQpTuIUcHFOqKjpxyfG9uCdDnyOwsU/yZ507lMdDQXTnSFSAuA4K07BY1+lYzdJhkRBeZiycLDDt3WXDjQCdq1BFkmaH1esjDLqbhAsssm6N9UuJXEX1sI5mBcW46orqOC2loCrfOJjsb3QDnlUM1COI10bwaPxju8TvpxePvHi7N66AxM2u7QER4KU66rvnwEcF0Th831R+Djg5JX9spKZ1FZPhUVeE1SncXJIclfDznypbUVbjJvbirnTRfRVp2gGbDjeHU9HRpA8VkocNFQYBd0bCgYWQ6UwlZXs6UQ0UC7zJdrVGB0QDKSrS7bt97yVBcyoEenMwgkoa6FSG4OkWGOvYHs09CuUVUn8rYB7A1/lfRcgqjcJyi54HAWB4uhXYRjHyE8FIbFQPMGgn/8ICudQaBmGFpytdlZ9WCknanO4pqnIkV4lUHC4ETBpDiBvUCSdtyR76HVLpIakXjFUbPJ8aWguoj+PY4AyOihvke+gYp2AmY7SJMd3fb9qwk4lUtGbRvBxA6Oll9yAR7JkIY9lJ6T+2eO5LlEwTfHHEtJrreqhofCn9o7NpJd9wwCFRXUpiMwtGRVS7a1ZC75qABXR+CHpoLneggGN4LdP0mezKqeTzr/MYdol8deDpigO7DLW5k10q6UqEBX+zaoqzYnOrr6m98EHXoCZdsglbedhodUJYaHVregtVeghd4B8OAZeOg7x5d2jeDBTo6I4dAZWPqTdNsvqO11x9ockHWYMiZTi53FiO3gRwU+skkgQvBqsqBjseR/v5JstHnPc+Ac3BoOrWRFJCBobQbbCcmqcsGUZtARh0OQEtqHOZaYvJ1HoK6xHuq7M7hSogLDTtC/SEAx1aYxb4Pm84mOvYTmDRybzA/G+94tD2Zn8ecMtGS0Gqwex6hr1uhHxlNPwGxjrMHW6hq5fxGvMmN7CLqdlTy0RcsZCCYmCaZ0crTDTwrBHiF4Ot5xvPX1gq5hcOA48Iuk4CrBrT2Fo8zRgu5NoOA3GbBrDMEbOAPm4HXkCdQkzgi61NSlMzDQ1wFKnCsrR89I/m+/5MRZLupTedtpSVmVkSLnww2/npNULKC6HvcspOtmb2GpxgzNz+z5lUzJ84mi8m6mf/wgazUqCKSHD9TMvLZmbUajglpzBIGKCioSJYCgmwUwC5b90X3ysTuznCcOwM3tBJG/SublAPvLeedqExO7mvjiOjCHQsEvkoUHHUrn/Sh44VrBl20E5lA4USj5h+ctp97K40cmEI7gcogK9OS7JKMCPf3Gh/3TpY5nEX4+CS9skbywRfrI439sFvdtc77+WkLnJo7EwnNQWOoQdk37tdSxnFSxGXyw2OEMohpA8zBH2n9O+TboLa19BIy7tmoDubb2C+pbZwnW8lSgOovu8gRIj75rIf3KaC2B+tfrkRAh6BcJBQclBzRkercXlBZKdhX70R2gQVNL7pJsYwGwrSUTrMlObToDPXUa1wTiIwWhJu9Cns7AW3U6HIKBRhXIBus3jw4Zo7brU2cJlm0tmcujs2jMePwm+C+z0batR3fAlsuM2NZIDNZkJ5h9NmD26/lkx7BtP87Aa3nQettpADpLrQ5aevQYqNhgdRQ9trWS6nsIrSkXVPs6ZjxBmujU5kTDn+1g2w9Ev613Y0a9n+j4lzHiCPTUp98nlWuq8HJwBnr0GqU2O6oOU4aErtSowPBgrKUrSPYDdS3qW5/VozeYA7IuYwb01JYz0IvPJ5V9GdSivs8w6rKzeLVvRKYezZy0jesQMdRZguMMjKL7GteifSO2A9W+gyWjJ4+udmqkLjQLUHM9QYtKdNaf3msRGozB+GIaQrDs1+bM3O+FrUvbWnqC1VgDZjt4jsDQspveAf4KnejUZVSgxxHozReofmukHRhr3xr9pIb16vb660A1WCNcKZ1FT6PSq9ufTLCcgbZxHSJ6ZKrlqTtnoIXuPHqdRjDsX2LOwCiBGIy18tXuZMeAbU290q+MpmoPOc0fyKl3Ht6g/UB5eBUV+MgWNNt15whUVKCjPDpk6tS2wXYQqH4bEEekqx1o9JOLGDN0/R6CEYN6MKLmUuwshhvnJeYMtDASFeiSCZIz0LStN49epxEM+/VtQDYgo4daG4wN6qnvUYG/6+n3N5V1KQzWwGWwPNWFaq4nmEtEuvQEoE4vzc4ifR73RqAGpdqMPP3Z1iyPZsaa2zY6QAdrEqcnny7bgXJOtTjR8ptJU6TmV0JPW/Z6l5EuZbXkCK6UqOBiBjW/DS+IUUHgHJEfZxDEqCBYjqCu7de3qODKnej4l6mrqMBVpsYRwsUUxGhnMZQnQJ1Qj209HVWPHiNcHp2lupARZ6BFfRqM9djWLI9mRv8ygWjfRpupigp82zY0ZgRoEdJX+arddlotcz2fYejpLEbt68GIb1KdxTVPYJxBsGbmRgdjPdR3ZxAomaCOGbU02dE7Xhiaq+pqBxr9JAhjhs8IIVgzjPo0awtmVFCbjsDfYBysjqLHtlaSEUeg6zp4kfMno6KCmunVoyeo9o32N78JOvQE03YtOQJvzlXTIRi5sPUtKjDaqPVgZBZQ153FiG1DeoLkDDRt6ymPDhkVFQRe5rKNCgy2A13drZacgXYmx3/VHILRgcuL/oumvnWWQMww6ltn0ZQLlIP3L2Kws/iX0aUnWI5RJ3VpP5iTOCPUZODylSdoDj5IY4Z2HulXxohtf2OG75fbXYZRge61wHrkiIxGBXquRUAcga48GrMdPbZryREE6vrWtf2gDhx1absWHUHQll+1dFXLp9FPanHM8P5yOyMzjppn0dZTzzvL5RAV6KlT3fb9qzEmU0vOQDtTzfUGzHYA7evJE6hJnBF0qalHzkBTrcH25M8Z1MWYUf3ldgGcQdf3zqonT0Bm0Aa5FDtL9brQmPH4TfBf5tqMPANpX4epWpvs1Gaf1dW3tOSCOCAbsa2nHRhr34EZNC52zHB/uV09alSXQ1Sgx359iwp0X09d+aRfGf8htM7y+JGpTWdvyBF50VunbSwAtrVkAjfZ8K83eBMd/zKXSlTgysU9qaxTzp/M5RoVBG3ZLUCdUEUF3hMD1bZ12/ddHG099WgCpyePln09A5fufDr0VBPRI6MjTyCcgVGMjBne2oHxJ5U1lPnNU4udNVCdRY9tPbqN2g/U7MVvJj22dai5FH7EprqQf9tGlwHrU/sOpoyePIGaxdbWZCdgtjXrouaRgV77F7Ps5vNJ5UCFmlpydT0zNxLC15ptLT0GyhOsjqJtOziOoL5NNOra/pUSFegtc6D6rT/7wYwKamvM0JPH5L8o3hXqPRF/DUtq6NY6Gb8DoIYtf+WpTdua+XTIqKigZtRmVGB4qdCH/eiWgr6RgRuQgyWjJ0+wnEGg+q2WkJ6Jll/bWuOeRlRQ0/FKq3xaZTTa170uGV1qnTVgjfwy6SyB0KPHEd3XTzC2iWB3djlP51Y//tgAE7dYYN2acl73ZUuDVlGC68N9y0gJxacl239z5mkuuL5hdblim+S7EwCCOXcK+oTBZ1+VM7vIu15/PHuriTsaw/e7ynk0Rzuf21eL4G99oTBb8mq+tkx0ookPE8D8G4xYK7HqLY9FMLA9DGstsJyQzPoFEsN9N+e8nyTZGumGnZxnngAJ1W3k67NoPgrkKVLzCqztaAt0PKnsqwDhoTDjRsGZCzBrj9SU+cP1gvHNYMN+yfuF1fV2bQFNTdCisaBNQ4hrBC3McNUZeOTfkuMAjeEmLwODvwv2SwH8rKNia9MJBbOx6pqZ69Djf9YkAUH7BkAI/HZE27Y51PnxYmtsHxNDIjTs2yXbpWBMc41jHhzMl3z3b8ff/boIHmmhIZMn+a4I+vQS9GkAXICEJBPvu8jsyy7nr3nV8z7xB8fAX40Qx389bjCxJbH64Z17ynkit+r7gC6Omb85WZAYJRm/s3rFH9kryeggSG4qGGuRzDmtfc5J1wsmtBdEhUFMA0cdV2A3w7BmgsmttPNW8MlPkpku34O1BHopTnTqcq+gLhxBBT5vO/WVt8IZtI+Adb94l9tzEm6PgtsTBE33S944BiD4xyCIcRUsh/MSfjsLOach61dJi4Zw/CzQRjClte8T8cY3JyX/KPFzXkGKCjT16NFb7zuLM6URtAsHzkm2n/FjW/qp5qugfUOgFA6Wuh/atbecJw7AmP4mHm4OB/PLuScDSDLxdax2mfflSD4+CbFxgntagO0MtO4geLw9UAYHz1Rli2oMEQIOeilgmNOp7cuvmrEDRLcSdG0A+cckuS5ljogU9G0MZtcFWQlbtpfz5yLB/+sh6BQv+DAUuFYQ66VK7hpu4i6PtLyfyhm9DTKaCFKbgv0C2IBIIP3fkvePSDJsMO4PAoCMneU89IO7jhkjTIxo4p4WzP2w6plqrlePHhUVeM/jNZ8H3p9U9qHM1RlsPQpLfpReDR77RTLrvODZ6+CmLgLKJK87I4Uzv0km7NYuvVbZjxdIJrs0bl8nOLmvYHAjHXqNzsSv2M7iknKNoB1AA8FzIwXPucit+7icV3UUb+l35SwF6GFic6xj+eferx1Hx/QXvsvrA/tZyZcHBS93BS7ArlLB/BsFrQV8v6+cKc61kj6/M/FKEyg6Inku36dKCgtgm8v3AZFAAyg+Beknq9LjLdBX62QB6wHJyBJY8juBtQjyTZJop0x8G0GsGbJ+lhzxUgbrMecf28rpme7484XhJoY3cSxFZXhmMNJO69ksNmBRr//i6JPRMR4Y3TzWYcqQkN5rWv1JZT/KPJ3BwmxtZ+D6/fgxyd/CBC+0hl3+ZpJatqXHdz9ozUbrkyO4pKMCl+OTnMs5h45JDjhnyB1bC9pdVWXHnyk99RnWQDC4HUQ6l2jMoY7vFUs2Xk+jJXRqBPZS+HMPgbkMvttbztNOZ9C6s+DFOOC05K/feC9IxZEBfQQDNI53vU7Q1VtG6f4VgCOSe1ZJx7k7l5SS+5gYaAZbgSQl3SkZJUgbLEiQkvnrJEttTj1ernGNxxut6xOgiU5tLYHWpW2tfEYcQV1HBa4y7ktGfpRpOQM9g6YEjh2S/Nch9/RGVwtWDPZSyguwZItkjcahwR0ECQ20sx0/IVnmMb0yMgtQUYFrHg2hRoJujYELsHGbZJkEELw1Ejgn2e0h3ru/YND3kq+KvRffG9fHC653+d66jWBGG99lBvh9R0FrYN8BSW6koE9z6HODiW9v8BBsLHj1z45opPi4ZOimKm1Swl/XlvNXl+8VPHe7Y29h565y/stzd7batRA8fatgVANYtqOc113baBvB09eAuVSycIdLxkLJphOChFaClN6w6UvJEefhYX1MTHQ65MbOSPjmO02sBGzHJV85VSR1N7G9m0fZPByp53l5o77fGBHIQfNKigpcCfWm24gzqFaAhvC7JnBVxfdyyD2GY6MYOHMK3vnFoxpDBH+Kh5YlsL1Cr4fa+BZwcyM4X+aSKOAqExyTuDkEt7wqKvAppMcRVKTckijoIMBuq3AGQAdoJYBzsNEja7MowfT+gk67ykm14hcpq8q8a285j+fC6P4mHmkBB/PKGe/cQ9ga502D4PfNgHOSz36QfIakR1tBsxDtc6ep4MnO7vYB6CRYeYMgSsuEc2DteYOJrRqbypyS3Ly+av5uLRHYr4axN5uI+q6cF/IhOlYw+3eCaAFZeVDYXPDw9RAdApYIQbQZbBIsrQRzekjG7nRoszSEGOdmfMWGsiUCLMCvNsg+IlnnGY17sBd9bdutPirPxr+Migp8U1tjhi7bzu+hegrh6QxS/+O/AiRAlGBSR6hcyr8A7x+TfNoWmgJnJEzsIjhySPL8jw6Rbl2hjYDcIscdRl5P7gIs31wVQch2gvfjvch6QUUF3pN8PlvQSDDCOTs1N4TBwFfA4OaCCODgyep5v8mFbp1gdC8T7faX86zzNs2RyY6NYpzbBRFRgi9GCLBJ3j7v/Rz8OsamkNAA7IXwGUArQf9o0LqhCYAwx51Qdk9bAhqHAqclW1xuUZVAdGtHpJp/TJLjthEu6BkHkVfhxrIt5eT1NDEzHob2MVF6oZzTXQTxzluwEjoLEpzK7WVAGRw5C4W/gq05xMebmJpTzjwbrNhUzgqA1oI1vxfEAF+tKed5W5U9z/2ES26vQIee2rStnS84zkA7U8316rLt8l3XqysMOQOAw5IJhx1/TuolGBTmTHfefXH+nGRfmKBXe8G7TWH+D/CX5sBZWFcQuAZrZLZwKXYWTRE9Mv5F3GRSego6hDgGLXMDweB2kq8OCQZf7Tj+4+HqeWxZ5TxYKvh/XQS9E0wsaih5YI/Edg4KSqi6y8gOBecAZxpAZAvBjKYQ4Xy+wNJYMKMX7qO750mchJzz0CNS8ESE5O8W6NNGEOntBIXTIXipd/tZePE76Zb23O0Oh1BYIHnRY8no/+Kq25IS0jPKmRFqYmakZNNhyDsvyQl3GF6vcbdexfUbPsjEM00kVrP7qY7oIirv1hs8WLDuE8m31wk+7S5wu2NXq62WSv7+keTD6oe8YmTgCpYz0GNbU8TIREuzr0u/Mnps11ZkoGfCq+vlds2d6/U//Oa7AvRe1OsbO6KGvGJ49QfJHYmCvzSH55y3ZmT9ItnqJ9z1tO/1FAzMMC61jTVdei42KqigtWBwM8AuScsXpHSCjjECGS7o1gAolqw9rl0ea47kkQvw90RB+5bQG9j4fTkbAXqa2BILxack9zjvMhqRLLBfgNbNHXsBFUs0zZoK+jtvm7RfcM6mPcorkSwpEPRoB326CuR3klG53i+s7CT4onvVXU2eVRHRQvD1aPe7niqXjG40sdVjX8Ls8renrm+3lTOo4stRScqdJoY3EQxLLye9vYmprRy3l47dIVh2tyDulKTv2nI+8SyzFAxv6VpIwasj4KksKCp2RDtIRznjGgPnIO+si7wdtB5zqG8TnTq1rcMReC2TAfuBGjP82vaiV1eEMHOPZMaNgoevE4Dk66MXN4Pt7pzpHT/u0LNmr6RRkuBPTYAyyD2unc9NrYCW0XBzRWKYd3lvxbkcogIjjcOrbj0yVsnrP8HgM5KPfoR+1wi6XA1/jXAMggeOVd9QdqXgJ8kTwJASWblHpGVLSlj1bTmrXNLGDHDuIRwqZ1yG/5P4PkuS304QezXcnmTiL5obAU5MjoCjGI86PAnr8yQWjSzRrQQJDbWWjJyUeGljiYL1HQWZ2ZJpP1QJFP4MYdc6H+SrvKPK8dGqnxGDBImhcKTYsZ/wbR7c1EHwSgfJ3avL+aUi0/WCrUkCTkpGrtPZQFxtGRBSUYE/Pf5lgr1foKXX58vtKsi3wczdkhndqpzClgJ/pfB2QNA1AjgH250PjA1LENzZBM6Xgj0M/tRLULxDsqakem4pHZvJ54Eh1wmGuB4sgzPl2raNDpz+uBQ7i6HIwCVhx17JdulI/LxQ0KWVoFcD4Jzkkz2uerXLWPCTrHxCWE+EZrQupM2x/BTbADpp6XClHPJPQbHnXVBHJa8e1bZ/Xz+BxQKZ+ZJXNJ5w9tYRU1oLIsMhKkQCgiiXcELXuCWBtoKJbcF+QpIZ4lg2Op0u+TxKkHSGKmfgUWa/ev1kCebAZWhgN1hmX+3bq219PU6HHo/vdegMPPEZIbhmzi+Gl3ZJXuxe5RQ2azkFPydydVeIE3D8lGRXY5jSRXBzBJyxwaJMyS+tBC9dC/f2EuDhFCrKs2i7ZJGGbm/XyzX5cowKNO3rdB4X+yM2n/8sSWklaAb8kCf53Ft5NG1rJIbA/ckmbm8gyW0g6B7mfgygfTsTX7V1ST8tGfSl9gnby4AGAstByXtWyRdmwYstwXoC4jsLEmyS+zZJjkQLXuosMJ+WHioEi0YILCclr2yGp8cIYk9J+q2H6AiItUCm3cVspOAfNwmSr5LMXy9ZZvM8T8FNzYAL8G2mI8UcAtglebqjP8HrfRxOYNMeSWkPUZnjpU8cTuatu038zuyhoLVgz4SqZa9//7ucB3/w1K1tW0umPrVvrSTDy6/VynN5RwWuifpfbierOwXpGSl4KWiLNoL4BoAJ4kPhjB22HxPMS3LcUXT8uCT1AGSVAD9L5jUUTIuGwbGwZn8APfxlGhXo6SzV89QsKtC2JXgqweEMANpHCVpJid/g0UNv9zaCfs41mYhIwT1A8XH4/qjE5tJCI64W9GkMJ05Kvne5mwbXdXEnkW1MLOsEsY2AEgndBC9eLRhwGPq3hfzycraUCPq0FLzaC/6SD51aQGyEoO9/JOkVihIF8eFACWThXMK5ylE5m08Ihl0Nd/YR5G9wDP4USnaeESS3FDycDJvWub/ughsE8aFgPy5JA2gNMWbgJCwFxvmosxHdBTGnJQt+lBTaBbbfJE8dhhk9KoQqpXlnG6yqeHXG1YLnEoBfJf/7nyqdRb8Gb+DS1We9JvrRVYfOwCjBGjM01RiY9FYY8/tyO8+0/GL4n12S/+kumOy6fOTtZKIEz3WEmHL4xQ6dmsGOXMmS45D1s6DzOclyj/vSd/0geaUQio+5246IEEzVfCS0Oi09zsxQJWnl0yETrDVNXXp0dZbAOINJAwW3WoBS2G2Hbs0FC26CZ76VHHBKHT0NB6VEa9UFBLNuF/Rz7ikVn4Xc45IvD0g+O1G9PH8e6HAIttOSl/7tu3xFZZBwFeT/Kvn6R+iRBJyTbD4v6O+U+ed2Sdc/COIaw5MtYctxuK+l4L6ukvR9DpmnYhx7I1lWx8zbtXq2bS/nzQgTj7UUjEqEpVb4pIeg6LAkvbEgOUowp6dk3M6qck1r49RX4CjsndcJogHrKc0KciOxnWBEQzj9o+Sd7ZIVR703kH/nuzwndD08h4ALsO4nlwgoiLNYf3r16qm1qESzLoITGWjKBWjM0CXjI6Fy2NSzlluRt5pTkO6RQmW2hvBiF8dL7L7Jlsw/DVMSBTfHC1Z2gvPlAIJh18BvFXeKhEDLilD3GpixTeK8ZZ1GEdBH4/1EmudmqkoIxDKR0Yvqr4MFMyoIjiMAebVg5u8cS32USt75VvL+ecHMmwT9WgkW/UlwsFCy9Qjszirn/WJv7Uvy2U9gC4Ev8yTfaz3FbHTQKihn4BbHn627m7g31DEj/gL4n4p8pyWPrpTwOxPfXQ/5ByVWBAmxgp77JDs7C4ZeDZyVfJrlovsqGApsAJZtLCcvBtJ/AXqYiA4DSyMYtF2yeqAgvpOJKTnlzLcBrQXJzRz6PtkLso1gYjRQBpt2OYYf11PxdMCuew1HnM6gPi2BGp6Va5mqTfs6ooLaGjOCGRXoqQvvL7fzU1BXp3BbO8GWAo1qPAu7bNC0VPKBc4o47zvJ8mYQ30TQw8vgXrGWWlricAbyJGwV8NspybuHtQvkaXtIR0FiA/iPq0wte3hdnUyPMQN6guYMogTv9hO0F2AvlixMl6yyOTLPWC/pHi+YeI2gY5RgfHMYjwDpfmsoAGclM9acCVIAACAASURBVNdJtu53v9uogmduMXG71q09QGyciW89nlDOzytn7A5t+Xudr4H+PltCtGOWH93KxF/7SOxArPNNularJL+RYKgJoiUMbewoe9aPjgcgJVAqgYaCKXcIUsqrbEy5ESzO8ub/KuEXSDskSDFXTWiGV0QDx2F1a0FasuMJ5bw8yT9cl8BcKJVAhOBfwyGqIVBM5W8YaLcDwaoJAs0HuD32EAB+PlDOiG/cxYIaFeiQuRyjgtrcL9CU8ZvgSNLcQ9A7cOXb4Gnnu1e8ncyaXS5PEzuFjp9wvHPoGy95qnFE8g/Xd7/oKN+XuZIv/Yv5tR2sCxusyEA7j/Qro6+zAIWSjYWCIWclr2RIPG/t35Uj2ZXjSOzdXtCrheN1Cq2bCrfnyOynYKuPMv3wiyRM44duvBW5wMutylLCX9dKChLgi6PAUcmnLQVDI6Bv26rBsehXyfI82JlXzusVineUs2GHqy3Jm/+BSdFC8y7n0zawnpa8s9fxffXX5ax2OZ5tlWQ0gJxcCQUCqx1ifpVM2VZ1JoU2yGvgeEYHJJ/8LHigreO20tIS2JTjeKOp6/UpPQ/2807ngeS1rWjeJqvF6ZP+ZYxMUoLVvvXY1hbSI3LpOwMjkYHrVzFmU3nl92Bd1ECFW7VlW0u3nouqN59eb11T+0GLCrRM10FjrW3bWkl6l1b1yOi6xgGwfzlMdLSSLseowOjeplaakfbtcw/BX+5gDsj+bBvWoyPP5dFZpM/jmrYDNGhpyRkdkP3pNSyjw3awnEEwnZwedGWrw0lcrS6/6qsNv7YDNWYYsR/IiZbmHoKRC2u0s+gwFdTOqsOUIaH65Aw0CYxI9TxGZi4aicEcNI12lpqWRTOfDhldeupwFqtZHn+Ggmhbt/1quqsL1acxQ49MoCda/n8gJ0idpb6F8LXWUQzqqe9Rgd7rELCBw4D92pzo1HdHoClntL/5SahL21r5LvUfsdFbHiO2q5aMNEvhW2Ew11PrOoT3a1yHXj16guUM9Ng2KFI9T5AGY2+6/doKUme5mPXdQMioqMC3jL7JTs2dgQ5ThoXqQ1TgitcfyDGy3hUsZxCozlrfO4tX+zry+ZUxOGgb6iyGCmhMT13uVejNp6uNBci+IduBGpD92DYqFCxnUN/GDF22DdSFVpK386r2Azl1GULXdVRw6YXQGrMdvwmBcQSXQ1SglRSoiYYe3Xp01bdBy8g1rW9RgdFIL5hjhl/bQWrfnjKhXo9o66+uLFCzHSMN5ArpLF51+5MJkjPQtB2gKWN96yxGCcQgEFTbtdS+NQnWmBEgZ3A5RAV6bXsmhRpVFqyoQPeJBMi+igp8lEeHjIoKaqZbj676NmgFa6ITMNu16Ag05QI02airqMA1IbQ2Z+b+SxU825dHZ6nfzkA7U831GrUdqM5ilEAMAoGyrUcoWO1bj21NEQPtSUUFNbPtT4/fX0wL1oBcm5318ugsNXcGhhu5Dpnaigx0r/cGSsaIcwqUnmANXAGeRfqjLu1fij9iYyhPgNqpZ6LXu4zqkyOobx6+LqMCPba17AVz0AqWs6/VELoOHUFQ7dfiRKfWll8180i/MtXy1OKYocd+XUUFrnmMv9xOR55gDRS6ymNAKJidxV8eTRFdrcozj39T9T0q0LRlwLZXuUCUJ1B66nDgCmqfDZIz0OJSjArqcvnV15hR7bbTQDTYgHm2WuwsenUHRI+uMlcXMtZZAkN9cgbamfwnGZmZB8rBasnV9SzWn16jMsGexbqLSL8y/mxr2TfSZ43aD2rkq0OPK6FXmTyUubwuXUr379V0a+XxVgAfMkZsa8l4vUCuejxs+byoPmSM6NFXF9KvjKYeP+Vxayxe6lVLJmh1oUNGl20d1LcloislKtBbX7rsV9OtMWEK1jWtxXZQW47AWx5xpsQeqEmkQqFQKC5hTP5FFAqFQnEloByCQqFQKADlEBQKhULhRDkEhUKhUADKISgUCoXCiXIICoVCoQCUQ1AoFAqFE+UQFAqFQgEoh6BQKBQKJ8ohKBQKhQJQDkGhUCgUTpRDUCgUCgWg4xfTasq581Ba5p4WfhVcFRJoSwqFQqEIJBflEKSE386B7awgNASaNpC8vyeEH38VmJyvLC6T0LtdOSOuL+eoTSCBqHBJuDkApVcoFApFwLioJaNjxYKPs0L4INPEF7mCM+cFGYcECa3K6X+N43NNM8nH+0ycLoW12SaW7jax+ScTZ88bNHoqi40bd7LroK1m+Yqz+Pidt1i0tUCfeOanbMz2sFFSxMHMLApKamj3ky/YlVfD8ioUCkUtc1ERQm6h4FgxDOpQTotG0Mgs6dVeUlAsOHHWIVNyHu68rpwIMwzuUE7mUcHeAkHPtoKGV3n7KYYsFtz8IB+6JnV+kvcXjYKNbzBzXhZdx/+V+7tFOI5FxdM9zuIibGPfJ8v5rsg1KZeN/9pGQetczhzoRCOXQ52GPkT/Nrjl377yf5m5eQulH7/Gbc2dyYc+Zdojb8GD7/Hh+E5eym6n4IfMSqdh/+ED5r2zjY6jX+KR3s1c5MJofUMCrVWkpFBcORRn8fGHWcTeeTfdmzvGqdx2o/hj90gvGRwyR7tOYEiH4A8WF+UQ7BegSQPo3FxydUPHEtLoxDIKz4jKX+QxCYhuLAkLhY5RkjN2yP1VcKHMt24ABj7KvDvMfPnya6xtEgaZbzB9Xhbm5p0ozVjMgq0FHDhow/ynN/h8ak+qqsvOwW/f5f1TdzPjwT40AzhlZ/u/tkHnHvRLdA7mef9i6htb+GPXCfRv41LZv2zg481gDrfx/Zq3sFYesBIJ7Fv6KrPtPaga3uO5feIAWgNgY9fiR5mdFUnHdo6L3LFzJ8hcxoJMp3hRPgd+jWXq0vf4Y/ua1blCobjUKODrdzZjufNuupPP9ndXcqb/3XRvlsPXr23g/Kt3+8jrGMu+b3K3wyGc2MLsZxaT6yrS5A5mvDoKX0PJqQvQRMdoH9BNZSGgaQPHXkJAaBJL1xZWFpwAji5n+iP5FHS4m5dfe5Tezexsf+33TPu1L4+PcXUGLmRnsS3T7BiobfkUA2R/z9b2NkeEUFCklYsDG5ezj9aMGZ3Aru3bOOh6sHMnOlJK7vZtbnl6jB/gPttvOYrHX/0TsRr6CzY+x8R5p3VWgkKhuLQpZN+7K2nc/266N3FJPrCPrdhp/e1yFu2rSo7rP4EhHXL48IFX+QIoOgTFP/8XE5dD5G0vMWfRe5WyJ9Y+yYj3irH7sL72qInx/w5hwY1l/KVduc+SBswhlJXDp/8xcV7DngSiGsKAa30XRouDOz/lAH0ZMxBWvZsPp3ay6Jl7WXShiIM/2iE8h49n3MvHvZ9i4cQEp2Mw0/6m+xh/nYbCZhFVy0WtezD+vh7EuUZrv37KoncKoPOj3H7f3Twy0cbBjBy0XQcay1VO8t5i8u1v+Tgzb0tOCoXiSuDA9jUUJT/EnPsHEEkWb9/+KqWvLOAv7cxAAmMWvccYilj71O18f9v/Y8ZAjXHGD1mnBf+1K4SujSWP7HHc6unLKQTMIZw7Dz8WCk2HAFBikdj1LBO5cv57vvgwF/PQCdw7cQB/7PgWnx2oOtz7JgAru9/9gn2dXTZti/PJ9TaCnyjmDLjtIeTty6G4QwIRZQWsfe1VtgNghhCAfD574lH3/QxXRrzGxif7Vo9Q4h4i9Q0VISgUCg2OfcGSdwroM70v7ZtYqJjiR0e3JsIMlNkpLi4Fiig9D+eLiyg+BVxlp+iHvMoJ6omfC72aOFQiuPPbUG5pXU5qtzIW/mzikT0htAuXJEdpr+IEzCE0CoOn+td0xPfDrs1sLYCIW6OJoIDvD/jPAsDZfLa/+y5Frhu5WnsI5LLqiTf4unMkfxiRAOmL+Ue6Z/CVwAOffcG93mxdZdFerlIRgkKh0KSA92a+AuFm7F9u48TQO2h2KJfvwnsyuZVTJHslU+ZtAMBeAAd/+m+sa8xwfTzt//UpxRNf48/Xm2nW+1Hm9Y5y7l+608Qsmda5jIevcczSK/5vG+69ZAFzCGfPw4ZcE+UajkdKuDocbmpfwyWjXhO459T/MvudDewaP6rGZSo6expo5p5YbMMGaAVfEdHRtE4eRY+ilXxcmZrFotsfrHmE4LwrSmuj58TaJxnxN++eXaFQXM605vfjJtC/exhrJ73CB5l3cPuBzRQkjCLBeeMk19/N/Oc6kWuKx/z5H5h8/CHmvziACLJY8K9PoX0C3ZN8LyE1Ca1yAhV4fvckYA7BJKC4FC5o2ZMQFgqixk89RNL/tlHM3rycrR/Guy3z+CTEQmTnTkQe+JQFFVHFhSLH5nDuFpb802VDuHMnOrYIcwzocXfzzswivnxuJZyqEPATIYSEednQfo3xN7/mo5AqQlAorlSi+9xB7w4Q+eBiJs55kB/s+fSe2Ndt+pq//lFmR7zHCwC/ZLE9I4JWbTxXMIpY++y9WEd/zAPd3UeiUxfgg0MmJrk4gbVHTSQ0lrQLD/KSUVgo/LFreeXtpp6YTHCVgcfgzNd0ojfwfXYO/dq7n7C9xI45PJpu991HtzZRVQeaDeCZRQPcFRVn8fH7X3CozR1MvqNT5SDu0OH8FmLGHOIxvGe+wZBHlvso4SjmfPUkvSuzRfL7//kC19Uz+69ZZJXG0aNNRFVimR17BAqF4nKnrJTzFPDd4hf5bu8X7KM1Cc5DHcc8x5hPH+TDRg/xzkDXu1uKOHoQIrqboRhoYiECsJ8rBuB8xfhSksO+dDNhI0vBY2p6yi74W3YIWacFC24s44NDjj2ET/teoJ2XZaOAvdyurBzS8018k1f1+emEwBzq2F9oeJUBpUes5B62UgSYwy00bpVAgqWI7dtzKTj4PatWZBE5dBQ9yGXtqkwqn0E+9QUvDL2dicu/YO1Tfeh382tsP1nEvrUr+fjDDeSWANg5sPxBbh36e+bt8HXTloOOo19i3t/fcPm8xJjOnlI2ts+7l4fnfEfurjeY8tR/8cHBYrJWvsELk57gvYNhRDSxEFGWxduP3c7oN7b5vF1MoVBcBpRB5NC7GTJwLC+88SS9XQ6d2P0F209ZiLAu5oN017cZWMnbDQfWbGH3BcASS9eknnSP60H8kEi+e+kP9Lu5D/2G/jffJY/itoTqy0ftwiXLfneBDw6Z6L8llEf2OG499bahDAF0CCXn4Zt8wda8qk/WUaG9hKSXX5Yza8q7HGgygAQ2sOBv77L9cAEHsgvpOuY+bg/PYsnyHCLbmznxw2t8tsuRrThjM1+X2GjfxuUenxYDeODhvpgPLmf2ezvZt2MDpb8bRb9wOx/PeIPt/l5HEd2J7kk9XT49iG3iIXPqO9b+K5eDTSKILCniQHYuZ85G0v/pl3igfT6r/rGS7Zv/lxfWQNfkWOyfPKmxia1QKC4rzD0ZP/1R/jikE60jwhxpF2wc+OS/GTcjh94z3mPF3FEcmHE709Y6p7UHc9hOX27ruoFFK4CyinEikiEvfsbGb75j6zffsfWbr/nkb3fT0cuMPzlKsuDGssooodaeQ7CEwcw/BPguo16PsfD+vjSLyOf9e++F6x+iW2yWY8M3oi9TV31B73/+gfEre9I9HD78fAv3do3kvX9ugdZ3c3vPSArWABRSXAytb/sr719rxdIxmn1zH2Xa2juY8crd/PD8cqa93oeNz2psDjs58OViFp2Mdkkp5sAhd5mDG1fyNa0ZM7AnloJ/VR0I6cT4tC8YExLGrrn9+XptEb1XvMQD6fey6NlX6b/hOXr72PlXKBSXE0V88NTtvNd8KI8veI7bOliAR1k438yU//4zk8+9xzNln3Kw21jmPjuAP/dczHufL2PKH1+hIDyW1g2ra4xMfooZ9yWgtQr9l3blJEd53zdw5aIcgskEJXY4XiywX9CXp/CM442nFW9D9Y2ZiCZmx251Cwu9Bw6lRxMrZraR+vi9rI20U5ANDLyDe8b04feR8Zgx0+fWARS1HkX38EgOdo+FHVuYObwPMz21J/eke78BPDMRTgxM8OoMAMzH89m+Pd8treiU6zcbNlsYEb3u5vauZiLKojEDHz/V3+WOJSfX96Fri060fuIhig71oFOYnrpQKBSXPM2GMuMzx/6mOcKC2eVnASK6P8Q7HwzkALG0b/J3FiaZaYaZZkMeYsaQhy7KrB5nACDOlNgNv2ci7zfBvzIdTyfr3TA+Y4drIyUjujpeeKdNAV+/s4bcNgO5d2gnj4HaTkFmJgWlVSmW2J50bI42ZXYKDmRSUO1lo41pfUMnjZfLOV+MV5LAn+7uS7NftrBoQw6Nu45iTK/I6nJFcQwY/wc6apyLvSCXfb94PIAWFkVs51iaqZfaKRSKesZFOYQL5WA9JSgqwevdRZ6EhEBMY0lkuOPdRwqFQqGoH1yUQ1AoFArF5YP6TWWFQqFQAMohKBQKhcKJcggKhUKhAJRDUCgUCoUT5RAUCoVCASiHoFAoFAonyiEoFAqFAlAOQaFQKBROdL3LSAih891DCoVCobhU8ekQQkNNhIaaMKl3TCgUCsVlj1eHEGYOISRErSgpFArFlYLmiG++SjkDhUKhuNKoNuqbTILQUOUMFAqF4kqj2sivIgOFQqG4MtGMEBQKhUJx5VHNISh3oFAoFFcman1IoVAoFIByCAqFQqFwohyCQqFQKADlEBQKhULhRDkEhUKhUADKISgUCoXCiXIICoVCoQCUQ1AoFAqFE+UQFAqFQgEoh6BQKBQKJ8ohKBQKhQJQDkGhUCgUToLoEOxY92SQkW+rcU7bTxlkZFmx681QZiNvf3V5255NpBuwr1AoFFciPn9TWQ+ZS8Yye6NrSjLPvD2ZROsnTL9/DkyYAz0tjkPhMdyQEI3ZVfzwJlLXZrvptO5IY31WIsPu70m0S3pU7/GMvtFSvRAl2aye8TCZd31E2pg4Z2IRm9KmMbvpHDbMHIRGLshayti563yfYNvxzH1lmFs5FAqF4nLkoh0CJ3PI6TCHDY8lcWRVCim7Y4gqzWTeU3OwDRzHwJBsMnYXk7VqBXt7zWGDp0MoyiTtbStTF9xFvDMpJz+N9WWJ3NQtiUiHEOkLprP66lu0HYIlicnTxzFhzkekD5lGciTYt73D7D3JPPN/XpwBQFkhOfth6uI3Gd62+uHMRQOZknWaUuO14xtbJktnzuKdzXnYAJomMm7GXKb2i3SXefFpUrcWYQcsCeN4+dWpJEfWUE+ZlfVzp/OPzzMpKgHCIxn22Os8MzIeS4i7zOyVmdgAc4thTH1jBqOvrbpi1ScAFTgnAhWitgzSnp3HVwnPsHhSYuU1t2UtZfozqaQftwMWEu95mbmPJBMZUqUpUDIA1jXTeXoljP/bywyLBoo2Mevxd3CfgjiI+/NcXr5VuX7FlcvFOwQAcxiWpnbydueRFF/KiscnsaLdNJa9NJq4cLBvm8OA5cOYMcXb4GzjdAkQ7pJ0zMZpIFJT3snx1Uy5dRbpLklThq5wE5l1Z09mAYyaz7Znk92dUUXxLRYsTaunW8J8Gb9I7JmkTkhhabvJvLlmHIktIW/jbKY9MRTrK5uZM9QCZTmkTUjh7QqZqCOs/9s0poy0M3/9NJLDdeqhiPVPj2L6oRG8vGQ+w9qGUZS1lKcfG8vYk8tYc388YGPTjFFMzxnByyvnM6wtZC6ZwqQxk2BlGqNjneU+mUNO02l8NPMWojxOKSwEsBeRs/l95s1dSsZJoK3Lkl1uGikT3ib6kTdZMzaRKOt6Zj81hTtK5rOl4toESMZ+OIMVb84jdUMOduI5XbGeWGajcL+NpNcXM7GLR2swe506KBRXBIHbQzj8Fau3JRMfks7q3ChuaFHIuiWppL45i0nPrsDeBn7+KJVU5+yzktjhLFyQQlK4h76WFhpXfokk+ZGFTO3pOQQBxDNt5U527nR8NsxIBkYzf1tVWto9vgqew8KnxjL2nuqfWWuMVoZ/bFtXkJafyP2TxpEYbYYQM3FDJzKuJ2xau4kiwLb5fVJdZcxxDHtqKqNZwewPc3TrIXc1qVth2CMPMyzWAiFmIm9M4eERYH1zHZkAuR8xb4OrjIXEe15gakImc9I2Oa9ZEXk/AtExxDS1YPH4mEOgaP1MJszPI2nGNIa7nzGb3kslL+F+Jo9NJNoM5thhPPPEaFg5m6W5gZTJJHXkNDZZhjPj/iT3irfmkY6F6OjIauW3eLZBheIKIzARApC3Yz2ZfYfz8gPDmXxnJnsPVy20JHUbBkDOqoeZty2KW0YlVkYK1t3ryMhx12U9BuzP5NvdZo+1exsx1w7ySCskZ2cGGccc34p+LATs7E3PwOzs4DlWQCMCIGEymzdO9HNmYd6XnC6CvB83ASOIj3WdpYaBGbCVUgr8nLkeukxloMuSDeGJ9LwZVmzdi3VCPIU69BT9uBcrcYyLcz+TsFAg3E6pHaw/ZGDlFp7p5SITEscN/aJhwU6ypw8iyVwKdohvF425zI7NVgohYVgsVbYjh81ly21mzCGZzHM1VpZN5gaIf2Ig8S5FNSf0ZBAr+DbTSsq1RwIj0ymRyVs3Yw6HojWu8SNwAaAzMS2AEhs2O4RZHM5MobjSCZBDyCF9bSaRyc8QHWLHWqR/1b0wK40061QWjoyvTKu+hwBF6fOYvryYG1IGEe0W6YdRmJdBRqHjW/EvNiAMa04GGU4J6zHcHILtpwyyC2t6jmHEdEv0sG2cxEnb2DnJI9H6LZu2QfLTSURRREY+0CGOGLfBykJMh2jYkM8ROyT51QPmW+ez81YPmZIMNm2E6FuT6WyGvMMZ0GUq0R7LZNFtE4Fs8o5BUttC8nZCTuEsUtKyOdIiBntuHramg3hh8RzHPozZrLksR5GVPKBzmxj3dEsM10TD+rwj2AMlQ3TlZKB6MfKAPFIfGcrThxsTZz5CznGIv38+bz6QVLWfolBcgQTIIcQz7M+DSH1+HRkTJhPjP4M75ihi4jtXzsTtkUBeY6LjO1Nxz5A1v7GXzBaS75pcucZdtCaHFVtjuCVlMsnOkSnTnsb6kqoctkMZVVGJdSdpnxeSPGYY8T5DgcbY4xKJblHTk9PJ4fXMenwWGf2mseyOOMyOxR60RteoSEetaN6WW02PBrZM0h6fwlLzaOY/kOwSAZnBY0C0REUBeVAG2AopBMztbmJqahqJLYAyK6ufHsWskXOI2jatss69EVatxUURGQuU2QMuo0VhUR4Qxg1/ns+bQ+KwhIBt5zxSJj3MpKs/YlnlXWoKxZVHwJaMogYOZzRT2LxxOMO0lme85UtIISXnZz75v58r06z7gbN7Wf9/54ioTE0g5f5rqm1kVuwBrK6YERbmARnMvG8vUc6zs1uBIVU5ogdOZvJAx99Fa6aQln8Tk6ekuC1B1CbWDbN4+pV1MPQFFj82nDg/a9mOQa2629Wjx5a1lGmPzyM7fjILU1NI8rlrD7ZCl1Aq/Cae2biZZ8ItVK4ShUQz/LGprNg6h9WbHyZ5aE0X2Aopygff9/UGSgbixyxj88gwLE2rLral52SmjlrKlLTN5IyJI95HfoXiciZgDgFzZ+L7wtIf0okNP43mikxsCildYnCd67sOzhVY4yH68A2MuSe56i4jux3MHiN25C28vHGQe94N0xg7N5pn5k0lyVU8JExjtmxj7450OAmr01JdnI8rnRkxyXPfIkCUWdn0yhSmbTQz7vllTHTOWB1YiIoG9h/hCFA1b7VTeMwKXWKrlq986qnKl7N4EhMW5HHTY2msHJvodoumpWU87M/Haoc4l4pyOJ8biIkGQsxuA2klLWLoDGSfLARvOy5No4gB9h52PxvshRRaIT4uGnNTAiOjXQIH4Vqbx2ai28VBUSGFdupsYqBQ1DWBu8uo7DS2k1AaaiYq+gZu6dKY9G0QE5XD0h1R3PLAZEZ0KCKr0H0VJGfxXQx9fj3WPfPo2XMsK/JtHNm5mrTNRzhd5hSyrmfKkAHM2Va1HGD7KYOMnXvJzsl2++QdOQ1Yyf7BPT17/14ydmRi9VhRiBu5kIXPj2NgtySSPD+N80l7eyd5uh+Zrkl9OZZapmUm8sLixUwd6jmIm+ncJRn2bybT6povm4zPIbpnZ0eM4FcPgJ3M18cydjGMe3Mlc+5JrHa/flx8EmZWkJHpmlpEZnoO9I2nsxnISqVvz6Gk7fdQX5BHNmbiWmjdBVZxOo4JQ87mTFxPh/0ZfEI0SfExgZPxShHrn+hJz2fXu9/phh3rj3mQEKURgSoUVw6BcQjWFTzd6y5SC4cxLr6Qd2auIPNkITn7i4m6dSpTmcPYuelExcdTunw2H+U685XlkL4qj5gOcS4d0ULSI3MZZ3PksdutZJ5MZPIjSax4bBIrDjukbIcyyNhd/ZP5iw0odWwqVzueSd5J14JbiOuZRFIv7c81EaUQbQ7KXUb2nUuZvdXCsJRxDIosxXbSVvWxOTxQ5LCJpMRmMHtJOrYyoMxGxoJZLCWZiaMcD3vp0cPhT5i3JI/Eu6cyooPZXeakU+bG8czoZ2bpgqXkOR2xddVMZm+LY1zKLY5Irctg7o8tInVulQy2HFYsSCUndjSje/mqqUhueSCFuJ2zWbrVORzbMpj38lLoN5HRCeYAyngvQ/KtwzBvnMnCrVUuoWjrPOatMZM8cpiKDhRXNIFZMooezdyd8zEDOW/fyZy+E0mKznNaiGP0W5sZnL6QvjMimHxnIalLN3HXzEGw+X3etibzzNB4zMddXiERnsjk19O4JTQRs3UFs+9ZzS3L5/JCv1HMmrGCmxaP1lxqAu1NZaMcyc+AyGSigjBIZO9YgR1YP+Mu1nse7DKNj5aMJs6cyP2zp2F99GkGrgRzuB27OYnJf5/B8Gj9ehrvTnc8a/B2Cne+7Sk0mvnbppFsjmTY83PJfmo6d/VKddginuEz5jD5RmcFhMST8tZCmDGNu3qlEhlrwZZvw9LvfhamppDoZ+/DhxmTPQAAIABJREFUnHA/c561Mmn6QFZgxlxiJ6zXZOY/P5zokMDKeMMyZAbLZoQxffpAeprjiCOPPBIZPWMxD9+mnlJWXNmIMyV26ZrQICwUk0noVpD5ek9SSpxPAdvzWPHsJDKHLufluNXceXcqUbem0DMainYuZV30y3yaAusyo7jltkTYMY/Z+wfx8v2JmG2bmD5wGptaxBPnGrcX5pETPpq0JVNJPJnO6h+jGZSstSzioGjNFIbOjHEOcjWrDPuepczedJrIcOBkFh+t3Evis8uYO8rL3Tq1iP2kjVJq5555u81GaRmO9XZvJ+68h9/zOQRdVDzDQJj2nkQgZfyWQT2HoFBUcNEOwbo5lU/ODub+W+OrDZpF+zP4uTIyDyMqPpE4X3cglVjJyTrCabfExsQkxBOt8ylS254VvL+9MYNTDIT/ZUXk7Py50n5Yy84kxqrXGSgUiiuDi3YICoVCobg8UD+Qo1AoFApAOQSFQqFQOFEOQaFQKBSAcggKhUKhcKIcgkKhUCgA5RAUCoVC4UQ5BIVCoVAAyiEoFAqFwolyCAqFQqEAlENQKBQKhRPlEBQKhUIBKIegUCgUCifKISgUCoUCUA5BoVAoFE6UQ1AoFAoFoByCQqFQKJwoh6BQKBQKQDkEhUKhUDhRDkGhUCgUgHIICoVCoXCiHIJCoVAoAOUQFAqFQuFEOQSFQqFQAMohKBQKhcKJcggKhUKhAJRDUCgUCoUT5RAUCoVCASiHoFAoFAonyiEoFAqFAlAOQaFQKBROgugQ7Fj3ZJCRb6txTttPGWRkWbHXNGNZETk7jNnEbnfTkXey5ipqTJkde1kA9FjTWbpyE3kGThuc9b2/qKq+7TWueRdleWTsyMRa4p5sP5xJppHr4kevmw1rJhk78qhmxe64ppnWizgvheIKIPRiFWQuGcvsja4pyTzz9mQSrZ8w/f45MGEO9LQ4DoXHcENCNGZX8cObSF2b7abTuiON9VmJDLu/J9Eu6VG9xzP6RouXktjJXDCJlJXRvPB/830X2m7D+mM2Rwqt5OzMIH1bOhn5tzB/2zSSrV8x85HVDF6ymLimZt96LooiNs24g+lFU1m2YDRxIc7UjbN4bEm2h6yzTrWKU5LJvMemsNQ8Gku0hcIQj+Nade5GHuteepj1t31EWpdIKNrE9JHTKXpkGQvHxFWV9ZXHeCfHI2vfZ1g8KdFdd7idrLkpzLptGWsmxDsTbWxakEJqi4WsfCJJuyxZSxk7d517WtvxzH1lmKMNhNvJeiWFtAlrWDgyWksDtp3v8PDMGMd1dDViNpO36mGmm+eweeYgvLUgheJK56IdAidzyOkwhw2PJXFkVQopu2OIKs1k3lNzsA0cx8CQbDJ2F5O1agV7e81hg+fgVJRJ2ttWpi64i4rhIyc/jfVlidzULYlIhxDpC6az+upbvDgEOzmLJzFpSR6Qx6w7ezLLU2TUfLY9m4wZsGe+z9Ov53NDbCErPo9i6pJlzOkQjcUM1p3ryaExycf2kuE61fQ7sNaUSAY9v4yp08dy1xgraUumkhgOlBSSs78zcz6fSpIZyFzIwCeKq896AUryWDF9EiuaDielZwRHMjM4UnGszEr64vXk9XuZT/8e7axHDfZvZun+ZCb+zTn4Rw5ixuKpPD3hLu46lsayxxwDvu1Y1XU2A5mLBjLlpHup7DYbpWXRDPxzMql/W036yIdJDAnDcnIdKzaCtekcJuzxqMGKQb+skJz9MHXxmwxvayP973eSGm6GkzbnuUcR2xdSN3xLzsBbKicKYRYLZk8nCICNzJXv822h41uxPRo2LmRW02xiwx1pnW+bzKC23ipGobjyuHiHAGAOw9LUTt7uPJLiS1nx+CRWtJvGspdGExcO9m1zGLB8GDOmeJud2ThdAoS7JB2zcRq8D2QVHM8g7aVppOZ0ZvKbG0jp6ZEjfwUpo+YR3a1z5WBu7jmZZUuAPfNY8bmdOKczoCyH9UsyscTGk754HukVOgrzyImaykdLRhNHAAmPY/TclYS9lEp2gZ3Ea82UltmhSwwxTS2OMjU2g9bi2fF05k19mhXHw8BeSMyLLzC8YnAryWPFzBTy+k1j8UvDfNShnYy1b1N468sMcpl0m68dzfxlYUxflM2RkkTiwkvBDvHRMViaWjADljDAbfmmiG9ff4yFm3PIs0cS36WQ1McmQcvRjI5fSmbfqSybPpzoah41zK1NmC0WLCEZfPt5NIPu2cmdQ6Z5yM9h7JA5zr/jmbZyGaOb5pGRU0jRj4WAnb3pGZjbNca6NY208KksHBkP3ZIYOMaZ7WQ6855fSnHi/QxqG8woUKG4tAiMQwA4/BWrtyWT2CWd1blR3HBrIeuWpAJF7Fy+GnubYfz8USqpUTcxflRi1SAQO5yFCwqr62tpoXHll0iSH1lIclRU1XG7lfV/n87sldlEj5zMnJEWCosKsZVFYqmYMdoyHJHKmPk8PsRlWCyxYbMDp+3AaWyFNmyWMGybU0k9OYyXV73MsEpxO+l/68vTIXHEBKiq3AiJZvjMl53lyvz/7L17lFXVmej7m3M99qNqVxVVRRVsXlWAVolSxG4qJhRtArGPYG6DyYnoiYRzRfsMxHOUzoiae9Xc0YYxToQ7+qK3g/aNktsJZCTo7Ui6DdiHhpzEomMKWyiVUEYp5LF57Xru2q/1mPP+sXYVVYCJPAzXe9ZviMVee6255l61+b75PSdbt3TQePP9NI6RU0XwYESj9ezi8a88Tuqr63lpRRvs+TYP372A9gef4/4p7ax77HkGb/sWL61aRDLOh+N0sPsnsHB96/mKespS1j5ZOm3fVjbvbaRtVeNYC2mMngosntrEXFbuvZe1w8oztY2HlsCyZ5bSVJcIXIy5C7iaRpHZs4Mds29ny6qVrHnwEdi3gbn3dQTCv+ECFxztpuPNgwwdywARUl0ddOSbqQWoamTOTee4qU6nqL3AMCEh/6NzxRRC9+s76Jy3lLV/uZTVSzrZf7Q48l7rjYsA6Prp/WzYU8viUQoh9eZ2Os7xTadOAQc6ee1Nm7He4gyTZiwMjtlJWuYt5dEl61k0q6ZkKaxiwfqFrPvJE8zv38ZTj36bzpvW8vQDbdSMcit0vrQqiHuku4EIL3xzFT9MVBDp2k/bg1tYWNPDtgdv5dvJp9nzcIKOn0PrN6ZfQXdRJ5tXPMWwx7zxrvWsvambdf/lYV6euprvrxglLJPNLKx6nIdu3gYsC/zjNQtZu+MXEC+dteBR1jtF7vnW3dwB1Nz8BM/950UXWI2PJbN7G1uTy3j2ptJvY4wfv5GvfWctre+t48HHXyb5wPe591NnB5zUtJDEYw8x72eMcceNxaHz55vpmN1C45vb6Zy9LHAx5jIU+7vp2NlB4tZltIzRRim2/3gXbUvW0DRmwAhc0DUETFnI6lUL6flZF1t/OYnFK1fTZvewbcfv//whISFjuUIKoYv2VzqpaXuUpOGQ6in+4UtKpN/axKZUyawfHu28GAL0tG/g8R8NMWflwhFBl7x56VmFUdfKymd+RtuWR7j71rkQb2Lpg5t47kstY5QBQMuKLWxZkWHXYwt45NWF3P/dtSxMgHO0i3R9IzY9o85uZtlzz5Kp/4POq4ugkbYH1tBUio10ZIpQ08ryR55j+bUtY1f1dYtYt3PReSM4TpruvR107NnFD3/ejjNjEff+zYssbkyz/XvPsuqWb+PULWTxXQtZMKuF5im1JBKjJWwgeJuWbGHO8P2mtLHmgaaSS6WDQQdq5i7n0WeW0/ypsfGTmlvXsfvWD/l4B9Zxx9zArdP09S384n87yMNf2Urngi+Q7Ad+9hALdiZI9Ce5f+45CqH7NXa8VcPcr58bOI6Qfq+DjtTZI7VNrTRWfcgcnMHg556tbHhuP+Wj38t00Q0fj8UXEvIJ5gophCYW3bWQjY9tp+Oe1Rf/D82uZVJT84jV4NQA3RUkm5pHfPapwxUfcnFA5nAHu362iQ0/2E/Tlx5hzd2LaW34Pfkk/e3seBVgB488OJ0t311J05Qiu1Y8gv34GiKl046/+jiPv7mIZx672A/1+0jQeFMrjfSQ2gIdANikf7mSlfd92DUl68DOsOObC3iys4k5c1tZ0HYvz/3lehprhsV1I8ufbGW579BzdD+v/bKdbd/9IY/7X+CZv1lJ07DwP/oaO95q4Qv/yyg3UFUjrTc1llwqwayIp9l130pWfti0LmQdfOVp9nyzme0P3spWIJ3qJk0XG1Z9lRobWLKO3Y/V8sJNT50/XuPtrLnvRVau38riktup50g3xIv0dHWUZpVi7/M7aH5mD4/MO9cueY0X/mo/D2fmcHsVMKuVBTc2nXNOK603LycSBpRDQsZwxVxGtQuWsoyH2L1zKYs+bNV2oetmr2Rl1yFe/vGhkWOpA0B+Pzt+XBi1spvNyvumj/h+nUwPx9/voGPHLl7cuWtM3UDXT9dx/0/XMZamUT5oh84fbCQ9uwXeqmXZrO3c/QBsebic7QfSLB0lYyY1NJP51ou8ds9Cll442/GK0XLfbp617+b+vcvY8r8PWz8OnZu+ykOHm0qpqQkWfWcviwjcWk893UFj6aE4qVJAt6F0IJei6/Bint6zhbXnyM2uVzfTOe9e1s74Q46wFlbvfBZ7xf3svWsLT99Wegh+Jy989SG6mxp/vyttx1PcYxSJ0MSa72+h5ZW5rMxFiPSn6AbOf6Q2LXfdy8LnH2fb3mWsmQvpnm6YsZx7Vy0rnd/Jhud3jIQwnMO72PrjHWzb2Q600Hzr/TyxYBKdj23Frmk6P4YQEhJyQa5cUNlupmkebH6nnYb4IBcIE0PDSlbOmsTotX5ywWpWLxh7WqoJkkfncOeKtrMZMo4D9tl/1sXX/w9WPddD6y2LWPNYA5sfbmfBhwUdS0HJkaH2beTbLzWy/K8a6XzLoe2B+2l6vpPuPVvpmvUF5iQjjFQCNLVxe3IjW3/VzdI7r2iO0fnEE7R+eTVtP3qSbQeWBavfw1t54UcVLPvuQpIX8KE3/se1bCnNq/OZcwK6+zYw974LZCj5nWz/QYq2b8y/4JjnYle1cueqNjZ/Zxudtz9CWxy6f/ICmxPLeHbBaJHeQ+owNM0aFbL94hO8uqCTh27bOjY91P89bsWqFtrmwsZ9XayZa7N/d4rk3OazgWAnMyaebWdSHEwu5N7bjvP4j5ppW9RKo93F7sPQ2FYbKoOQkI/IlatU9gfJ9EPRtKlNzmHxrAra98Ck2i42v17L4r9cze0ze3grzZh/oF3fv4NbH9tBat8G5s69m62HMxzfu41Nu48zOFzFm9rBQ7d8nnV7zoqBxC1refWlZ1m7ailt10+6iH/0KV7+280kVqxm8bB8NxtZ+kAzqZ910bKgbWyGj9FE25eSdL3SQfelPpuPNK122o8CdYt49ButvPzgKja/3s66b6wjc+ca7p17YfdX144X2PjcRjY+t5GtbwIHdvBC6fXGf+i84DXO3h1sZRFLb/7DcZHUL9tJATW3Psqjc1/moQc20/HLdTyyPsOyr99L6xhrME3qPaitq8UmTc9hiBiR8wft2s7z39tGR7yR2jHXOwxlHJxMmkwOMn2DOEc72HEgycJ5Z9OG6U9zHPtskHn2ctauWETrzFGKKHOcQymbOQ1hpCAk5KNyZRRCaisP33QHG9OLWN6U5oUnt9LZn6brwBC1t61hDeu4e307tU1NFH/0FC++W7rO76L9p91Mmtk4Kg0wQesD61meCa5xnBSd/S2sfqCVrQ+uYuvRy51ski+sXMujX20ao0Sc17fxfKqNpbc2nadcmm5ciH2gnc7Tl3vvC5N+8wUeuuthNv4qUDnJJWtZ/5XjbHjgIbbWrmHtOVlSY+Y2ez6tN7bSemMrzfXArCAY33pjK63NF0quzLDrp1upvX0p83+vay/N3k0P8ZXHN7LrfYL02L9ez7LUBu7/+lZqH1zLmnnnKJTTB9mfamLOzARQZDAFzckLzKGxhflffIJ//PFSeL2LnpH2HTb7v/cV5n3xYbbXL+dbX55Ox5YNdM5bztLzyrQbaaj/8GWAc2Avu5hPS1NoH4SEfFSujMsouYz1e5/GBrqeX8K6effSmiytp81Glv3dbr7Q/izzvlXO6iVpNm7exR1PLoTdP+T5VBuP3tqEfXpU24J4C6uf2cRiswU7tZWnVmxj8Y/W88TNX+Hb39rK/O8vu4DvOU3X3g46Tl1gfu+nxrysmXd+sZY9cwFrvhkZU6A1wqw2li+ARM6BK+mAKFlVPXvaiTz4HM/c2Qj9Xez4wQaeesmh9bZFDP5iA6uetHnum8toupAAn9QUBIKByOtAKknTTa2ByyjSznlFbf3t7NqZZOFzcz78k2QypOmha0+ENd99huUzIHNgBy989ym2+q0sunWQXc+s4vH4czzxpaaRuo/Mm+20J1tZ3mB/qEuo5b7d7PYjQcbT4Q5eeKydZTc+zdLS+21f/xlPl9x+mZ2Pc+tLk1j+/O1jrbZUNx3UsvBDaywcOna/DLetpe0i4lkhIf+jc+ViCABON/sPFFn0xfkkK3pIspEX1pazPwk9e1/GnrKWpSvWYnfWBk3d4rXMX7WMxUkg0cIiNrNh9d1sG72oTHfT1bCMRycnafnGengvScLnAjnpEdLdHXRcKHiRumBEYyx1rSz7CqR+uYkfHjjO3n3Q1FKaiN3K6vWtl/BA/gB+hrS3kDXPP8rieAc/fPhhtv4yQ+Otq1n70jraGhKQ+RrbvvsUq27ZgH3zfaz/65Vj0jS7//5x7n5l+FUTTWzj8RXbgpe5FLB4zC1TO7eya/btbLlgY6QAJ5OGW9aw6euLiez9IQ89upX2oUYW3beWF7/TRmMCMv9xG8/+11UseMam7Z71rL0nwbbv7aJlySYiv9rIhp272Rxv44kGG+qamZPsYsPab5MeVUnes3czXbPvo7kKSJ0zh8NbefzJXbQ+vIXVn7KBFDse20Bnosi//LydSXc+y8K60smlflg9ezsg2YjduZl1L01i2fPzw75FISEXgcjmHD36QDRiIqX4yAOkdm/k5fwXuO+2810tPQc6ODTS7iZCbVPLh+eNQ5AV89ZxBsccrGDS7KY/UHGbovPN4yQ+LC+9P2htcF7een83HV0ZJt3YMlLb4KSGi+oi1M5qofGPJVFyXezYOUhT25xRKaRj59r+y26SixaWVstBr57O5J0sP9d1M8zRXWx8xeELKxeVirx66PjRT+iafDvLb/5oKVPOgR1szzQx/8ZGLjStzOF2dr2XZPEtjXC0k+54C8n+Dg6moWLKHJqGH+zpLjq6B8+5etR34uguNr6SYs6Xl9NWR9CL6ZXjNH+xdcRd5hztZH+qCIlJzGlKng1Sl37/RSBS30xLQ4SuVztI3NL2kYLmISEhAZetEEJCQkJC/v9BuEFOSEhISAgQKoSQkJCQkBKhQggJCQkJAUKFEBISEhJSIlQIISEhISFAqBBCQkJCQkqECiEkJCQkBAgVQkhISEhIiVAhhISEhIQAoUIICQkJCSkRKoSQkJCQECBUCCEhISEhJUKFEBISEhIChAohJCQkJKREqBBCQkJCQoBQIYSEhISElLiyW2iGfCQyRf2HT/qoXGgoMebH2L+f857WZ4cRpf+X/rvAsPrsxRqEAHHOmRHr4jdXOpU+MeqewV2kAEMIhDj3DqPmI8Z+HtMQSBEc8HyNrzRq1GdUWqN0MLavIWYJDCEYyHv0nR5Aux4YEh2x0IZBbVUcDZw+0Qe+AtNAWyYVlXFMKdFaYxmCMksOPxJ6ci69OYdPT2+86OcQEnK1CRXCVWCoqDncd/lKQaMCYafPEZlSI8VZ88/grIAX4uwfAKVAlaYihQIkUoIcZTtKAiEqhUYACpA6+Ls1ane9ukqTyIeK7w/n1/t/xameEwgEWmuUkMQsk3LLIGJIpBAEtxHoYUUkNFIGCgNASkVtRYR4JPhKpzNFBvM+xZJi8DUUPZ/u/gL9A3liiRi3zKikLGLw3w6e4Z827UJn8mjTwJ1chyqPMucz1zK1Msrmja+C76NjEfyJtSyYfx0xy6Toa6ZUWMydEMc2JJ5S7D4yyJLP3HbRzyAk5P8LhArhaiDEiEC+8BIfRq/Rtb7wOQKJEKBLY4hRS3s5alxFoBQ0wWpZAlortBZoBHilE4Qcnh5KBQrAKM1VyrNTFTqYk9IaQ8iSpXDp+Bp8XyMkaARKl24lgoW5FholgjW4VsE0pQhW/FooNGAKAoug9Kw8rXFRuGi80tQLCg6kBsi8uo/Ygln82fQKYrpkObgeKlmLKjoox0X5NicHCzRW2VAWRQN+ZYIbWqbRUGHz6oksntbUxE00wRhoaBoXpS5mXcbTCAm5eoQK4SojUOcd0+eEdoQYK27PVRBCCPAJpPKo1f/wuQKNHhb2I+/I0vugpUSiEEIipTprRWiNkKNcNqPuK+Swm0SPuHouGR0MLXTgMDJF8MVUJWXg62EFV1JgvkYbAq1Ay9JnVuBrjVKBetQAhsCQAsdReH6gJLSUeGURyirLAmUqBBXlEfTUCfhK4ddVoUyD6Q3jWXLdeGxD0PC52ZzKusSjFvOnVmKaglOeQgqBQuN4iiM5l92pLJ+fWEbEDENzIZ9MQoVwFRAo0B5Ii9J6HV9rhA6ErCEknlaBMJeUXCmBkP4QYyFY4ZfQZ0MBCBEI0VH6Ajm80hcQyC5Vcr8ohg0BQwBClsYoqY+So1yOchMNq4PLdYAJQKtAAZki8O2bOlBKgdWgQQTeMS00rq/R6EBpAK4SuErjq2Aw11dkiwpXg+MHrjUtNJNqynE+fwPX1ieC5yoEycooTZ9rpq/gYxsSQ8D11THGxy2KvmJKdRQrYhE1BKYhyXsat2RZpIs+WU/jKc34iEGZbWDKUCGEfDIJFcJVQAiBFCa+7+FriWnIQJ5LhVAKKTRSS3w0BgKNQshAGwzHBlx9vtA5a0mcv2Yvic+zwh4wjLPWhDHsdhp2OV1IpgmBIYJVuJSBIFYj4dRLRxEIV1lyC4mSm0pojV36k0dQFAK3FM32Sy6i4Q+qkPglxSEAT2kKro+rNAKBFBJLCCaW28Rtk+qIhSGCmIUpBfVxm5jpUXA1A0UPtKZ7ME+yPEp93KbM8ik3DWwDcj4IKYhKSdyURAzBhLjF+LiFUbKcQkI+iYQK4Srg+Yqi62PrAgVtUyy6+L6HKQW4BWbUVQQrWy0oeAIHA60F0jDQvsJRYJijYwz8YZlc8stLAULIQClpHbiIhk8YJcqUAsYIewVClKwPcdZRJEAJeVlqwVcaV2kMARKBkhrla1wJUmnQCgeBK8ArzcEncCWpko9MC43yg6C4Kq3eff+sohEisLwStqTc1pTbkrzrE7UkthTUx0zihuCtnn469x6i+s+amXFNLRHLYFpFjJzvY0tJuSnx8bkhYZP3Agulr+Dz4/0p/uL6eqZWRMa47EJCPkmECuEqkM3l6c96ZI93MW36teSxiMbK8TScSfdieVkm1IyjvCxCPAJ5V6B8n7zSeMJGGhIxKvQgKCUajY4dnB+aOPueDgSnB1hKopUe9h0hSzENIWTpvOGbjAlMjLwOXFh6jJK4WIpKkfMVphQYOohZWIaB52tyOnCnAYFgL8UMNOBpUCXXmKdKAWmCuInjQdHXgMQvKRGFwFUKH/CKCi1gXNxECqiNWUFQOltA/+a3nKpLYM+agAYsSxKXEinAMgQxEyZGLAaEj2FAzBR8anIVVRGTvKdw1eVZTCEhV4tQIVwFysvLKR8qICsqcBwHOxH4s02tyWibAREFVU6s3yMmFbE4CL+P2rIKhnyHbFFTJIoWgQA0tAfIwH9OIBiHV/LKB4xAmA4LTKU1QiuklHi6FEEuXWyUXEXBDwPwg5RPcdaOCIT/KHSQhqr1WCvjo+IqKCpN3g/qBMZFBXYQMqDgB5lDpgRzuPBAa4TQGFIgKQXNtebEQAG0TSIaCHkx6jl4GpRW+CUFFrUkUyoiIzEZKQQVEYtZDbWMX/1FZkytJlfwMOMmjhe4sYI4hCDtKPYOuUitidkSUwquq41jCIhKQcwITYSQTyahQrgqKMrjNrKimsH+01RaUTwtKIuXAVAWsfC0JG/YZIGud0+RP/JrbmtbCJbF5CqLbCFH74CHZ0XxRQRfacSwIFJBrEGhESagVZBZKiRohUJilkwMXQpej0aIQHhKJZAmCHE2Yq10SUFcQXwd/HGUIuuBbUB5BFyl8XQpDVWLUfUPGqmDOIdABZlEGl7/oI8FM6tJRMyRGEeQuqoCFxLBscqoQdv08QgEPUNDGASB7IgUTK4uY8b4csqsUnBYA0KOpPYqIOcrjjuKiBQczvlkXZ/JMYuoJRl0/ZLSCQn55BEqhKuAROL7ChmvoMLNkO1P03nwLT4797PY+OApDO2hpMmR4ydo37Gbf7/kZs6IBMoVZM7kiQlNecwkanu4riIvTPJeIPR8TNSoCl6EwBSBG0mUlIEQw17/4ZoIPVJ/ACVha1yqE+ji0DrI0hFCEjc1SoCrNa7W+DqYZ5A8FMxneNV/KusyWHAp5opUV8Vpm1HNxIoIlGIRw64tMSzOS1bHQNblH/cdo8KCa5OJUj1FUOVsC7CEwFWjrCVRckepoMgt4wUS39eahCUYZxkcOHiK6dfU8sFAkZlDRSbW/hEeXEjIFSZUCFeBvoEBftd9BlcJ/IEUeqifE+918QaKoqOomzWTuvJGTg4Osf+NN1g4v5naurogmCzBFVGGFBh5OH3wIOMiQ0yd0khlvIyCthh0vFIWUqmizA9W2RIfQ4yta5AQZDKV0jmRQQmbEGrEElDKPxuI/hgyKpUKrBTtK0xDopWP4/l4w0lEUuMiSwV1JQ+X1rxxZoh0Zze8n2Lm525gUXMLthFYBAIoM4LsKl9rZMkt5SFwNbgaxlfEsKXAJRD6pgxcYaYU9BQckhUxtAYmSF1aAAAgAElEQVRTBAoJoTky5BE1BBNsg3pbUG9LTmcdZHU5r5/IsuOt49w4bQAarvxzCgn5uAkVwlWgN32Cdzr3gtaYhTxlNji5fk68/w6VMYuT7w1w+sRR/u13x6iwLapjjZjaxDANXBRFLTGE4oNTKd4++A7XTqwmWldOxJNYwmFcRGFFLfLaZKjg4mAiMDFk0AbCGBHqmlK3CkwpUcoPXC06qAhWngishDFmQhBXgCDwDPo8l9NFo0H4pdW/p9BS4JUKzBAaVNA3qKCDVhmWFPhKkXN8vKOn4fAJ+idV8/q/VXPN5Arq6+LYhiZhaxxXY/mamUWP902T1KjeSIbUWFIHLTlEUF9hAYYUVEcthNbk/KBqbvgjTktYnMz7TLINHN9l3rgInd1pOlJD3Nw0nuI7h4nF7ct7HiEhV4lQIVwFYpEyptQnAShIm77TKRJ1U6iImMy+Zhrxmsn8et87lBV6+fR1s4iIXtLdbyDLq6iqSuLHyjjT28e7v93LpIjimmubcawIDmDoCENFhcx7jLPzjC+zUbjkXZ8cBo4LpmGglUJqiWH4QY0DAiElvg4EvWGBr3y0LxAGo1xMCilHVcEhEFox7HK6FIQKag6Gc5q0r1Be0KNCC4GWwf2FDoSzpQVRQzKjKkJ3fSXCKTBx8jiISioqIqXqbEBotNAMIXnDsnB0ySWmgxoFrYO4ioka6aNU8DRH+nKcKvhMTURoqI5hCoPTOQ8hg+K3QVdxuODi+4ojOZ+Tpwb57a9/R6UF46qgTLqX9iBCQq4yoUK4CijtM5QtMuD46OJxskODDPX3kxeaMltwQ7ySujJN4+cXMK4yxumBPkyjgOWcopDuIesLOvZ3Ey+cZs6f345RPgmlA6HmDItVaeDpOH0ZSdTPk7CK1MdNMA1c4TGQA2mbIExQLoYZCHmpRze7k2BytlCMsyvlEUoZP2I4H/QS0FqjvKDJktagxNlyN61BqeGiOYEQQRuOiAm3TK2g54ufojwiqIwZOEoSsc76tBQCTwocA1xKrS5KHVB7HX8kndVXmozj0364n8OnB2mZWk3EMrl2fByB5oMBh//rF+9z38KZGNLAUZq0q3Bcn22n8tRkHfKnB/nVf++ivtIifSoP113SowgJuap8jArBIbVvP8ermmltSFzUlZn3OziYm8Sc2UmuivHd301HFzTf1MjFzfyjcfLYB7Tv+jkKhed5QdDS9XCVx3uH3+P1N/YxsSpBQnpYcioTq+uRUtMzOMSxnl6OHz1J8fj73HDddHB6UQMCu6wOgQlCooQEaaC1wtE+nmHTX4SBg/uZMr6CiROS1ERtPAB8fAMcbeDrwI0itQIpUWpELDMSfNaAVucVoYlR510svq/wtEKo4bTSkttKK7xSfAMdNLUTQlDwfIQWSARGxCYak5iWoGfIC9JwS+m4BSXIKygoHXwWrfBUEFOIGgLf1xxOZzl4Osuh/hxRy6a5oZ5jeYf+oQKfmVSOrzQd3T2c6OzG//zMoNur1igdZC5lXUWNFnin+zGmT6S8vpKCd5kutJCQq8RlK4TOH9zNUztHH2nj0edX05J6mcfvWwf3rIO5JbEav4CQP7qLja8cHDNm6vVN7HirhUX3zSU56njtZ77Gsk8Ni+hONq94iu2jL5z3KI/GnzpnPmdpvGs9a28bPWIP2x68la1tL7LlzlH96w9v4/4HHJ7e8whtH4NG8t0i0sng+zpoMirAlwamNNBC0NOXYbC3l0PHTlBmWyRqqpk/72auvb6F4weOUMz285k/uZ7KqioKA2eo8PoZOtNFpHICZRVTMOPlFLWB5/nkXI94PMLRI6cg04c3bSbHipXEvAIVZh7TMCiPx8i5Ptl8HmnGgjmOtNRWpYByqReSFCMumTHplZeRjuQqjasoWRoaQ0n8YWWAwEcGKbQq6HrqeBrXMhjyFENFD19YFDxJX1GNKC1fC/pcKPoqaIHtDadQDRe5wfe3vcmtf9rAjKm1fOAa9HsaL+eQU4q8p/C1YNBxad91ECfVG8xCCyICxkvBKQG1lsTxNUKDlYjhWxaUxy/9YYSEXEUu30Lo76Jr5jpefbCV4z9dyco3J1Fb7GTDN9aRWbCcBcZBOt4c4q2fbmX/Tet49VyF0NPJpudTrPnuHTSVDnUd3sQOv4X5N7ZSE5xE+3cfZ9u4xaMUAqQPdNH8nVdZM9em83sLeKg/Q+OK53huiUPnpq/y0OF7efHJxdSSYvs372ZbpnjZH/dKoIQkL2zsCKAUhmFg2zaep/E9D6M8ilIurpBkhGBoIMc//OxnWK/upCJuM2NiFRMmTiFWVYvh53DyWcorLJx8mlyxB60NhF1FVkRIVE7kWPcJerv3MffGG7HiZRS1T1FE6VFRDM/DcnxsQ5FAYco8Sphk/FJHU61BFAPpH/S9QHgKixy+kUBJ88Mb7n1EhvcqkFJgSImrFMJTYAQKUunAlSVksKqXQuC7ClcphhxFPK/oyuapiEhcP1AsBV/RU/Cg1E7bVz6DmQJVWpEcFyNRE+fP7vo0VRGDN05lg1oIpXF9n75T/TTVxDmS6qWsqgy/P0P9zImYUozEIGwBMSk4XfRo1BqruoJyrbnh+iRWzcdhV4aEfPxcGZeRHSFR5dD9ZjetTUW2/tUqtk59hC1/vYzGODh71vH5Hy3iWw8t/BAXTIbBHDB6YXUqwyCUFMKHE4knSFTZJCJALnht929j68sZ2r4xn8aqBFAkfQAit0SuyMe9XEzLJh6PEzFLTeWEBGGAXerBoxVgj2TvuJ4mb0TI5ov09fdz+vQp9r19gOuva6at9UbG1dVjR2JEzCJOcQDb8nCcU8hikcO/+w09PWeYM7uFisR4Cr5A+j5aFYnFXAqUMYRNRHkMKYE+doiqeC+W55FxooyrqqIv41LI9uLlM2T9CIZ2mDp+kHGTbqHXr0QbBmrMNjwXR1Er8iWhb2pwAFSwKY6UwTPyhGAkPCLOdjr1EGR9TdbXlCmN4wfts30NeU/jeB7pjEP6g9Pc/qfTqK4u43B/nhP9ReqVYkqFHfRRUgo3XyQZ0fyHtmk8v/Nddh04yaNLZ1OWiDGpoQatgxoFk6BATqkgTVaaAjWlloY/aaCpNs4462PIzQ0J+SNw5WIIR/+FbXvaaJnVzrZ3a5lzW5rtP9gI9LD3R9twJi/i0Isb2Vg7n699peWsYmhYyrPfTZ8/Xn2CipEXNbQ98CxttX+g2scpcvz1Tax7bCPpW55gXRt0vt5B8dRuducaWdB04evT73XQ8fqoObyfAjLsb+/ALimpyJQ5tCSvjP/IQGGj0J6m6LkoxEiAc3iDF1cFfnKlNKLUvllYBpiCojCRMsI77x2ht6+PqkSMWFkZM5tvYNqEOuLmEdzBI1hKMrmihykVA1ShcQ4dwJNxoolGbMNgnChQjF/LKT0dX0tcaWA4H+AVf8ux431UJsC026ipmEpf0ccvdzF0PVq5uE4eJ3OEWOI6XGHiDld+XYJSKChNoVRdLbXGBWwVjGSWRjVH78tAsFOaQgcWhRaURyykgKLvk3F8TvTkOXbwJI0Tq5hWHUdOupbTBZdjJ4fIe5q3B3N8PlpOVNrEDRgvfSbENCfSWXanM1iDOZ5d1kIiATXJSiYZQUvu/oKH4wXtNCwRdFed1jKNhvpa4oYkKiUxI1QIIZ9MrphC6H59B53zlrL2L5eyekkn+4+edc+03rgIgK6f3s+GPbUsHqUQUm9up6Nr7FipU8CBTl570x4TQ4AMk2YsHHPs5bX3sL8WnBRwc4qOVw7S9OAm1n6xhRqjh/ZXOtifK+eOv1nH4lkXFuiRnsN0vDlaKTWw8j6gq4OO0pEKfzotyT9kr3w0Cvkifb39QdBUCoQu7UpmBKmfhgwqmQ1hYZgGhvSDxm9CozFRGlwzhpA+fQXFkJcn9WYX//qve2luqODOJTNoSJbx3lGPqFUgUT4ex5Fo4yhR36bMLeAWI3jSQ7o5qhKVZBmHpT36B05jGSeZXG+SU1U40STSqMKKnkLm4O3f/oai49D6mYUI0yJaPEaROrQ00ar8kp5HTsOQFkhV2tlNCgpARASb2lhSjihMAehSOfXwtpp5T1F0fNxCjtf6hzD6h5g2o56ln7uG9/sdThR9GHJKChb6PZ+DvVmmV0Sojzm8m86x5f/8Z/7TLbMpOg4v/2QPuaJHmZPn2dU1iFMnSP77z6EVREwDJX1yChytqTQNIqZBpneI3719mKX3zCce6oOQTyhXSCF00f5KJzVtj5I0HFI9H91Xn35rE5tSa3j2S00jx86PIUBP+wYe/9EQc1YuZPRCffHXnzkbQ/Ab+cISm5/8+jV+8r3Xxt7nwHY6GlezcMr5c0jcdAer7/zjbYoupEQYJlqqUm8eiWkMt5MWaB/QGsd3cR0d1AwgEKiRTeMN8viui1NRRl19LURsikODxOjlxJFKej84w6QGg5zlEi2fTplRTrEo8bMpYv4pKhJxCkzA6ztEtR1hsDgbz3XpOXEG17SZdU2EWLSGmNUH+jSmPICrU3x6Sg6nGGVC/AhKVeFlDlFeNY+iMQHrEpu65TRk0AgtsFTQRiKiFKYEKQy8kvUAgZ9fyqDNhKsVffkip46l+ey0WmYmKym3JPWfnsaZrMO/Hs9iG0FtheeD1j6W0Fh9gzx4zTiO9+boixk4js/QodP89niavFbYf9qITOe4xxKwZ4A6X1IZi6ApKW8odU0VKK2ojki+OKOaKZPKaJFQI8Mso5BPJldIITSx6K6FbHxsOx33rGbSxV5u1zKpqXnEanBqgO4Kkk3NDIvp1OGKC156bgxh8Eg7m56vZd3P19A6rDhOb+eRr65jqOU+Fk4ZbSUcp3sP0HaxE748tFIo18E0Bb4PHgrHK0m8UrqlQqBE8OsRIsiy0ersjmkagWEaeK6DbYBhGGhDMHlaFe+dchGn3+XaGddRaXvY9kmEUU257aMsTaR8HIYo4GTOEBMFcLqw0+/Qk/bxcwNUXTcDjKO42bfpHxjAKWQpM6MUvR4mjp+KEa/HNLrJ9J7AG/KxnUFU4nMUo9cSs8su+nk4QpIvVUxHpUAoqEDia4nQYMqzG3W6WtOfdejtG6LWNpiVsFl52xwynsd7ZzLUVsbpyTrkXIWrNVoFz831FOV4VCuXquooL+49zpmcw/2fj1P0fJTvs/e3Ka6fXouTcfD7M/CWw7EZrcxf0YJvBJlPhiwFuaWgVkraJlZRHQPD11AWoRvBdC0+lnTlkJCPmyvmMqpdsJRlPMTunUtZVHUR181eycquQ7z840Mjx1IHgPx+dvy4wFknxGxW3jedj9YzLEKkKkFiWPY7kd9bz9D1vUe4+5ULn3F+qurlo0XQZdRXJojS/sGmQCkJpRWoIQSmITCUT1FpMErdSb2gACzI2DdRJvjaoKqqhrw3QH1NPW92HWfapFpiiTIyTpbsoCJX+B1RawCrMERdeRxpGdSOg7yRI9+bozqSR1VZ+MUcyjnNiRMpfM8h3T+AjI4nUV2LzEUZV11BXA0gfJfEuDoGhUQaMfL5DH7vSaoqZ1z08ygAjpSYWlNUYIuglZ0SEg+Fp6Df9TicHmLg4DH+/NoJ/M+fayY9lOd0zuW1I70UvaCKOu+qoF8TwTabhu9z4uhpvnD9RMrNCG++l+FfjmX4q0U3YCO4floNg79+l0mzkqSOnsGPR3AUZIuK/1xVzf86qwHf87CNUvtrHbTSdhREhKJeBqnDphTYQpIreBQc/0p9VUJC/qhcuaCy3UzTPNj8TjsN8UEuECaGhpWsnDWJ0Wv95ILVrF4w9rRUEySPzuHOFW1ns4wcB+zzhfZrL22gvLOc1JswkrfKa2x9upz9w8u0TBfdcL7lkuqmiyTLn3yOe8+LL3x8qaqGNDBMC7TCNDSeMLEMC1/oUrsFE8s0sEyBBCJ+IGC0Bt8KtoekVBwlAbfoIi2bmooyxteX4b5xhul/OpPjZ06iNZw6/RbV42x8nSfiOzi5IqZUCKsShc9v3znNtIYEdtylPC5w+48gbIdssYDUMJQ38HtMaqIKrCpM6ySGLfEcQU+xivEJi56TH1AjL3VdHJS1STn8UzLkuqTzRZyiS8+JXqZELRbUlnPDnZ8hpzW/OtqH56tgcx+CYHzcCBrxSUPiKk0mX6TcdVjaVM+xvUewEhGaYzaf/1Ir19RXkug5QzSyn39X08OPx1uo9xQnj/agy6IQs1nxlwsZ1Apfac4UXXb+8necPtrD4mU3gdbkPfiHI73cNa0CU8DEuMW+U0O0hR6jkE8oV04h+INk+qFo2tQm59Ba1c3jzw+ybEkXT73SxpbnlxHZ/W2+3QlfG3VZ1/fv4MH37uX7dxxkyX0dPPLSczTu3camA7UsvhtqDCC1g4fuepJJ3/kFj8wbFtwtrN65m3uHB7rrazxqREhEWth987lzc7hzpY2dGCv0Mwc66KCZpbNqSJxn1dQS+ZjKpEUpC8X3XJQyMKIGIDGNoE2D7xcpFBUFQKmgnljK4Ffli1LA2fNwSwqikLcYV1VDLG4TNQw+3ToVURzCt00yxQwRYWHgYCgfpTSFTB/x8kpwBxgczPJG1wkmTy/n+BkXv2AQ13k8YVHM5nEKBpGooDLuUSaGyBYKxMUgJh59fYpj+w6jr6vh+P4eptVfe0nPQ5aKyYb3i0aDPZjD+t1xDEPy4LKbOJ53eHfAYW86O5LhYwyfXxojWmpC5/qKdMHnH/YcQrzyG574s9l8wbDonlxBxdJrOZF1sN/opvml13FuVDT/T3VMOz7IUdvE788iohF0xOQ3XadZMKs22EvCEDQ0TWDJ55pJez4RNDmliQuBbQiU53NjrU2uYBNmnYZ8UrkyX93UVh6+6Q42phexvCnNC09upbM/TdeBIWpvW8Ma1nH3+nZqm5oo/ugpXny3dJ3fRftPu5k0s3GUKyhB6wPrWZ4JrnGcFJ39Lax+oJWtD65i69Gzt7UPv8CtSzbQaSfg8It8+8ntpOwEif7tPPLVx9mVS5CoSrP9G7fyF1u6GasPMrTv3IF92yLaLsLFdSVwXR8MC9+0KbiaXK5AtpAnW8hTdAq4XlCL4CrQmGjMwE3h6aC1swj6jVqmQCmXouMhLYtxCYsPjh3C9Tx6+3PBvYoaUSwQtwSRUtC3kMuT6c2RHyqiUUwbN41ERSVCF+gdyJIrqqAhXrbIQH8WUZTY+T4i0YkYVjnZos3JEwOUxeM0zzTxinlOnD58yc9DaLCGN30WQYxlhg2f/3c3cOOiT7Hz+CC/OZOjv+gx4LrkPEXe98k4Ln0Fh8O9Gd5+5yinhwpkXUXeL3VgLbqIXIEPPkjx7IH36Xi7m//0Xzbx/N/v5P/ee5DO/3A94lMN9B3s4+CpLA6BpaGVBk/xi3/Yg0COKKtkTYKYLSkqBTrIiFKOC0rjDRV5sTvDptcOcfJIz2V/R0JCrgZXRiEkl7F+7172/Hwtc47uoGveQlqH3e5mI8v+bjf/eFM7876VZv6SNBs37yIDZHb/kOdTbSy9tWmsjz/ewupnNvH9lW3Yqdd4asXDdNz4KE/cfJB139pKCgCHjv+2FWdeKy1xSBgFXtu9i47TQEMrC2rbeeHVLqCR27++kkk/WMWGfWdv4bz1Q17Y2ciyL8//4wcAtSZfLCKkhS9l0CZCCNzSpu0aQJpIQ4IhUaKUjmoZGFJiGAZGNIK0IgirLPBnmz6Tk2XEyxOc7lMMOFFcbVPsLzJUcKkoq4PSXgi+D9nBPKePnCGRiNMwPYs2CsStBBg+eUeBKykM+GQHPMrLqiifGEeXV9M74PFB32QqptxBXsyhbGINiYRNRdWlm1Om8gNTdTgIjKZ/XILfZHz2ncnS5/g4niLvDf/0GHQ8Mrki3b87Sbr9IAua6phWGWFf10kqLElN1Cxtrgn/5ir+n1Sa1/oHSTSOZ9+/vM3Wv93OmvU7+XWxmr8/nuTEUBFMA6QMeidVxvn6msUo5Qf7RABRE7oHc7hKoZQCz2dBsgJPw6Bp4jk+p04N4rne5X9HQkKuAle2uZ3Tzf4DRRZ9cT7Jih6SbOSFteXsT0LP3pexp6xl6Yq12J21OD4Qr2X+qmUsTgKJFhaxmQ2r72bb6MhxupuuhmU8OjlJyzfWw3tJEj6Q2cWLP4FF69sCgd7QzEI20dXtQF0jcxYkWbd7P933NNE4+z6eWLGDlX+9icUvraQp18HGv94Edz7N12b/8dvnGbaFtC20lNiWRaFYRDoaw5BEbAvTNPCGs2oUpfbMAcMb1Qg00ndwhY1l+hjeEHU1VVRUDZJIFxlM+7gqxpBSWAWFGbEBQbyqHNeKU8jkyQ8VOPNWmhkzGyj6Q8RiiqaGcjJDBcx4OdMqovi+4vhpjds3GYeJdB0ZIFk9joJfID84xLUNjTjOGSZMnHzJz0NCqUVGsLNbf9HncKZI1DLRQiCHex2h8RWYnkvP20eYNa2W2dfUcKQ6xuZ/PoBVUUZS+kxqqA223/QVhlZE68qZM3sSA/05Bj2FZwZV1ccH8vxTKosbK0cLQaRpMoVTA+hEGer6aVSWW8Fe1L6PEIIyUzAhGuNQxmGiLfnyhHK+fF0Fuw70UOErrqmO8ulVNzPnhomX+xUJCbkqXLZCqJ29kpX5kgS3G1n2N6+yDICVfP8HszmUKZ1443yWN7VQUwXLh3eTmreGdfNKf08sZO0vf0bXW8cZHHOHCibNbiIZB+JtLC1ZHo7TyMJvraWprbS+T8xh8bfWYtcWAZumBY/yxIwEEQewbVpWrGXtp2ppNIBEK8seXMviuW1BjOKC2DTevJLFyQunu14OhiGJl5fjux5FBKbn4XkeJiUhZkqEr/FLyZbKUximgShtYoPWlAuH2gqBES2nLGZRX2VQU+1hmj7N10wkP7lAdUWcqqprQEtOZbP40Qp8QxI1TBL1VeTLKzjw+hEqywfJx0wKQwVcZROP2Jzp89EFj6zrknFrOPy+zemeD3Ax+ODICZqnT8SwIpx6vZ9YQjN40qbZuLSvkynAElBhSwqOR2PUwjMNcp4OWlcIsA2J4/rUSIFZKNK24Dr8oQL/9NZx3j/ez3WTq/FNg5nTxmGIoLZBoFFo/u3AUaqGClROG0/2gzSqKoEoi3Hzok8xqTbBkcEiWghcH1SyFpJ1iJiNX6ogd5RE6aAlhip6oDXXJKIsnBAlZh1mqNelSffwfsrh737WzT/+ZC7UXdnvTEjIH4PLVgjJBatZ/SHv1cxq/YO9iMYQT9J000dL8bTrmli0pGnUkRraliw6+7KhjaWjtzGsamHRqGBz8uZR516QBC1fWU3LR5rNxeG6PoWCg+95KN/DNCXa1RQdF8f1cAoS0zLQPni+QgqBozW+EAjfQwrB1AkW81sbaP/1QTJDJvGJ4xDCpCedxSlqysrK+N2hNDm3iG1FyOXzpE4VmBITzPvstVAGvfkC0apxFCMF3jmYp/tgLxFb09w8gf1vp3C9GJ4dJ507DGii8Spi5VUYsQQf9LgU3SLZwTP4Q31EDcVns5eWkWUpTUQrxhkWJ9KDNM2cwNtZl7yvMaXAyhdJ/fYoy/78eq4bX87ed3Ls2tFJcwxaJtbT3FjP15fchFBZ6iyPbf/yDvucUsYWUD8+zvFjPZw8MRDEFqI2wjLxpGTIUdi2CZ+9HrciAbEImAZKSoZcn6ghyHs+ww2/h1zN1DKbmyaX8c8n+sj9LsobB3v4wf4jTGisZ7BiHEdOZGm8tPh6SMhVJdwg5yrgey65TCbwmXuBgJdCoJWi6HsoX+J7JsIwQPn4iGDnsFIWjWF7xGybYj7LxLoEjgIrr+g+OsibnUcoE3Fm3Rijc98Z3KzPtBlJTpzJc7LHw5pgIk2LN17vpmAnsWMTyDlZ+tJdFIsaiUJYcbTyMPQQkWg1vQP9GEYlliwSjVkUHJ+hbJ58wePUmSH8QpEyS5ApXlq+pa0Upqs4OZDj7f1H6D18Btk8Ge0p4tk8DeU2X140m8yxXv72B/+dZE0lKxbMoi+fY8Etf0J6oMBMXyOib2HWDHJrc4annzmE6dbgALEajXekgCqLB7vDuR5aStp37OO6a+ohHsNsmUGxL4fIFsAyEQUXTdB5VZWi3QaQjBmgFYd6M3gIGqfUs++9Pk4Yip6TA5TVVpELyxBCPqGECuEqYJlGsGWkUkjLAs9Da41pR9CehyGDjebxgwpkAL+kMBAC7RooYXLkWC+Fos/1M2uIWGn6szF0QWCWF4mYWTzXQ5pVlNkWxQGHKhPKYxJHlPFuTzmJmkbqYiaG/AAlgkBotMxGkUPaUFUeZ0qjYlzCJ+sr+jIuPYcP0+P4eEqTdxzMSASjvAJDeehL/DqN15o64VMQkuop1RzNuUzXmnGey2f+pIEznYd4bcu/0tc3SLHoc2t9HYd6s3x/z3v81Ivy17ks+QMpbEPh3RGl7nNlzOh1OFwhQUh8pcDxwXQhHkEoDa6HnSinKhHjtNZBcz6lwTbBV5B3saXAVVAbNZlSHiEuoCpicKivQOepDHPqKllwQwN/0drIL0/M4Mm/f5NjR50gOB0S8gkkVAhXAUNKYlEDJaJYlonneWgvqEQ2TBMpAkUglKJYdFDKx9cj3Z/xpKR2wgxqxtdSzA0xblyGcYkoJ9IZkhPHUxYvEo9VMWNqFsOyGFcf43p7ApYFU2si9A2l6R3yycYiCHWGcXGDWbOmELneQgkTz8vy6U9fC8ojavtEZ1aQz3oM5YtY5nh2/fo4Z3IxKhNxEmUJPMOi4DhI49IEYR2C40j6LRNjaj3jTYN3939A9p/38otIhBvqykiaJvg+/YMFDh46ygcVJv9p2Txuvb4G71QvfadOMf5QP8aRwNU2ZepEIl6cHIIjJ42RbUFHsohqq/jsV1qJl1l4/Q7xuMWQG4WhIhQdKO3LUPAUea3x3cL/y979h0dR54m+f1dVd3XSSYdAGtCOKC0uzbBD0CM5zBLXkeh2NncAACAASURBVAx7CMwO0XMgzgzoXSMz8uMeknEFfa7ozEC8R8LMnMB9+KEL8RwkPGPgrkaPAnedwDKGu25wkGaGoRk1KNIqdCCkkk66un7cP6oT8hMQcIJzv6/nyfOkq6uqqyqd7+f7+8u4YenEdQPJttE/OUvdB2eo3/07JJL8dV4mnzY1k5QznYAiCF9DYgjNEFBVN74sH4rbTSKRwDBNZEXBpSjIEhgJHTNpkJaRRrrXi5rmJt2r4k1Pc34yvSQklVMdEqfbXZyOdkIizuiRbu4IuckZ6eXs5zGys1ykeWTaWs7jlm2SZgfn286DlEWnIaPrSUZld2DpGoaewLAtPJKBaaooioQvzYNtSChSOllpMsFRKrMLb+OOMQluHp0NhkFHywVcZhJfhhd5gJHkV0JKmrzU3MmOqEbkwzN8rHWS6NCx4wmsljbiSYOWjk7e/egMRsJEmnArr7/7Ic//t39m6dq9nE/3YPzdJBJmEjuW4IsjcMff5ZNU3IBEZ6pbr7NSjol9ey72tIloHg+SDRcsi3bdTEVcGxQZLJuWpI1p2UTbDDIVmQ/Parz/eTstusUrL7+Dqic5mYTYeYMXNh1Fz/SjZHlFCUH42hIlhCGgyAoul7O4PbILtySRmeWjvVXDAixZpiORgDaJjGFZeKR0NC1OUteRTAPLSHLkj38i95Zb8STPM+ZWF/FkJ0bCRvWoyK5OFK+ELKWjmLqz7KVl41YyyBomce5CjLaWOEn9OJ7gcJKGic+bg2UmSJo26apEUrLptEw6ki5sxaSjQ8Wly8RiBpI7mxHpbUiGguTxonV08ln0czSt7aqex287DToNEzqSENcxtAQuWQJkJBk6M7z82+9PYds26rB0/nBWI3nsU5Ak3o+eY/v4m8gf6SOQMGj6LA3PubHEFbAlp7Nupi8d370T+SwSxQ4GYFwu6BaWYWHLEm5JQvIo2PEkkFqVxwVYFrpp8bdjhrPvlXeY8Z/ysL1ufhM5i21YHDr0IWc/b2XYX48hNmI4t4zJoTOegLQhWQlcEK6ZCAhDwLYtXC6FzngcW5KRVDcuWSGhJ+js6ERRFGRFId7RSaeeJDtnBMNzRnAu1kxHohMsZ53gNPVzJgRUPD6JjgvnceEhabpRFA+yS8Wb6UF1ZzqL7tg2IHMh0crnZ5JIkkRHR4J/PfQJcSPhrNpmO+sNdCYzkSQJw3ImdFMkE0gjy6ty4pMYbvdtGFYUy+og2WYwfMQYzjSfx7avrqrkjGWC7YzAttPTsE2wuqpdbBg+JoczJ88w8W/GkzHxNv6f1xudPj+p0ci7f3+avZKMYqsUT7yNkCzhlsGWFeeGLJsvPj2PPWkcjBwBugFeN6bknEORwQ2YsoSpyCBL2G4XXgV0G9o6O5g49a+w0twcisQYlZFOdq6Pz459ipWmouT4sEdk09xwjJv+ZgKKKv6thK8n8c0dAoZlke5241ZVOjo6ychIx63IWJbljDWwbVyp+vikrnP+iy+Q/TncOvZWzseaOX/uPBZJEh0d2MpoDp/oBGsUiiSTMCQMWcWybZIGuOQESVvBsi0kOR3LzsHtTsMccQsX2uNorTqqamPYHpKmiaJ3YFkGFhLxRCeGLWGaJorRyojsLEyzE1lvYcLt6SS1FpKeEZz94lN8Pi9K16IFX5LL7UJWXFiq5FTXSDaGYToBwoKP//Q53ltG8of3P8b46CyMGYXkcsGnZyGQQ+epZmhp4/5/mI43w0MSCbcs4fJ5sEYNpy1nOPZNfmdAg54EVYHMNFSXgg14JKcHkS05XXudtTIVMhQJjyTT2qbj8qXTYUqU/Zdp+OUEU79l8sTP/pUzh1twedOQkzaZ37gFj1shM919/b4sgvBnJALCEDAMEz1p4klzg2WRme6s0+lWVVxuN7ZtYxomsiThVhRMQ6cl1oxlmIy8+WbS0tOInY1hWAZnO6HDSKe90wkCuEFKSiTRwTBIGjqWZZDQdUwjhmkkMZIm2SNH0tp+gUSrhipJeBQLW4YRqook2UguiUwJFMWNrZjYbgnMOJIrA8lUGK5m8pmp8ennZ4lbaSieNBTpKgOCopDpVWk1bZxiigQetzPdtAUXPo4hjc5Guv1miDZjfxh1Gm7H3Qy6iXnqLLLqJtOjoFugWxaSpJA+OovOv8tHcsmp0oQJLgk7U0V2yXR0JslyOe0Llplab8I0kRQZJZHkvO5MqfHRZxdoi57nNw1/4pvfyOWxrE7iGZ20nonjuiMXbyAH17FPSbtlBHHTptMQjcrC15MICEPAMC0sFLxpHkwjicfjRjcsZJfTBdXEREnlXrFtEkkdyzC50NZO4tNPyRo2jJtGj+ZCyzk++eRjRo4cSbytBaO9neHpJpkZaeT4fHwcO4siqaS5JSy9A0nyOjlvlwSmQWa6DyveiZJoJz09kxFZMh630/iaMCzakxamlQRDIWEYuDwKisumVdPZf/hTVDUDzUgyYngW48bdhke9upyxbtskJZBkCSsVVGRZxupKV70erDMXkM5eAMtGGubFNi34+Iwz65ztTGb3b4c/JkNVmDkrDwOwJBky05z5P0wTXDa2R4V0FSvpzJt0i9dFuEV3VqJTXQxLV7FUmVtcEDcsFNvmt7v+nZZTMSzVzZGmz/nDf7mTxKcmSTODCXffzq0emcmjM1j4jWFoCZNRV7lynCAMNdHLaChYNh16Arcik6YoqC6Fto52zEQCwzAwDZOkrqN3dGKYJi6XC8O2aW9vo+V8C9HTUWKxGL4RObhdLtpaW3CnZYLbjX/UTbhdEonOBGluN5Zl0t6uI8sqipVAlU3cVhJXMoFXspE9bgxVpa0jQSzWwunPWzh9VuPz5gStrQbn2m3OtnWimxZGMsmwTC9yWhpxS0aXLIZlqkimzicfNaHr+lU9jg5ZQrfAau+kq3+o3SNNtRNJ6Eg6XXO71kCQcEoJllOisHWDyL6jxDuSWHZqVTPFaSC2XTK224XtdUYh43KWF7IVhTbTpt2wMQFLkugwTdo++JzI/32QO7LScMsSzWc1zLjOzbeMIPAfx/ORK4PvPFTI+L/9BrekKyRNk2+OH0Wr6uZIeyftupjcTvh6EiWEIWAaBp0tLWSN9pOUZQzTou2CRkc8jmEkAZwpFgC34nIGf1m2Mx7BNDBNg1ZDx0gkuGXMLbi86SQNAzPp40+fNCNLSdwuA8XSSdhuXO40Oo0koOByy9jJJCoG3vR0zpyPYbhVpIROp5xJ0kg6PTRNCUlWwE4iY9HZ3omSmcHwzDTs0X4++Ogk6YbFmJtHMmx4Dmdj5/BeZe8a3ZZI4tQUkao1oue8SF3rhuqmM1d2V9HBAmQ71SBuIQ3zcXv+OGzbwkbuakcHSQGPyzmu03CijeGsRPdxW9IJBrKEnTDQO5NISQPlFj9uycKjKOBW+PvFM/EHstl77DPe2vIbDjQ1YxkGJz78jLsXfJsPvCo7Iy386dBHfOvOFph0VY9CEIaUCAhDwLIs2uIJcpI6blXFtk3M1AR3sqw4xTb5YuHNSCbBspBS01e4FQVs0HWd059GuenmAJ5ML94sH5Zlop2P4UkmUFxuJMnCNpO4JAPb7aU9YWBZMm2mjBuQFZWMZJyMbC9tCQnLAMswsEwTSbJxuxWm3PlNgrflkunL4uNTn6KoGdxxx3hOnPgAiwS33R7kQnsHXOXAtK7SgO1Nc6qArNRYgBRp5DDsU81g2di25Iw07lpVh1Qj8JhR2IV3MXJUFigyCTu1spzqdvZ1S6CD0/0I0A0M08Kw7O6ZZLEBl4KdncXM+8YzKsvL4bPnsA2L1//XYcjJAq2drIIJdObmYLS2kzblr8jK9BBwy5g+D6d6rOImCF83IiAMAUmSkGUZSXZ6w3QkkqSnp2NaTrWMmpZGz1poy7KwDIOkaeCSnJHOsiwjIZHo7EDXE3gVH0nLIHNENh4XmB3tdKCQJklMGDeWv/vO39ByoZ3fHT3OiQ8/pkNrwTCTKIpMuqkw495p/K/f/o5WrR070YlhWSQs8Htk/njsj8Q+ayJhu/Hl5HBzdhaREydIS8/moz/9kebYPrJHDicjI+MqH4icagtIvba7EvzU25bVXUiQZJyqIikVMNwK0l+NwQrmgteDS3aeb7JrnFmq0dgpdcjgVcGwQFGwJQkTiTRFQnHLGLLsnNulcOTTVjoNC48sISkyVuQUZHiQc3xMKvkb/tCmkzF6GHf7vdw5PA06k4zP8hCbcBPpWelX9xwEYYiJgDAEXC6FkaOGY0kqhm2ADL5hWciKjJ5M4lZV3IoLxe1CkiRU1Y0sy7hIVavIaqoqREJ1O+snqJILSzHxmO3cfMdYfv/hKdJlmWTS5PcnPqTtwnkM4NyFdjoSOh2WhK4nkGUVbxpkqi5atQu4XW4kSYJEB8OHefFlj+DChVasznQUycJuiTPCNwIr0cG0gnzSlAR2op0JEybgkq+hSaqrvshZVBknZefi6663U80HWDb4h8Ff3YKdkw0eN4pl4ZYkZ8ps23bWWJClVGSQnMTeNOmaB8SynZXn2k0bo8O8+FmWxamWBKNu9hFUXc6HWjbpaW5KZk9GylRZkAVTR5v4b0rikkzqf6/wH8Z6+K8z7iLjphHX8O0QhKEjAsIQyMzOxp87BtO0ME0TlyyR5naTsJzqBpfiBmySZpJEQk/ljm2kZBI90UlSv0CnYWMnk1imjSxJDBuejcvjJsfj4rZbb+Xff/9HvFkj8EguZNni09g5EnoSxZWOmjmMM6dOk5mexOP2MHyYSnvCJN2TTqZPJZHoxJuZhtejMtyfg8vtBkWmvb2d9ngn2ZkuAn99B8OyhjFu7G2YhsHI3FvoSCSv/qGkFsgBG8kwcUYMAybIWen4Atnoskxn9JyTyPuHQeg2yMpwqqoUZ+EgNdXD1EZyZjZ1Tu60H1gWJFNRxbYxkLAAw3aWzOza7gQgiU7DxkjD6dGUrjIsdwTB0cP5xLKZlC4zyt1BeqvFWcnilk6D4efixE7opI8WvYyErycREIaAbRq4AK9HIWnKGDYkkjoX2trROzpJGgaGkWpAThq0tcdRUmsNk0ykZj2VUwPBbEaMHEmmNw1ZkvBmefng40/p6OjEktrweb3c7B+JnJbGsT9GkFxuWrQ2Ep0daK0KgZtUfFnDOR9Pkq7IjB45nJa2OC3N53C5FJKd7cQ72mi5EEeWJBRfBqblYtJf/zUHjn3C/t8eYPrEIHruTXR0tF/jg+nqYSQhpXoIYVr4OxI8NznI82cu8IHWgRS8GXvszaCqTjBwKeByYckSnRZ4kbCwUJRURLHsiz8yYODMgipJ6EjoXXMddf0ASBLpLhndtMHtQr5tFGfzxvHfkxKTLYnlZy3Gnk9n2og09v/xMz48/BH/4Y4RvP3/7mV79SzuyQ9e27MQhCEgAsIQaG9r50LsC266OYCpuOlsv8C52DnOnjlLUteRZRnbNFINyUBqcRzbdiZbU5BQsHC53Phy/KheH+eam7kpcAudpHPyo5Mk2hKkeRK4pTROf/wRWdk5BEaPpC1pobe0kObxYCQTpKsq3wjdwXsnTnIudo5MN2T4RpCRexO+NBe6LXP8jx8gu9OQJJNEh00i3oY/MJrYO/9Oovk8GZ7byfamkT0s+9ofTnei7KwnTdKi2bT4SeQT2kwZ+ZtjsUb5ncZiSFUvOV1JbSBh0Z2oK6lnR1cJwOxqiICuAXA2NsnUy4sNFU5DdXvSRPLISMGbsLIysTMzicsycSRaJIU0t4tt5wz+9Fk7WtM5jmVm4vJm0IkoIQhfTyIgDAFJkmjX2tC8F5C8Pk6d/AQXNh4X2AkLKXmxP7+qurFtCz1hYNk2CuCSZVTVw5gxAdo6dM6dOcPoUTlIkoqleujU40iqhaq4kCwDrARZ6TaT757MgcajqKNHk+ZJp721GRQ3p744T+yLZobnjCAzM4eMrDTOxFro6OgkmbRAceFWLCzLpr3TQm+L43V3EMjO4s6S7/If/2YyX7RJeFTP1T2QroT44gbARlKcqaoNrZP2wAgYnYPlywS3y6k2kiRwydiqy+kd1GnQbliA7VQZdbVJWF1zOdmQNKG1HSmhY2WpJLvaFy4uWu1ULbkkbk5341EkXHePI6ElwKsiuRQsYLwvjQ/iOlm2Tbw9gfVFC/ao4Zhp6SRFLyPha0oEhCGguF10JjowTYP2CxdIdibwqBIZHg8kdSxDRpJl0tPTUFxukhKkGQay7Kw5PHxEDlnDfLS2XqBZayHD68WbkY7bZToDztQ0lBEjyfKm4/P6yLppJB1tGv/y9n6SKBi2QmZGBl6P35m6X/Fwy80jMG8aQVpmDtHPP6elrY3ms+fAskhzu3C5FCTZjSLLuFQ3bpeHGf9pFqebjvPCtjcI/+E4Tzy+jLFjb/3yD6QrF59KjCXTBrcbafRwJMNEGpmFPXKE0y3V7bQXOD9SqnSgOCUFha4wgNXdndR2SgZGKiB06MhHP8A+14o9ZjiWldqeaqTHskCW+Gaujzt8blqTJuNH+fg0M53RXjfDXDI3qRL5/nTsLyxmjckmepuP2ttsPvljG8bom8El/q2EryepPa73ys6keVzIVzlJmXBl/njiQyzTIC0tDdOCZFJPtQc4E8l19b90Vktzcq9Oj3sJy7bwqB4syyKZTGJho0gy7tSMqc4spnFkRUZGRlYULNPAMq3UkvMShmmhKIqzcpsko7pd2HZqYj0L4p2dzgA5y0aSQJYl5NS5ATK9aYwemUNrR5ILLedob4unGnIh75vf+NLP4+DJj51ferQBY9pI8Y6L3UUVGVuSU1VKqX171vuntvvTXHgUZ6RyLGE4JYDuEgJgWkhaHNswcY8cRk6GSqdl09JppPZzdhvmdeFCctansJ3pNTyyhAQoQIZbJm5YjPSqyDKcTsY5fyaBJTkrrk0LjfvSz0EQhpoICIIgCAIg5jISBEEQUkRAEARBEAAREARBEIQUERAEQRAEQAQEQRAEIUUEBEEQBAEQAUEQBEFIEQFBEARBAERAEARBEFJEQBAEQRAAERAEQRCElK8wIOhE32+k8aT2pY/UPmyk8WgU/bJ76kSPNtL4oTb4Nj1K+N1Gmlr6HnqJs7c00fhuE5qp03wyQjT+pW/hypg6unkdzhNtYPuuepq+/KPupkfDzj1f2d5EjzYSjl7+LzSglibCV/G9cP4uYfp/rEbTob7fgyE26LVeocG+t5c/kOZjN8CzuNb7F4bENc/TG942nzVv99xSwJNblpAXfY2VCyvhkUqY4nPe8uYyeVIAtefup+rZ+ObxXueMvlvNnqN5FC2cQqDHdv+3HqLkTl+PLRqN/7SY1YF1HHyqIHXePttaGtm6dDW56w+yYlrqk6N1LJ6zBpbXsOnBAVa2OlnH4qU66w6Wo/7zchafWcK+54vw9d/zGjRT/+z3WNlcTs2GEoJKauvbq1m27XiffVPPVO13EoiHqVpWxna1BF/AR0zp8/5Az3wA2qGtLF6Vy7qDKyi43M6pZ1xbsJOagZ7fZUReLaP01UI2Pe2nasPuQfYK8tDzFRT1/AKcrGPx0kZW7KqhZGzPfX3o769m8Zv3U/NqKaF+52qmbtlMVh8LEgqoEI8SOQnBic5ziZ2MoGWGCPqBWBORM/df4XO4xD3uKmNxw/3UvJB3dScY6Ht7RVQSxzax+Pk8qg+Vc7lP7///O7Dg99dSMbvHH+Poduav3T3IPjoNm+dTtksntPzqviPC0Lj2idtbIkTuqGTvsnxOv1pK6eFc/IkwVU9Uok1fwHTlOI2H2zj6ai1Hplayt2/i1BymekuU8g3zuv+RIyer2WPmcc9d+eQ4O9GwYSV1w2f1CQg9aYR3vcw7sTYiJ4GTtVRtPkKmFqEJaNpVRWY4kwnfXULhmGLWbWtm0aJ5zPuimppleYMkmCr5peUUzVnDzmNFlE685qfVQw6FT9dQvnI+8x6MUr2tnDwvEI8ROTaByrfKyVeB8CamP942cM493kTtykXUZhdTOiWT0+FGTne9Z0ZpeGkPTfdW8MavAqnnmKJraH1KPbEOHWhFi2lo3t7veXw+1L6BZiCmjqYl+mz04Mvu8XT1MLtfjZL3wCwme3YTOQYLniunoOdiay0NVD3dSOtlcpfRfRt5LdL1wg+ntrDmuU6mpG62XwZiRjkvPVWA+n4VUxbqlG9ZQYHqBIvaggpqHgzS/HoZM1ddwb32MFAQj52MAq+wauFvBjlqgICn686yoJfSZ58BE/R4FAhTNreRQJ+/Zb/MRUuECOVUry9m4GQ7yu6n5lPX9+9q9vieGg2smbMR/yi/c4nvb6TqrXyWLM/ltbVV1E1fR/GoS9+WcGO4Pit5qB582TpNh5vIDyWo/ckiam9dQc3PSwh6QT9YyX07ini2rHCQXLZGaxzo+eX9QqMVeidkPTiJQc/Ev4nQxHzyxzSjH6ylIZDP9LtC0KLT8EoDuVOmkz8OPIoOqKgTS9n8UibLn9nD7tBxTjfFepw8DMSoXZfJER/4Z8+i80A90YmFvUos18wbpGTtLjw/38jxz3TyxqkkTB0m5pKb7cOnAlkqDFR5dqaBqvLl1J7xgB4j96fPUDwm9V68idpVpTTdu4KXfl7U7xk2H6jqXwqJNQEetj61iJd7vZFLyXOVzrm7E/wYCR30uIbWkgpVqg/fiY1MX7i9z6eV9Mpta/u2s72liIo5IdRTTg4zEMonv2eO/0wUP40XX+tRwodPk/gwCsSIHGqkUctFP1pN9aEFVCwtIOeufPK/23VAhJ1Lq2jom4F4axWPHPOnEswEq/7hCH4XxE5C87EVzH9TTT2H3P7P+xJ8E4spX1rUdbE0vbmKypNFrFg7WCLr8PdKrDXqfz6dqjHV7Fo0WAalmbonZrL9jh6ZmJYIkUA5mx7oXy7qd3RDFSt3DJS5UPFl+3r/b5rNRA59BMFcPIPGKA+ebB+ew2HqA4Wsm6hCPMzGiloCS2tY8GAuk07PZfGTteRtuVgKFm5c129pp1O/oe5gAXkTG6g74Wfy7Bi7t20Emjm0ow79liI+2rmRjf57eGhu3sUv39hiNm2I9T/faB9Z3S9yKFi6iQK/v3uL79Z88r29E39/KJ9gdjPRGiA7yOSp+ahnovgB/9jJ5E/t/c1Wx5Wwbgdo79fyclNqY8tR6t4KA3n4UhepZjuJsubEkutLCVC8qsL5PR6mtqaR4L2LCfb6nISzMHzXtuZ6Vs5dSfSHa9n1cAEcXM3y+dNpWLaZxWMaqHx6C62zn2XXoqIBcoiQM+MZamb03ubkjHNTueZBrvVYLYtS1QSxk6B9soZF+5wql+bZ6zhYBL0CQCon3i3ewKbn6mHsCkI5wKkrfEaJGMcPNxKLxgAPsaZGGuN6KtkOEJqa3yfh9dAAF0tL5FC8/hDFPXd5v4opC3dzz1MVFI2hN/8Ep3R2hdRAHvldOYUze9i+v5mCRY9y/9TglX9d9DCH9qrcs37CoMdob/931rxfwJNP9QkYXd/1rtfN9az+yVZyHn+JJXde3LP5Cz8DayP61kpKd+ZR3ZVwR+pYvvQdFuyq4NILo+ocOfAa/hmbmUyYqodLnczgA8695y+qoHThIuYt1Nm5ZYEICje46xYQmt7dQ3haMRU/KmbJnDBHTl0sYubf5eSeIq8upuqgn1k9AkL08G4aI73PFf0COBbmncNqnxy5Ru44J5fuG5dP/rg+ib+po7WoFK7aRyGQaNFIqIVUvF0IJNDiKj4vfapMPPjuLGHJnanP3lVKNQB+AqNv5zsziwgNkKhemzDbH15DVw1s8PtrqZjaROV/Xc5rty7hpYd7/MMHJlCYvZKye+voTmxzCqnYsx+8qb2mP8laPcEjz85nHpBz7zNs/t+LCFzv4DVpATXbFgARqufM5zfzK6h5MMupn7/swTrhLVXU9mugj1A5dwqV/fYPUdD1qy+PkkV58H4V1W81UjBvCSVjIbz+Gu+nK7j0zY/cmsXkcaEvH/vNKHXPr6IhDr5/XskjewbaaYCqIoBjjbzGPTw7cZBPbalnzap68pfVMKvHsf5JpZR2+J0OCqhO1Z6pETsWwdPzWZs63FpA6cIs+oeFTAJT7iHv+ZWsfCWfmh8GiRx8jeikBeSP8RC+1D3H6tn5ygTuf66JNQ+vpl4N4T9QybxpPf+ieeTduZF5M5tYt+uZ3tWDwg3lOgWECA1vhskpeJKAohNt7luPPLjY0Wqqo72LvP3bEC4WdyeXFg6c0GlNRE+FWfPwGo6PD6aqAi42FurRCE0znIZmravKJB4lcnLWxRxtvIHt649TNLuQPW8liPx2FdsjPvZ3N1hfL0EKlpYTSrWNNGoJyMlnwYrNLBif1ztXP6qIyreL+p1B12NOz5qD9bz8VgP6uCIe/dVOZgVj7P6nTSyasRp9VCGzvl/I9Il5TBjjx+dTndLQv/UvkbWdaAKauqvJepvA/Yt6VpclaI1+uTtufms5i7YFKJjWRENXz5k7yzl0qNz5/f0qpiwcqMF4ELpOAuDYHrZujvXJOEQHSMR6B2Gn2kgj/G4DsV4Bv4AnS68iGKAT3lDG6gM6EGLxLwa4jzN1lM2uHaBtRKfxX2phdsXFxLKlmSYgevI0TPVQt2ol9fc9yxsP9C51BKYvYQk64fVzKT1Wws71C1KlpRD+Hglv5KW5zD9Uws71RX1Knymjili7/jjzF86nMr2c2OYoBU/fQ1DhkgEh9m499Uxg3tQJ5GibWPJAPjkKvQMUgNlM45uN+K93JkW4rq5TQAhR9P1CNj69m8ZHlnzJGlhA9ZMbmtBdatBzgKYsAqEJ3VUB0ZNZgxwMvLWc+3Z5KHl6MRDk0f+zhpKxvRsLw+unUJrKMXVXmfSp0oi8UkXtnUvYOSPGnrd0SpbNgofLWHnXPipnXs8+Rj6CU/MJ4pRwnNpyldiBUkoXDnZMV1WMxp6nprMqHGLylHymFzzK5h+tJZjT9Z8WxJG7XQAAIABJREFUZMGqfBaYOs2njvDOgQbqNrzMSvM7rP9V6YBtIG1H66h9txmAhlca8D1SQKBX0b5PdZmuoQOTx+TCFXZUxfBx/3NLKIjMoeEQ/Ru2W3VAp61FQ+vZ1dKbakvpFmHP2sVsejfIrLnAxN4Zhy75G4rB3zsvHDsWgWXVbJ4zSM3+pRrwL8XUaNxQyuJdKguWlxJZu6//fQC0JAbuSt38DnVv+Cn51T0XS87hd4gC7NxH5MFiAvc9S82MIiex7evMbrZui1H03CyCKugfRGgggudUAiaqEG+gbluUgp8UDhwMUtQ7y6lY2sD85yohsIBNMwNA8yVv3T9zMSten8fqV4t5fa6fhrfD5M30UffgPBof3su6OTlwspb5c/cxa9c68q97aVu4nq5blZF/ejEllLHv7WKKvkSR0D+plNLIR7z264+6t0WPAR1H2PPrTjK7t06idOHtqeKuRnjXJrb/ejf1J4EZS3jp8QWEqKPsKq9fP7qRlRtgwZYSgmx0NgaKePap3Xzv6dXsmVr5pe7rauQt3McmdT6LD5VQ84viVOKtE67+IWUnQ6n6Vx9Fzx+iKNWVcs26Rqe7JKlSkJ5DaGxqQ3cJqIaKroSgR/WYs08jVd/fR8G9fhoO5FI0+x3CnmepWHiJRsroaY4QYtboK8/u5cypYAUQTlUPxg5UsbKrYTvWROSMk1RuXDidl8eGuktJuXPXUnlvjNrqWva8XQ8E8E0pZvNPi0j8upZaJUDe1PwrbuyPbFvNorcHue54FJh1xffk0An/UymLd/ko/dValtz6DmVrExz5l5fp7JuH0CI92jV6yCmk4kDhxddmhD3bjlP07DNk/WI1uw+XUj6nfynR0cye59fQeG85NdNzAJ3GA68BUP9qPdGZxWivVFE7agHVMwd5Sgrd7QShqbMIbNhINNuP/9KNBw5XkPsXlVC1tI6GgrFsfXo79wRfp6AoQNXBRrQ5RejHGoh4g5Rf9zpM4Xq7fo3K6gRC02D7HxoY621lgGZiGFtK6cRceub1A9OXsGR6792iIQicmsyDDxdczPn165IXoGB5BXkvlVGVHSQ4CjgDEGFP9UZiAacHUkTbysbzAaKHYYAO6o5T9az5eTU8XO00wr1/8a2cmeWU75zHys0NFF73qqM+vD7y//MSCnasou5YidP//GQtW3dkUbKhsE+u3RH83yq6+3mH10+h9NCjVGwrcUpWfRt1+zKj1K0so+Fv11ER2k7DAT+zSp9Fe/gRKifuH7T/u/ZBmIh3MktuvrgtFLz8WIee/F2lNDNK3fL51E/Ip+FAjIJ7dRpHLXG6h3btfCZM1JXPowt0yn51moLpRYRGadR/AYRyB6gTH1zoR5WD94u/3PMakErevAqqiwLkjfWlvoO+7naOXs7UEXml9rJnbNq1ho1jl7BzRjFZ1DPz8SoK95WTN8DfXz+2m9pwPuUv3O/k/k9sp2pXLiXLpnN8/Rq2H5hA3hdBFjz+kNOtuZdmoie5+AzjYaqe3Ujs3gIKDlSxelcB1Q86/62RT2LoDNxIrk6cQiEraIzvpXhaJVsbIpROKUTdHCasF5BoaECdvY7JIh7c8K5fQDBb0Vog4VLxByaTn93Eyi2tlMyJsObNAmq2lODZt5rVYXiox2GRl+ax7INHeWneceYsbGTFrs0ED9VRfczPrPk4ReToHsq+v4rc57sSKR95cxeQRzN1NX0vJEReQT752U4PpNike8i/K8dplxjk0k8frqP+1hVULxygu58S5P6yBdT9U4TjWgF513d02kXRBhrMAgrGFPHkE7uZu2wRgQ2PEl1bifbgOh6dMvAHR/Y4AQ9wgl7POvVoGJgw8OeZzTT8qow1lFOzNJ+st1PdRQNddckzqVz/Oium9f1cnfChPXDnM0y4DsX/6JtrWGM8Ss3cmBMQHllB8Okyqg72CEijiihfBrzfxMW+Q1FOHoW8h6+8J49/YgjeXMn8N1N3Eo3QRGqwWkpo4lUE/ZwQeb3qrCJsemI+dX2fjxGjCf/FxvIB6O9XsWKDjxUvOV22+e6TPLN/LovW5rN3eQG+PkFBnbiA6rcXOC+0Rqr+j43w4DoenZ/P6fg+SlfWUfBmJeUDfn1Oc/wA5D0VRI2H2bhwEdspYd3TKwhMLWXe2tXUTlvrlB7MgQJlK1qLhqbF0FDJSvi4Z0YBq3cdoWlunhMkDhWg71UpXDtYV1rhRnJ9AkK0luVTG2gcVUR5KMbWpxsoeTZI5JiOf3M55W/OY/7aXPbPD5F4ag07//51SscDZoSGV5vIfSCIn65+8T7yl65lwcOlzjGPBznekseSpfnMX7aIsa9WU9K3m2AfTr/2VP18boj8qUE87wK9erjoNB1z+t5nTV/HvrmDn0+9s5yaDdfygC4tdngrZRvqiS2qoeCHQQJzKlh7bC5lS8tgSjk1SwsGrjsGQqmABwM0xmedpPqtAQ7Swmx/qoyN54tZ+385CU/PmmL1znLWPa9Rtmwmi5e+xLpHejSyttRTt0ulaG1hqvQWo/kkXDKVG0T0rRXM/wWUv1RCUEtV0/nyWbKqhPkL76Ny/eClFE4d4Z1oiHsmXr58oGsaCTNI8frNvbqehv9pOmXao6x9vKB3H/y4hmb4nB5p0T2sfOpl9AcqqHzgSkfchnj0p5svjgvpcmY3K35YN+hR2qGNLHq8gfyKzZSMS923EqC4YjNND5cy8+cVvPHTQdoRTu1h9U9WUn/HCqpT35ecH62j4uR8yr57mmdq1vW/nhOHqCdAoS9M5cMrqaWEdRtXUJADzH2SJTvnU/ncOzwzEYhqNL1VxqLDJbz+dNfz0qn/ldOedc/DzzJvkkrO6AJCqxqI6GtZsm0nRLczx1tI5V1fVU5KuJ6uT0AIlLD20DpUILJlDpXTHiU/kOrY7wpS8sI+vtOwiWnPZrJkToyN2+uZt6oQ9r3MlmgBT84MoZ7pMQzem8eS9dXMcuWhRmtZ83Ads3as5Zl757L62VrueankEnXGXQ2TvQdP9R5oqRPe/AiLdngomh5l5WNV5GwpJ7+rjWBsMZs2aF++cfzLSpWqmg824Fm2mfUPBqElwp5tVazZpZM/u4jW/VUsWqWy+akSQgO1YaQCHuAEvWiPfvmeBvoOamvet5plP60jOq2czasW9MnZXhSY8QzVL+VStnQ+9/3LEjb/j1LyVIi8upX6QAmbpqb+weMxTkchN7srYX6te8DX4HXyMRq3lFK1WeP+9anEr0c1nXpnOeuebWLusvs4veoN1s3uf5FNB/cQnvQdnrzjspNycHzvy7wzQB1m9BjAO73ar7rd+h0Wzg5B9DgNxyJox3bS+N0VVzw+QfX58PX9e+megXPJpka4ZgVlW1opfnodS+7tc7/ePMpf2oT6WBkzHww7ifaoi8dG3qxi5ard+BZuYteP8i8GDCVA0XOvE9hWxqIHplG//CUq5oa6SxmRA68RDRRSODXAocPlVP+ox/dBCbFgfTVTzAnkHq6HbcdpuKMJTevZ5O6neNUhKnve1NgSag6VOL/n+NmzrY7A/Zu4R3Q1/Vq4flVGAHoTR44lKPruPQSymgmwka0VmRwJQPOh11DHVFD8cAVq2O9M6ub1c8+iEqdftS+PIrZTtWQ+dT0zfbEmImNLePKWAHlPrIUPAvhMiO5dSdW/wen3Ie+ungec5pXKRfzGBRBC3ecMntKjQGowln50C6u36Ny/YTMrpkBJzUqWz5lycT6bAQUpXvUsJWOvY8HX1IgZhZRveZJZ3kZeXr6c2gMawZlLqNhVScFYH2gPUbdhDYtmVKHeu5C1Py/tVW3V9D8vVoFAiBB1rHw4lQsdIEHOCRVS/EQx3/lu3qClji6+SaVUvzqJ2n0ep/fK+1Ws3JCg5FcPkbu/kspPVFoP1LInu5jKKb7UQLNZPFnVc9qNgc7sJzguj5L1D1E+beCIFJizjl3ZtYRzfaCFqa15h+iHDUAAj7aHTRuOU/BEBaHL/jl85M1dMuCcPmG9mj3xWSxcdIlqoinl7NsC09YF8F/toKpT9Wzcp5Ebr6MRDwU9z9Pc4Iw/YRZPbqmkePwgOWlfPktefoPJ65axfPY0JiyvofoBjY33l7I9u5jyLW9QcucAz1LxkfdINXsL6tj03xYxfUOQFduqKfHtYePmKHlLZzEhO0TeU/2fkBrIc56br5gi7wo2blYpWJU/8GwD71cxpd8o9S6LmbYD+o5aF248Untct3tuSPO4kGXpik8Q3beR1zqc3FTfv3PzsUY+6s5QePCH8gheKqcQjxI5eprWXhuzyJ0U6j/itjlC4wet4Mtlcijg9HdOTXHgC+X3+xztw0aOx1MTvZlRGt6MkTcnr9eXW2/RuNQIiiue0+dqxCPsebuVUMHkHl1Ie2hpouFAE4Girq6DztxN4cCDLBgkUXUmDtT5TmnRZRNOPRrmyCnIvStv8AFt8Sb2vB0j/7v55GhNNEZi9Pr7pKa26H5OfV+T+r707TDQfa1RJv/nBRdzv900mt497nRU8N1O/sQcogf2oE25tkGDl/rudtFP7mHNE1vxPL6ZFYM9514HDPAd7Jp6A8CTy+Q7ezbAa4T3hvH/bcGAo8oHop0ME/XlEcqB5hMRGBe6bHDvvrwWPTXyHqIH6ojlFZN3Jbl3rYnwMZ3cKanP+hLfLeHr45oDgiD8JdOjYZqY0KvhWRD+UomAIAiCIABixTRBEAQhRQQEQRAEARABQRAEQUgRAUEQBEEAREAQBEEQUkRAEARBEAAREARBEIQUERAEQRAEQAQEQRAEIUUEBEEQBAEQAUEQBEFIEQFBEARBAERAEARBEFJEQBAEQRAAERAEQRCEFBEQBEEQBEAEBEEQBCFFBARBEAQBEAFBEARBSBEBQRAEQQBEQBAEQRBSREAQBEEQABEQBEEQhBQREARBEARABARBEAQhxTXUFyCAZVmYpolt20N9KcJXSFEUFEUZ6ssQhEGJgDCELMuira2NZDKJy+VCkqShviThK2LbNqZpIkkSGRkZqKo61JckCP2IgDBELMvi3LlzZGRkkJWVNdSXI/yZ6LqOpmlkZmbi8XiG+nIEoRfRhjBEWltbyczMJD09fagvRfgzUlWV7OxsNE0TVYTCDUcEhCFgGAYAaWlpQ3wlwlBQFIX09HQ6OjqG+lIEoRcREIZAMpnE7XYP9WUIQ0hVVZLJ5FBfhiD0IgLCELBtWzQg//+cJEmiyki44YiAIAiCIADXKyDo+nU5DQBaE41762g48yWPi0eo21ZH+MwVXstg12xqNL0fJhr/kp8vCILwNXft3U71RqpmL6bu3kp2PV1ITks9q3+yleOXOCT4/bVUzA4M/KYvi+ibq1l92M/Bpwq4ot7aZpS6lY+w+g/5LAkESPj67uBnwtQg3Zub61n54Aoauq6511ihGI3rStl+bw2vPxK6kk8XBEH4iyC1x/VeFZlpHhey/CXrt5sbqHysjNf8K6jZcD9+LeFsj7zM3KWHeGjbOop7pv+qD58XIEzVlFK2X/EHhVixq4aSsT02mc00/GoRZe8GWTBjbJ8A0sbRV2tp9JVSvWMJeT3fPLWH1T9ZSZ2vnJ1bFhDsERS0vSuY/nSATe+Wk/8VDCyNx53ih9fr/dLHRqNRfve73xGNRjlx4gTjx48nFArx7W9/+3pfpvAVMgyDtrY2srOzh/pSBKHb9QkIAPEw1euPU7C0hFAqK978VhkzNwep3lXeOzEeQHRXKXOez6P6UDl53Vt1Gp6fxvJ4JXtXFdIv469FqH1uEZWHwNfip3hzNeVTUnuZzTSsW8byg5NZu3EFBaMGueaf1hOakcXGmt9c3G7EaPoUgmP9PXYu4MktSy57H1fiagPCiy++yI4dO/je977H3Xffjc/nIxqN8t577/Hee+/xj//4j9x3333XfoGXo0fYU90Af7eAUNMWdmv38NADef3/PsKgREAQbkTXLyB0a6b+uWVsjUDsZIRmNUgooAI60WNNBJbvpObBYP/DztRRNns1wS2HKL8ztU1vpHJGGa0/30vF9D7JjR6h+h/ms3vCCp5ZWsKEL7ZTtmwjrbPXUlEUY3vFGupvXcK65QvIy+nzWfEIe36rUjgz6JQoTB2tq1QDEN7E9MePUP7SZorHXNzs8flQr0OJ4csGBE3TeOyxx7j77rv58Y9/jM/XP+mNRqM88cQT3Hffffz4xz++9An73m+X7pKbQ49GOHKqFcgi964Qga5g+H4V057VWLuthMjDj3Bk0Rusm933IQuXIgKCcCO6tjaEo9uZv3Z36kWQh56voCiQQ+HTNRQSoXrOfH7z/Upqfhikq3qosftgnejRI5zubrxN4M+B3W/WUpBwAoZ+dDu18QmUmsdpfLdrv1R7gBqi9H8cZIGiOol0zgIqfqGzfGEZ83YA4xewaaBgAOifHaF+bSWr9j7DrrXFBBQVX3aPrH+W87vq8+G7Af5ff/nLX142oQ8EArzwwgs89thjjB8//tIlhebdrJxdh2/hFHq15Pjv4aG5Tk4/+noZc7d5WPBwAVnvVlG2VGfhjp2UjofwgVr8U9eS13KEjS35PDRFBANB+EtwbQFhYgmb1xfDmd2s+GEdrTqga2hxoPkIR6IQzPGgtWiAhg7ocQ1N0/H5EsQijTTGLp4u54FSionReLhrY4jShcAHjT0Cye1k3RUkpIKe0Dj9YSON9e+w5609HFcLKHm2mopveQj/eiuVD07htJpH4ZxiZn0rjwljc8nJVlHHlVD5Si6Vj5UxZxm8vqGYQZq4h9x7771HNBrlZz/7Wa/tb7zxBt/73vd6bfP5fPziF7/gscceu3RAiDbRQIDK+UsoHKie51QtK1dpLNy2ltKJKsyZRdAzjbLNeyj+VT4J/wKWFOVDy2kKlj46cHWcIAhfO9enyuhMHWWzaynYVcN3wmXMXNVw6f0nrmDnthK6Ko50TSNhXu5DPL1y8ZEtc5j/aw+hu/KZ9bcF5N+VT2hMnwp+U0eLNtHw7m8Iv9tA4x+CPPpyBUVdGdrmCOF4kLwxau9rCG9i+uONLNlSzbyuBuw+1SnX4stUGf3sZz/j7rvv7pf4T5kyhfHjx/PCCy/0q0L62c9+xn333TdoUNAPVjLteT81r5YS1DQSfe4t8tIc5h9+lL3rixF5/6+GqDISbkTXfbbTnDnrODTnyxzRzO6nZ7L6WFdbwwBiTUTO3M+6gysoSO0SWvg6hxZCeP0UStc3Xjw21kTkjIfgxIDTPmDEaDrhp3xXDSvG9jlvth/PFzF00+Ncw8Heb29cOJ2NXS/mrrvybrDX0YkTJ/jHf/zHQd+bM2cOL7zwAuPHj+/efvfdd3PixIlBA4IWOw3R3Sx7cDd+r4oejXB61ALWbiynIFvj9AdRAmM06h6fx+7PVVo/jaBPWkH1+pJevbEEQfjL8pVMf9389mqWbRtkJMKYh1j7XFH/KpoZ5bw0SILb/HoZM1dd4gN7HOvsm0v5llTwSJVeBqIf2sojS0/z5OvrKF5/iOKuN96vYsrCxv5dXIfAiRMnBmxE7qJpGj/84Q/ZsWNHd1AIBALs379/0GNadQhNncVDT62gaAxgRqn9yRzK1uax77nJaBpE99Zx+vl17JwRgHiE6qXzmfesn33PDdDbSxCEvwjXPSA0HQqjx2NEjk2g8q1y8nuk8NG9K5j/ZisD9G+Bg7VUbT5C5gBvtZ1oAnIH/9Aexzr7NlG7LpMjPkCL0AQU9DtIo/7VWvQZFRTeqA0IQGbmQE+ktx//+Me9SgjgBIXBBOeuo2Zujw1KgO/MKKBy1SHCP52MxwVMmsejM1Ln8IYonlfAxmcbaHyqcOB2B0EQvvauY0CIcai6jKr9fpY8AuDBk+3D1yMg+NMvUeEypZhHv58/YAkhuvcotQcu8dET85l+lzOquDneQC255N+bTwigRafhlVj/Y07tpvZtlaK1BTd0jrer+qdvgg9OsOhqL+hp//79A+7vSPXu8k4gf1yfOw8AiRyCkwJw2EO/5VuuUxuKIAg3puszl5EBOs3UH/RQvqWcwhyAVrSYhtZy8SfWcYl5hgx94JLDlcgOMnlqPvlT88m/ww/4Cd6Ven1XEH+/A3TCr24nPGkhD029kcMB3HfffezYsaPf9m9/+9u8+OKL/YKBpmn867/+K3ffffcgZ1QhsonFj2yioavLbzzMy9saCE4rIM8HoYL7CR7cSt2x1PtmlN/saSA4u5D8G/txCYJwDa5PCaFDgxnlVD++gLxR0HwcoIGtTy3i5Z77xZrAP33gcxzcyvKTLw/8XqwJGGAwW5e3q3jkWHfzL6GJMTYunO80CBsxmvD3rjI6s5ut26IUPF1EyJtqmN7W/7SVc6dQ2eN1yfqDrJj2521W/t73vseLL77Ie++91yuR/+Uvfzng/i+++CLf/va3L1llFHiggsrIcpYXzSQ41o8ejeKbtoKKZanS0vhS1j1/muWLpvHKLUGyzjShTu3xviAIf5na47rd88c0LftatR5+xd6wabd9PDHA9v/5jh3rvdU+snODveHN43af3S97Ptu27dP1lz7Wbj1iv7LpZfudL/psbjpif3T+Su7m+mtvb7fb29uveP9IJGL//d//vX3o0KFL7vfCCy/YP/jBD678QhKtduv5Vrt1sEsxEs77rYM+XeEqJZNJ+/z5IfoCCsIgvoKpK4TLuZq5jLq6n06ZMoUf/OAH3W0Emqbxu9/9jh07dnS3KVyqV5JwYxDjEIQbkQgIQ+BaZjt944032L9/P++99x5tbW3cfPPN3QPXBm83EG40IiAINyIREIbAtQQE4S+DCAjCjUgsoSkIgiAAIiAIgiAIKSIgDAFFUTDNy87mJ/wFM00TWRb/fsKNRXwjh4CqqiQSCWzbvvzOwl+kzs5OPJ5+Y8EFYUiJgDAEJEkiPT0dTdOG+lKEIdDR0YFt2yIgCDccERCGSEZGBpIkcf78eXRdF6WFv3C2bZNMJmltbaWzs5OsrKyhviRB6Ed0Ox1iuq7T0dGBYRhDfSnCV8i2bVwuF2lpaaSlpQ315QjCgL6S9RCEK6eqKqr65152RxAEoT9RZSQIgiAAIiAIgiAIKSIgCIIgCIAICIIgCEKKCAiCIAgCIAKCIAiCkCICgiAIggCIgCAIgiCkiIAgCIIgACIgCIIgCCkiIAiCIAiACAiCIAhCiggIgiAIAiACgiAIgpAiAoIgCIIAiIAgCIIgpIiAIAiCIAAiIAiCIAgpIiAIgiAIgAgIgiAIQooICIIgCAIgAoIgCIKQ8pUEBO39eva824QGgE70ZPNX8TFXTG/R0PQBtkfD1B1o+vNfkCAIwg3IdV3OcqaOsrl15G/ezIKJKtHDVazct4CdU4N4Pqxl5SNVaHOrqVmWh9p9kE706BFOx3ufyh/y0LBsDbsH/KACntyyhDwVMHU0LdH7ba8Pn9r3mDAbZ5TSuHwnNQ8G+1x3PdsfryWyfj8rpiUI73qZd2ID36L/Ww9Rcqfvso9CEATh6+q6BAQt3EgDEygZqwIapz+Iok4Kkguo4xZQXeOjbH4p98XXsf+pglRQSBCLNNIYi3Joyx5i95ZQND6T24dPJnYswoTn91I+5WLqHt27gvlr21KlDuDoRqYvrCVnfBC/Syd6rInAQIn+Jah3LuGZhQ2UPrWRon1L8IfyyR/Td68IO5dW0TB81lcSEPRTEY5EIXdikMD/x979hzdV3o0ff7epqVaCaDuUVLBRIB1K8AcdrmVoO/dQcaPosG6CbBTcoDxCp1LdQ2ET6h4ozhX8WtgjlImFjYJKmUBxWCbaok+ZSCqswR+pYFMoSSk9bWgOpP3+kbQkafoLC/ro53Vdua7mnHOfc5/TO/fn3D9O0jGagapg+6QSRReLQa9DqwlY71axWQ5STTSxQ/VBAiKoDiuVnyjoDLEYBgbZoLO81VqptEH0cAOREYHZUnC5AxJowtEFy0AwTgXF3cn2bhXFZqVS0XV6Th0zq6A4w9ENCNg42I0DEK4Lci17us+21V1cnwveZ9t17c21FKKP9EFAUDHvL4b4bEwRgLsS8y6IW3Tj+dbA4BRW/C2crNXVWBUw6gB0mCanY8JM7ppiysc8SPpDBsBMJRAeoUOnvEvedpg0K4moK4J9OAzM+MMGUmPM5I5Oo/xEOYWrd+J/k2/DDFiK15J3Sk/sfekkDTZTMG0ZDY+vI31aJun1VqjXoh8Zh77DMcIpBaq//IXyo35axLKFyyiqjcY4wI6lSkE7OpMNL6Zi8FZU6od5TJ+bj7WfkWjVglVNYOHfVpCiB1CxbltG1nNF2AYaiaq3YK3XEvf0BlZN9gZFRzn5izLJq9BivB6sRxyoA1JZtS2TuK4qMLeN4gVTyNoNhuFaqo84iJ7m28JzsHPBeJaUBaQbkcnm9al0HpJVbPt3snVbEZt3mFGCbe80kzdzFvlf6DAOVLFUuUhYtIUVEzv+ZwCUT4vZuXkna3eU4nCmsqIskwTfolKRR+LMgg7pUleWkRkfvMLtdp/dXp8L2KfTSuHiNHLKtBhjorBXWVDjs9nwbDL67gKXEH3kywcEdyXlOwDtWmZNewXO2bECrJ7LlC0dN188p4iEx9eRfmsP7n4cZvLXqIxKSyK2J3mJiCZ2pAH/+0ELVRRjHDmWuNsiCdd4BhPshy2oTiAijqlzYnG5FZR6/9316C7ygjgoeWkZ5tsWsXlWMgYdKO/nMmVODjnbxrLqfj2o5eTOzcd6dzZ//10ykS4zudPSWLK0iLErU4h0lLDqOTOjFmxm9T0GdCiUr5jC7KU5FMWvIkWvYn49hzXhj5C/JQ3TQOBYIfPuz2H26kT2Px7Xae5sr2eRtdtA+roVpI3UYds2j8mLZ5E3royMWwGqsZYBk1dQ1t7i6wkX9qpq0Mdi0psp7bBepfzFWeR/kUT2lmySB6qYV04hbfEyiu5cQcrAjntUjn6GfYCRuJtKKa7I1CaPAAAgAElEQVQIcqWPWgEjmVs2kBrTs1x2t8/ur88F7HPHEnJ2m8jYtJypN2mhqpC0yVksi49jxcTInmVciC+pD1oIsczYtocZ3nfW19NIC0th1XOPENtZTRFxkZrCOj2mMYH3p947/GgjcR3WQdvd7towT5cVAIqF4k12pvaiEumdSJKXlpHsm/UxSSRHFJD/vhnlfj3h+/dQ6NQzdWISkRogwkTKg0YKlhfyVlUKqTHJ5Oz12wNxP0pGuzGf0gqFFL0O08zN+N3ED/4h947LoXRXBZbH4zAGzZuVd7eZIX4hySM8XWT65FQmLS6loLiU9FvPBwBjVFQvz7utVeig6HAhpQEBGLWcPZtU9A+nkDQQQItp4oMY1+dQuMdKSpDuQH1iOumJYFbzg1a0HtH0H9DzXHa9z55fn57vU6HysBlGZJJwkzd1zFhSRuew5HAl6sTeBF0hLtyXn2Wk0aIboPO+7FTusWIc90NGDdT5LA94eUu3ef0UpkxbQhFgeSmTKdOyKLb15uAWVj15fh8A1JaSu7SY3s5r0o15kPRZ6Z7XL5K66Pa4NKyWd4E44kacrwoMxjjAguVokClTvXEt0NkuFCvmw2C803S+q0IbizEeOGD1dJ0pdk+3nE4LioISbArXhaiy8C4QN3rU+QowJpY4wGKxdZrlrtgdViAKnUZFqVdQA8Y9lL1LSBw9mviV5p7tsCfX59MCpowbzei5RT0shzpiR5jgcCnmtvLvtmM9DCaDXoKBuGT6dtrp4T0UHAbL6inEjx7N6MDX0lK/D7Vp8mpWr8zgXsA4bSGrVz5F0rW9OaCRGb87vw/A02W1JYvF23oXElSnglLf9nJdUOXzpVRVUuoE021GdIBLsQHh/m04vYEEoLIm+IiG9XApKiZGGzsZ/FYrMe8F7Qgjhs5qmTOKZ+Der6ssEsNQ4FMbNvX8NpblDxKfmEhiYjyj75lNweEvedWcDdiAcL92azSGeOCT6gsax/Fcx0LmJcaTeE8i8WPiGf9sCY62wOAGFxBN5zHST0+uD6A6QRtGx4H3TugnZJA2vJwlP5tC7l4rlk1rKRiYyuzxX/Wtifg26ZtppwAoFK/PwwYwOJ0NW9Iwtn1onKXkJM+nYUzAoFuEDl2EzrMs3NN68Nuj3Q4R/bu8Q9LqPOnat9GnkDG/iAcXr6U0OWDgrgvVm5cxa4/3zTk7VqJI7FnSPqBS+rdcLBHJZN9jABTsgd0p3XGWsvlFC9oJ2fyww0wpD+vraynERPrEuM6vqaJgg67vSiOTSH8WUo1JJMToQCknd/pscqctRr8nm6QLnIylnFK636iXTD9bxcKYcMbeZyJSA7bX5zH52Uym6zewbboRXeJCyvYv7EUme3B9bprK5v1Te5fR8ChiY6PRqbAz60EKnJCwaBtxvejqEuLL6rMWgvrhWvJ2G5i6cgVpmjymL/e2BtwKpSvnU3jTTB4Z05OaIgrTzDRMUWA7ZoYrXFgPWGkYkkDaTBM96bU23J/BVH0hy9Zbepx/wy+y2bB+g+eVm07nQ659T92fx7ItkDB3BkmRADqiglUE5zq7i1UpX72MQhLISPOOOQSyFZG73Izhodk86O2GcuxewpRpU86/VptRdbogM63Adc7njUaHcXyKJxgA6OKYMSsZKGZ/hQoVBf77XVBMT3oCdVcHKx+uHt66d2JgHCkTTe3XRH9/OjP1YNtzkAt6JLEn16fXFEoWTSbTnkL++g3s2rOLVTNNlC+eSNqWXvWhCvGl9E0LQTWzJrsA+4RsHhmTQOTKbKqmzeNuZyZP6TazZEccmeumYuxiqqP9QBG57+/EPGY1+bPSwW0h/0kb2jM7yZkTzoqyTNI7zOBQafR28/jVGVoTjzy9kDi9Hnr4sW/rMgLgEnYZqZ8WMv/xAsIfWsGi+w3td566a42AHcXJ+dvRWivlQOrgaN89YN00n3kbw0lducj7LEgARyk5c5dQPi6TDXPiaKt2I8dlsHq0z3aacLThCtFApd+4gANbFTAiBn0nt8Y67wBzdb0CY1JZvTLFZ204PWo0DNBjBOyKy+ek7Vj3A5Ojie48ZS9EERkDVNk9T6/3toN+QNQFXZ8uVe1k7S6VlOdTMUQARBI3awWLqhLJWlqIeXIGpgvYrRC91TfPIaxeQn5tMtl/TvbciemTyf6TjenTc1hCJMnPriD1psBPio3SNQUUlbzFu+iIdoPhodU8cpunz9S2PY819cnMfNhB3hpvEsVM4etWRk1M8c6QsZI3M5E872rfWTOR8Skk9PAMdNca0e7x6TICGBFN+MWe/32siPnTcygfncmGOQl+d/YGYxxaCjAfVkn2zpe3WsqBBIxDfR7Ye30+U5aXEzd/AxnxQaYnKuXk/noehaSyYkFbheOlDfZkt2eAtHDvQawzjZ7BdbUSSxnop8V6KmVVBa1/Qs/0Tj0Gvc470eACasbBscRFQMEBM+p478yaqkrKgYQRsRc0uNohq+5qrB8Ct0YTfSE71Pbg+vSW4pmq7T+1Wofe+7zJBQUuIS7Al+wyUrGsm8Ws9ZC69DckRwL1FoqWpjF++hq4P5Psp8difXYi8Q8vofBDm88sjyiiYoykZK1jV9keNi/PIGWMgUiNgmXTPCYvtjFp6W9I9r3lUqzsWVnIwfb+dSOZW/azf38+veyx9RFJ0oIN57uL2l85pHTSF98X1E8LmTdlCaXD01jxmx8SpZ4f1FbdwMh7mRkDhasLsbiBY0XkvmhBO6FtSqaKddM8Jj9bSuz0FTx1TxSu9kFx792ro5Sc6bMpUJJZ+IcZmDQ+A+edNoEiSZqYjPZwDgV7FHArlK/OpRATk5Jj0WKjaG488Y8XYvH+H5QjhSx+rhTtuKmkjOii5nKr3uPbcamAq9H/nDUm7p1ugC15FB4B3DaKVnrGVlLGBQl27ftT8DyM3IBiP78/dX8ud8c/SM5eb7lzOyh9fgkFTgOpU5KIBNSKfNLuSWT2NluP9tn99QFqi8makMj4leXebtNu9mkcS6oeitYVYG4bRnGUUrwbtOOM7Q8qCnGxhTQ51VbfBZeHhxEaGtKz1LYiZv+sEGP2SjJu/oy8Z7Mo2KugGzeTRXMfPN/HrFgpfX0teWuKsRBJyjMbWZjY8QOuVOST9dQaStVRpD+bTdqYSJQ9Sxg/fye64Qai6q1YwlJZ9bcM4sI9X0kQ9OEx1UxBdgkNei3UV7B5y0FMi//Oigltx/Q82ax28bQqOCjfuInyo5709678Zxfb9paZvHFp5DuDr21/itZWwpInsyg64qm9dWPSyVmcRlwkUJFH/PT8Trq2UllRNgPl6fFk7Q1+DGOXX/OhYlk/j1kryz0zaiKMpDyZzVMTvV1ateXkP5NJ3vtttZeWyHEzyV7gzVtnPsxldJCnhv0eHHPbKFk6n6zXLZ5zGxBH+tJs0kYH2XFtEfMmLAnygJv3Go5xYdmey+LnirC0XesBJlLnLiTDey7K7iwSny5GO9n7tSrd7TNe2/31OZLPxIfzsI3MZPOaVAyOHuzTVkLOgiUUVriIjNGhVCnoxqez/PGpmOS5NHGJfLmAAKhOFW2E90OyaycNxiTiYjrpMXYrWEtLsA1NISHYyJytlKKKKOISjX59sWq9cv7pY60OXbffG6Ni+/Ag1W2JdNGMMup9AoeNktVbUZNmkjy880pe+bScSnuw9JeW5/w7//6bi3dgxTOGEfRLA33WX4zv3XF6WjF99bR4WxkKtj+1XoELOU4X10dVFFzhnVy3rnjPu2flXIi+9aUDghBCiG8G+YEcIYQQgAQEIYQQXhIQhBBCABIQhBBCeElAEEIIAUhAEEII4SUBQQghBCABQQghhJcEBCGEEIAEBCGEEF4SEIQQQgASEIQQQnhJQBBCCAFIQBBCCOElAUEIIQQgAUEIIYSXBAQhhBCABAQhhBBeEhCEEEIAEhCEEEJ4SUAQQggBSEAQQgjhJQFBCCEEIAFBCCGElwQEIYQQgAQEIYQQXhIQhBBCABIQhBBCeElAEEIIAUhAEEII4SUBQQghBCABQQghhJcEBCGEEMBFDQgqtg/LKa9Sep1S+bSc8gobak+OUq+gujs5fkU5ZltP9uJz3E97n9+vE9Vm7vG1a6N8Wk75YUev0vzfoWB9vxxrfS+S1Fspf9+C45t5QYToVNiX3YF5/RSW7fZdksBTa9Ix2baSNTMHpufAaJ1nVUQ0o0bq0fpufqyEvO2Vfvu0vZ9PcYWJ5Jmj0fssj7rzEVJv1fkenbx70lBXlpEZ77dXQKH8pdkUJmxmw0OGHp2LdftsZjtXUPZ0AoF762u2PXlstQQsjLqRKMsrFAUuB9qvq1/GFMy7zOjiEzB4L4uyfy2ztySweX0qPTxrdj4zm+L7NpM/IhLlw0Jeec/eizOJYuyUVEw6T2Cp7E1SaC8TrqDHjSU6Yi2Fu4MlNPDI0myS9QGLq0opqo8l5dZI7wIrRXNmd1JGgrPuymJ2cQqb1xiJ7H5zIb4xvnRAoN6CZWgOu+bGUf16GmkHoolymcl9MgclcSqJmkrKDzRS8XohB8fksCswIDjM5K+xkfHigxi9iyxV+RS7TYy9Lc77gXRQ+mIWRVffGxAQAjhKWPKbtUQ+vo70Wy/wfHYsZvrhqI7L459i3SxTHwcKz3WpvjmV5OH9wKkjbu5q7g1o8dh2zGNKcRS6DjHPhvXAWnIXZBH39GoW3m+k1w7voeBwAjOWdh4+bO/nU+xIIHWCkX4d1qooZwAdKEfLKfcNZrb95O+wk/BQMsbO/m0RKjf6lAnb3nyKw5NJG6MHVAz3rWb1xIAjHljF+Pmg6/BvUnGcsFDyzHyWDUhleW4GCQO7PPuO3Bb2bLCQMH0sBreNomfmU1iVQMaadOJ8r79qJv83y3grMoXsp1MxRPT8ELZtWczfgn9AU8wU/G4+eXs9LTXdyKlkP5dBgm9EctsoXp7Fn3aYcTiBiEiS567kqfuN6DS9PE8hgvjyAQFAG45ugIr1gJU4o4vC38yicEgmG57xfFDUshzu3pjMonlJBK8XFBqcgO+H6oRCA/TuDs2tYD9sIdwZZJ3ThuVTMAQGpED3PMXKuXEdt9GE92kw0Cemk55QSs6arRgeyiB9TNveHZSu30S16XxryGU3w9AZRPvuQFVBZyTl6XzufbCIZQsXs2rwamb0Khcq5dvXYJ+QTZK3YtLdmhoQTBVKjuVTMmIqGbOCXJfAc0r0WfBhLvk7bNz7aDrJA7rJyq2ppN9qpbAsH9t96aRPbqspVSw71vDWFZNIT/QscyjVMCIOfUAlqKpaIsekseLvKZSvyyJraSGrl8Z2exX89rG/iDX1yWQn6kELKbNSKfnZEuY9P4p/trccVcyrl5BXoSdz3aQeBwP1WDmFq3PJ22VBxUhDW5eU20L+9DTWDEln9bapmKKqKV6aybz7VVYUZ5IQAeCgeP5kso5OInv9CpIHh+OoKGD+3ClMqd/AtpkXcDMgRIC+G0M49hZFZQkYNaUUHYli1EA7O9fnkbd6CbOeLkS9Hj7bnEfeFjN+vfQxKax6MY24wA/VtTr6t7+JJGHOKjJGt90SesYHyt83YwOs5ncpf9/qv19coIKlOIfMyYmMHjeRKcvfpbq789CGoxug6/jqcHveBw6Xs5WxmIw++1YrKV2ZT5Uz3LvAgfUTMOp9b4cdlDxzN/ETsig8oqC9KYWFGzeQOaaL1lMwajl7NkFSYlwngRrASuU7EGe88QIDYhS6nt4915opPWxk7Ajfc63m4N/yKa11nV9SVQr6KKJ8AoJ6OJ/p8YmkrSzFQSRxM1ex6/lUDL3KtEr5nkK4O4m4tgCmT+GpJxNgy3xyyzw1uPphHkvWV5MwN4NJN/X0AGby7s+kRJfCoplxfmuUPa+QV2Vi5qypmPRa0BpIfjKDVApZtsnb5DpSRN5eSJ4zm+QYHWi0RN6axuxJYFu9E3NvTlOITvRNCwGwvl+MOT6F7EdTSJ9o5uCx8x/guNuSAbC8PpvcsijunWxqr4BsB3b6dzMAthPAYTPvHtDi30WsEH1TEnoUKrflstaiYgPYvZbcsgQyFnvuod/Nn09ldjnmWtCPiyNpXiZTLTmkbffdl4OiueNZUhZ4JvOI3+K/xDi/5+MQvWHZX4J6TzoJvnfPtmoOYiRF31bRVGMtg6h7onwq5EiSFu9i3fZcFs9MZFV8JvmLPK2xhjM978RX9hRRqE9lVVeBxGalwmkkbmgvgw3gsFnBv13TdX4OlFI64oekD/UNkDaqDsOoWW378QRI/VA94T5ptSPS2LBjJPnPZDI+Uc/UpSvJiI8EVen5YHl9CUVb9KSuHusXIPUTs8l+fzyZc5eRsCOJ0rkFVE/IZvX9hl4ESRPpe/egjQDHtlK/NZXmYhiRQaJvcIkwMfoHULj3ILbpRsI/OYgNA1MN/v+H8DAgQsWlwkUf+BLfeH0UECyUbjcTmfAUeo2KzeHqPomXvSKffFsGq3z6vzuOIYCjNJesjY2MSktCr40kacEGkjCTOzoN9fF1ZOoKGD9tCQ7AZLqXjKwZVC5No2hMIsm3GnAc7eTTMrmrQWRP0Cjs8dn0glpO0XobOLNIHJ0FQOrKMjKowsIootsiocOGFS3R1wZUyBodxokL2ZCYSuGLO7GrYIgA5YQFNPhVlsHZ2Pm3EowTNzDK7w7eQcmzc1nbFqSdNiwoVC6azlt+23UyqOujQbEDpcyLD34F/QOtJz8cLmFKfN759WM6BsjqDyFqXFTH/9nAONJe3EPK3lzWnmhAJRJtvZ1qtET3oI/dtruQkhGT2GAK3LOOpAUrmFoxm3kTiiAmlRXzkonsZb+9NmhLyYGtChhqCMijjuihethVRbUKcRNWsH9CQFJnOSW7QT8hgVgJBqIP9FFAMJL8syTyFuykfHp6L+4JvbRRRBtj2+/K1EjA2h+9MbZ9poytqn8nib0GJ7Ly+X7kzsrBMDoJU4yC1edDYndYQZPQg4ry0rBtL6DQCYzIZPP6WIpGp6EC1ccOAjZyZx4kD+CcHSsq5uXTOWh8hOXPJqN3Kijtt7167p01A1BQ6m1UHgYG94d6xb8LTRPu3+117F2KK0z88LeBd7k6YidmkOEdh7G8PhuLLo2Fs3y6lT7dzOznref7wINSsVktMHEFZYsCA64nkJf7br2/kIIKgFRWlM3A/qQnEKu2KixYWftfUygK8+7XCa78+UzZ5p15pVFRlPM3IVrTDGYDrnoFV6WFUqJJD3eh1PvfqITrdGjbK2Eb7243Y0p8Kng3U0Qc9042ULDSSmRisv9gb18IcsyoSE/pD3qZFTP5v5lHgTaVFY8mdNHlJ0TP9VmXUVRiCqnMY8/ulO4HEH3TjUwjzfIZW//2Wfsy22HgzEGK/9bsM6tlJGkzbyTI/B+PAQaMQ8ydtpobTtnAGN15+ktJLafwTzYMMWANWGX4yWr2jO+YxLYrkynbG3AB5i2zAqb6ejltWKpAF/MK8+e+4r/u2lSWL09p74Kz7CrAHD+D7A594Fr0I+O82zlwbAL9bWMZO8ZnhlV4KXQ7GmPFUgamKZ0P4odr2sKzja2rCwmP0UNVQG5Gz2bP7tkdE5tXkfh4oyfo1b9L7m/WUtlxK+xVFoiI5K3nZ/FWwLqEuetIH+3N3eFiCioSmPGsMXh+qwpZttKKboAOx7plFCRvYOpN3nWqDfOBajptFwebbt0DdkfwLjelooDM3+RSaUxnVV4acTI3VvSRPgsIaGMxxkPBoVJiIhoI2pMdk0baiGh87/U7zEwBbEbQHxvFQ9MSzs8yUlXQXki72Ez+xAfJqzeSsihIn++WjmMGgYwJF3DYrmjjeGRNNrFvTCHrw4B1Ebrgg7DO6vauIMO0DWyY1nET66Y0Hlyu46m8FSR3Nd3SbWbnehsJT47tMFPHf7vPqNwLseN701fudbiUrTYjk0Z23l6MbR8o1zPpd+swvJPH7OcDNtLqOk63BRS1ASL6e/IVmcTC9UkdN3KWkpM8j/KHlrNuTtdThs2712CLf4qxwbrAVDN5T+Zgjs9g87NJmBdMZMn0XEx7MjBpAJedygPlwcs8tE+tDV5v64jSA4erqQafZ0dU7CdsMCKG9t4yVCzrZjH9RStj5+azZYqp191WQnSl7wKCuwGlHlxhWqL0o4gbYCVrTQOpEy0s257AhjWphO9ZwhIzPOKTzLLuQeZ+MoN1D1YycWY5mVtWY9hfRP7hKO6dgqfA24qZ97PFRC/9Z9CHi6x785iXbSYhKyVIxkxM/VsZaREuT19tOx1xj2+j7E96n24DL5/go1RZUAb2/YBy5HAj+sCrb9vJkmmFHe90458iQ+2mhWMrIvfFSozDo8maPIXKtkHVINT9xRSSTPa4bm4tj1kpx8i9vR5QVijZsAbbyJkkDA1SDQcZ6NUONnJjh4cczBRMy2Jn4OLBj5AxRoEYE1Gd1vIq5jW5FA40YtyUxvhj5wfeO25aTvEWSH4mKUil7Zliml+bQOayVAw6LYanF1LysyXMWh7nmYqqM5E6y9RZRrqhJXZEAmzZg9mWiqEtILkrKd8B+smx3jaCinnlFNK26EhbvYX00dIsEH2vb6ad2gqZP+ZB8uzJTDXaWbu4EHO9HcvhRqImZJBBDlOWlxJlNOLauIzNR7zp3BZKX7cSPdTgU9HpiJuznKmKJ42q2jDXm0ifE0fh3FkUHgNQMG/JJWvOEorQ8lktJP0hm0kxvpnSEfeoZ6qqNkILWCmcnEiOd+oghwuYNTmLgk9VHHuWMP7+fCwAR/KZGD+Z/COA28rOZ6YwcXExF+0LLVyNKPXeCnJgEhkrV7M68DWl67n0ypFCMqctwXbPU2Sv2cyu5T/Esmg8iU8XYu3wTIZCyeuFRE1KYWw3XXvKJ2YsEaMwDu7dKdm2ZZG1K5qp86ZiDFZh19upRt/JIGsDit3umTVDLKnBrsf8pK7HqdwOSp+fzqwtOtKeXsmG7RvI0BUxJXkKuWWOjue5ZzOFA1JJCTLbqn2K6RyfKaZBpqJ+GZHJM0iLKWfZ+lIUN+BWKH9xCQUkMGOyt2VzbCu5662YHs5g0lAtSr3i85Lv2BB9o28Cgj6V5fv3U7Yjm1HHirHEJxHXdqcTZiD1z3v4+5hS4hfZGTvRTl5BCQqe+ddrbAmkjA/ot40wkb4yn3VpCWht77Js2nzKb3uKheMqyVlUiI1wwiOiiHsomw17y9j1fAYpt+rRhvtNREQ/Mo64m7wfcpsVC0b012rBbaNodR5MnsGDw7VEGoxEHXuLg1XA8GSmjrSRV2wGjYHUZxeSsDuLrG0dK5I+UbOJZXNzPXfBYZ08AxFRjWU/GA0B/dC1ZgqfncL4h1eh/GwVqxekYIiAyDFprNq2mYyIzTyYPJv8Cp9wVl9KyW49SeNGdexCcat+FY3ZXALD9fR3Kv4VUIMKqDS2vfcJOrZdS5i3uJy4+Tmk3xr89l39xEI5Bgz6YOtLWfv0YtYeBtCiDXY9BoD1w1IYEe0fGNwK1r35zB4/nvn7Y3lqzQrPnbTOSMqCDfz9+QTMT48ncXExjvanwRVK95SgvzshYLYVoJSSO7eA6nEZZARMMdVPXMSicVA4N4viL1s0tCZmLsskae98EsfEE5+YyOxtUaQ/v4gU7+fIcaAUM2Bek8bEexJJ9HvlUioxQfSBvusyAlCtHDzsIvm+sej7O9CTx9rsfhzUg2P/VrSDs0mZlo3WHOX5QrqIKMbOSuVePaAzkUwBuelTKPLtF7FbscSk8tT1ekxPLodP9OjcWvQTptLh2cxII3ExkPv0TzgYE9C54t3P7EFg27aMJR8msPBp7+yMwQbisFBqdpAaoycu2Qj5+7HMNWHUp5Axv4gHFy+jeFxOrwbMeyRmBtnrYymdtowG3+n3HxawuKQBfUQjVbt3UlKbQOYYT/WnVBSwbMUrlHyoEjthBsu3pJAQE3B3G2EgZdEGTCOySJs+nvLHN7DiYQP23YWUjAw2tZIgg7MGjOxk8dwOnTYYR2jPD9SOyWDdnBspXz6X+ZtU7l20joz7/CtQ65Z5ZG3z9LLbqyyET8xhbNBej3vJWDMD1/K5FF/hE+BtxeSs/4x+A1Rs+3dS8qGB1Be9d8+qjZLVuazaVkK1NoHUuflk39exfz1ydDr5r48i97H5jB9fzorXF5JQv5PC3SYmbQwSIHUJZO7dT2awbBJJ8vNlJAdd17XIiSvYH/B1HNqbUsnekcqiegUXgTOggqcRoq+FNDnVVt8Fl4eHERoa0uMd2PbksfXMD5k5oePsDMfhcj5rvzkNJ8powtBVheq0YamopsFvYX+iRxrR9/RpV7f/FEQ/Ed4BSsWKuaY/puFtNZKCeXcpLn0co0ZEoj1WSpFVR9xok+e4qoWSPRB3zyX8zhi/mSsB16DeTPH7YBzTzfX0UiqKMQ9IJmGwg/KNm7BcP4mp47p4gOBCs3zMTKXbgCkwOAGoCrZPKqlWIPzaG4kdHNlx7KZLCtb3K70Dt+FEDY3FEHm+xFn3FmGLiiPOGGRMKJDbRuluO6Z7TKj7C9hkMTBpSkLXA+xCfAt86YAghBDim0F+IEcIIQQgAUEIIYSXBAQhhBCABAQhhBBeEhCEEEIAEhCEEEJ4SUAQQggBSEAQQgjhJQFBCCEEECQgtLYG20wIIcQ3XYeA0CIRQQghvpU6BIRz51q+inwIIYT4igXpMmrl7Fl3sG2FEEJ8gwUdVD57roWz0lIQQohvlU5/IOfsWTct7hbCwkLRaGQykhBCfNN1+Ytp7pZW3KobcBMiP5EghBDfaD3+CU2ZfCSEEN9s0hckhBACkIAghBDCSwKCEEIIQAKCEEIILwkIQgghAAkIQgghvCQgCCGEACQgCCGE8JKAIIQQApCAIIQQwksCghBCCEACghBCCC8JCEIIIQAJCEIIIbwkIAghhAAkIAghhPCSgCCEEAKQgCCEEMJLAlsQrbMAACAASURBVIIQQggANAsWLPy97wKns4mQkBBU9SwtLS243W5UVSU0NIQzZ5xcdtllNDYqhIeHoygNXHbZZZw54wxIcw5VPUtoaAjNzWfQaMLa0zQ2Kmg0YbhczYSEgKqexe1209ra0n6c5uYzhIVd5pcmLMz/OH5pQvzzptVqcTqb0Gg0uJqbgVbOnTtHS0sLLS1uzqoqoaGhOM840Wq1KEqDf968ac6e9TmOy0VoaGiHa9DU1IhGo0F1uSAEzp49h9vtBlpRXSr0MG/nzp0DWnE1e47jdDah1XqusVar5cwZJ5pQDS6Xi1ZvmsC8OZ1NXHaZ1v84oaG4XK4Ox2lubkajCaOpqRGtNpyGhtNoteHevAVP43J1zFvb/z/Ue5zW1hbcbv//pe//P3iaVtxuN2fPng2at2D//87KZluai1E2NaGhnAlSNjWaMJqbz/SqbIaFhdF85gwh3jITrGz6lrPAshns/9/TstmWJqSPyqbT2USYRkNzF3kLlkYTUGY6+/9/HctmT+qms2fPEhJCe33WV2UzNDQEVVXby0x3ZdPV3EldG9KxTu/QQrDbT+JyuTh9+hRNTQpNTQqnT5/C5XLhcNhxu89x/LgNgNoTx3G7z+Fw2GlubvamacTpbGpPc/JkLS0t7vY0J47XeNLYT9Lc3EzD6XoaGxWaGhupr69DdamcPFlLa0sLNTXV7cc5d+4cdQ47Z86caU/jbGri1CkHqqp6j9MScBw3dXX29uM0NJzG2dRE3SkHLm8at9uTt9bWVk7WnuDs2bPtaRqVBhSlgTNnzpw/Tu0JWltbOX7cRktLC7UnjrencTqdNDSc9hzH6aSuzs65c+eoPXG8PU3bcVRV5dQpB2ecThSlgUalwS+N73FaW1uprT2BS1WpO+XA2dSEojTQcLqe5uZmv+OEhIS05+3kyVpUVaW+vg5nUxONjQoNp+s951PnaE8DeNO4sdtPoro8aZoaG2lqamw/jv1kLW73OU4crwGgpqaalhZ3+3FOnz6F0+k9ToPnOG1l5sQJT5oTJ2raj9NWZpzORr9yZref9Ctnx4/b2stZW9lsbPSUzYaG+vay2dLi9iszvuWsLU1g2Wxt9S8zLS3uTstme3l2u4OWzebmZpSG0+1puiqbbWWmrTw3NJzmjNN5vmzWnmhPE1g2z5w5g9JwGsVbZk6dcnD27NkOZaYtjcNxkqamJhq8adrKc5dls76uvWwq3vLclibwM3DyZC0ubxrfctbc3IzDcbJjOXN7yszZs2ep9zlOW9msc9j90viWGZfL1V6euyqbbeX55Mna9jLTVjYV5bQ3b92XzcA60G4/SUuLuz1N23F8y2ZTUyONjUp7mWkrz8HKpsvlOl/Omhr90gSWTbfbUzbbyoyiNOBsampPU1t7gha3f1177tw5HI6TfmWzq3ozpMmptnbafhBCCPGtIWMIQgghAAkIQgghvCQgCCGEACQgCCGE8JKAIIQQApCAIIQQwksCghBCCEACghBCCC8JCEIIIQAJCEIIIbwkIAghhAAuUkBQ3fDF6RDsTSEXY/dCCCEugrC+3uG5Fig8GMr7x0IJ00Cqyc33h8j35wkhxNddn7cQqutDeOuTUB65zc1ofQvP79XQfO4Cd+as4fO6YCsUPt+7hZc2lhF0dRBqXRU1p3t5/NMVbN99hEa3zzK3St3nFXz0hdrz/TRW8NrWN/nAqvQyA0IIcen0SQtBdYPZFoJNCWHI1a1ccRlc1x9aQ1o5czaEIydD+KwuhO8NbkXfv4etBbWG7Ut/xrI94dz37F95alykz0od2ro3eWVVBeot+5hj6pj2o4MVHDFbOfpZGf86eITPT8OwjCe4PfePbAp6wMnkvPUEd2rPL2ks38iyZ/7J2643yLmv7fhVbJ//K17S/Jq1f/0lw4JnnppDZmqc3neH/kru2jKGpT7DnDuv8dkunEGjRjJIG3QnQghxSX3p30M41wJbD4XyTlUoY29o4b7vtrB0jwb1XAiNKtwyqJWfxLbwyoFQ7I0hTLvDjWlQDw9ZV8aLT/yWTZ/ANd8Jp+5k93fYDzz3NhljLLw0/gn2DonEUVlF45hfkzPtboYPtfPX8Y+xKfExcn8yvO0g7Puf37GpMjAg1PDarAfItWq55QcPc9ug88eoKf8Luw9pueUnD3ObT5waPv7X3HU9gIPtT/6YZRWRDBviG8h8OKr4+GQMGQUv88ANPbscQghxMX3pFsLuj0P556ehPHKHm9v1rVymgdl3tvDZqRC0Ia3cMsjTYph1p5s3Dofy/F4NWfe4GRrZg6BwTTxzXnwZ45tHuGHc9xmkAfWLv5M16wUck/6b3Jl3oEOl5r1d2GJ/wh0DgCu0wEge3fUmj1LBiz/4FZsGDed2UwxavAHlqhhuiRuNp+53UBOsyVC5i02HYFDqw9xsLuO9z31XDmdYLLg+LuO9j30W3zadu673ud2/djK/ee6nxATZfc3u/2JGbkP310AIIS6RLxUQahtDeHGfhrkJbuKubyXUO6loUP9WBgV0DQ24HB4a1cIXDSEUmkN5cpwbraarvat8vH0LjlEPc88kb5XqrmH7K3/mo4j/YNH0uxl0lSdAvPT8C7xn0PLKi5O5QYO3y6galSMcB6iuYF+5lpjh4Z79vP8qeWsruBKARj4+GnhsB9vX/JkahjPnx7/mocd+TaN1P0fsneU1iuFxMfQLXGz9M+k//nMX5zi8i3VCCHFpfamAUHQ4lCFXtfLDoS3twaArl2ng0e+5WbgrjH/XhjCqi64jteaf/HXVC+w+/RceeP4NMm5XeO+Fx1lWqjJs0mj6fbqf3Xv/hdUB/fTAoT8y44UYdmSMRnt6P+sf/wPvte2s/C8sLP8LDzz3Mrf98pf4d9n3Y9j4XzIMA22dOzXb/8Cf3vfm2TvsXlX8GBkbO8ttx/EHAAy/Ju8FaSEIIf5vuOCAcOYsfGgL4YGRPQsGbXThcMPVrRyt7zogaAf9B4vW96P/3Cd47fFHGbR0Mv96tQqAj7c+x9KPYogMA90No7l57C+5L2Ij21/9L15KeoM5pp+Q885PaNz9WyY8808Y/9/syLqbfqpCY+zD3NFVBhv/yfqVZQTOIbrlF2+y4+HOEoXTL9jAsLQQhBD/h1xwQDjdHEKTC0Ze17sxaU0o6Pu3UtcEZ92eVkOnroknY/kfGVZj5L7bI7m/MIaPvoBBo2JQD1pwRERzy/UuPjpiR3ubkVvOxHDXzW01cw1vbvmn589dvyVz+F9ZeOULPLS0rNPDDcv4K2t/qkf/nXgeuM3Oa1vPr/vo5f8gvbcthNgneOWlyQQbM67b/gSTlnbaByWEEJfcBQeEqIhWlk1wExXRy4AQAvff3EJLazfBoE0YcEahTo2ED/5CxlI7GQVPUvP4Y2yKfYJXHqsh4/GN3sr8fOeM+v5G8g5539wQg/LCz8ma/T/seOP3QFuXzX7uW/wGc2731uSX6QB46H/+G8ee3/Ia5yvsrlsIBB8Pqfwjj/zgj12cnLQQhBBfHxcUEFpbwdYQwqsfhVLdEMLYmBbGD2/hisu6Tmdvglf+peF4YwjfG9zCvcYWIrqZg19T+heW/dHFoy+9xG1Hy4B4wiO6yaCzjLxFW4icNJnhW7fw9m3TmTOmlM+/p++wqcutAlognH7e/WojtIT7bVXBi+N/1cnzCx6e6a5tJxPJj37/Jnf5PNCmnqygwmXgjut9hp7dKmqHkWghhPhqXFBAaDoLheZQWloh8cYWdh0JZcAVcPeNLZ2maW2FNeUaTjWF8L0bWtjzSSj6q1q7+VqLGvYVV0Dsr7nzRhe2TUCEnkFXQVWwzVUVtFrUQ/t4wxlP+uTvU7N1C9CP2x97hjtP/p3MH/sMNgO7n3mA3UCn3T6+Yh9m0a++j++jZXXvvcDiwiM+SxTey/1PXqqbwpzE/by40cKdjy1l+I4XWLgdHnrxZeaYtFBXRu7cJ3jjtj+y44l45Nk0IcRX7YK+uqL5bAh1Z+Cum1oYb2zhO7pWHM7u031+yhMMJhhbGNS/lRqlm9Hoz0vZfggG3X4HN1DBgd3AyOHEBK09Vd574S7uefzvOG7/Kdm/e4wf36Dz3+Q7PyHnnX3sfWcfW5+OBzx39nvf2cfed7oJBgAMYljcaG73fd0Y5b/J6X1sf/UIn1/Vj0ing48rj9B0JpK75j/DozdU8fqftvDenj+wcBvckhCDuvUJ/lTai6/BEEKIi+SCWggDLm9laBTkvqNB39/TFTTpu523DgBCQuAHMS2sfV/DPz8JxXEGfn5r12k+3rORjxnJoz/Sc2Ttf/IaWu5JjucabEG2tuOoAVVxoWpiuPMegAqf9Qqfl1tweN/VfeYZH6j6qIwPQr39NhHR3HLzoM7v1ivf5OW1DnweWqbpY6vfJp/v3sLbDOKhxNHoal49v0IznEfy3+QhTTgfLL+Lt7c7uLPwGR4t/QUvPf0cd+36L+7sritMCCEuogsKCGEaeHiUm2hdKF8oIYzWeyr2L06HMKh/K5qAG3+nCkfsIYyNaeW6/m6+OAV3DG4l5uouuovUCt7cUgNjpjPO9XcWb6xCm/AEvxgXCb4BYVAMdwLv5T7BMkA7Se9XYZ9XxRuPP9ZhHOCDv/yWD9redDErCIAIG5+/58LvoWWHw+eNgqKE02/Mw/z4Fi393Hq0wGtP3sVrgfu6+fvcMnA4gx7/NY6jdzA8PHADIYS4tL70dxkB1DfDxgMaPj8Vgum6FoZcAzptK62t4HCGcLg2hM9PhfDj77aQeFPXrQI/ag0fH9UybGgkn5e+iTrqPxjmvZlXTyuohNPvKi2Nn1dwpNYF9GfQqOE+XxZXw9trt3Hk+kR+MX54r/rpG81b+Gu5ysiJD3Pnd7z7uWIkP3043m8MwbOdA8Nd07lnaMcjqDVH+OiLgAfQwqOIiY3hGhk4EEJ8jfRJQAA43QyVtSGUHwvFpsCZcyFogP6XtzI0spU7Brdy49WtPZtqKoQQ4pLrs4DQ5pwbzrV6ZhWFhEAIEBbqeSBNCCHE11ef/2JamOYi7FQIIcRFJ/ftQgghAAkIQgghvCQgCCGEACQgCCGE8JKAIIQQApCAIIQQwksCghBCCEACghBCCC8JCEIIIYAePFSs0YSiCQ0hJKSb3y4QQgjxf1qnASE0NATtZRpCQyUQCCHEt0HQgKAJDSE8XL6RSAghvk2CjiFcppXvqBZCiG+bDgEhTBNKqIwXCCHEt06HgKAJ/P1LIYQQ3wodAoLMJhJCiG8neQ5BCCEEIAFBCCGElwQEIYQQgAQEIYQQXhIQhBBCABIQhBBCeElAEEIIAUhAEEII4SUBQQghBCABQQghhJcEBCGEEIAEBCGE6F5tLT99oYZ93rf7th7lp3sbepCwjmd90nXqUA0hLxz1vrrZ/lBN99tcIPkVnEDHSsjbXtnz7aPG8shkE7qLlyMhxP8JdTz7QiNZAIP70TrpGqgNI2mUk/gXjpKdNIQF1BBScrZj0sH9aH1s0KXOcAcSEALpDMTdFli9W9g8J5fqh7PJSIgMTHCpciaE+Bp57WA9IQfr/ZZlJw2h9WafBQP78/2B/WmNrCFkfy0zRgP9L6fmFwO57pLmtmckIAQaYCBujCFgYTilQHW0Mcg6IcQ3Vm0tP93UzGvet6+9cBT6X86Gq+CBUQN4dVz/IInqePYFJ4aHrsdQdpSSYUNYcPMgT6A4VNPJgRrY+HI9UxrwCRg+LY4g4l842nFhW8vkAklAEEKIzgwcyKuP4Q0Mbp58bBDfxzOG8FrdueBpDrnIQkPZwAYMwy7ng5KjhHzcsaLet/Uo8cd8FgzuR+svAivzUDY8dD0PD/Tdfw0hJVDmzUub43u/YFDdBZ8pIAFBCCF67fvxl/PApkZCXmgMuv6BUQP4Pv3h5v68+p1afrrJycbaa3g4yHavxjZ7go03YOzb+gXW+IAgcIlIQAhC+bScSrvvEgs2wP5JOeXv+60gyhiHYQCAjZLVW+nFcHTbHhg7JRWTDEUI8fV3qIafOq7k1XHelkNPDPTZ9mSw9WHcjoq1Fig7SjyX01nH0sX2tQgIznNQcgIOnYY61bMsQgM39oP478BN/S5tfqylueTu9l2iYgNcpUXkWvy3TZi7jvTRWsCOrayU0l4fLZro+yQgCPH1Vcez3nGE1z7uR+uk/p7umYMtnabIThrCAu/g8vG9XzDIqu1iIDkMQ/8Wpmw6GmQMwLN8SpBUwccQenxSneTkK1TVBM/9G3Yfhx9dB7deDbH9ISQEms7BxwrkfwbaUJhrhPv0lyZfpmkb2DDNd4mZ3NFplP8imw0PdTaobGLq+g1MvQT5E0JcIm1jBw9dzgM+3TpAJwO4nsFhq88Sa10LDxgu5zrguMMNV4VzHfhs058kQwNYtdR02N+3ZAxh3Wew7DAsuBn+3+jOt1t0C5Q74L8Pw3Yb5HWxrRBC9CmfQeUOjnU+hpDd/lcD1tNw+zDPbCRrXQsPXNOx2r0uVssDB5tZe4j2lgVcw4LHej5j6Lpx19Pa462D+0oCwvOVsPcklP0Irgnvfvu4SHjtB7Ds3zBpL2wdd/HzKIQQXepJC6G2mVcbLuPJmwHqKDkWyk/jA6eq1vHsTnhyVCjxJTUk3ex/538pXfKA8Nox2FUDuxKhtdXz6qnMWMhphVnlsDru4uVRCCG61ZMWwkk3r/XX8CKwb2sjWYP70erT/eN5uO0yb/dPAxus9cS/XPuVPbh2SQNCK/BfB+Hvd3nedz4k07mnRsCD78K2apgY3Ze5A9STFOZvxt5hhQ0zYCleS96pIAMZxkmkJ16iAQ4hxCXk/3UUr/qu6kELYd/HZ3nAcCXXUcfaY5dR1t4F5Gkt+I8P9OfhXwAv1zNnb0MnD71dXCFNTtXvHv3y8DBCQ0MuysH+3xGwu+D3Iz3v3RfQ4aUJgX/VQeaH8FZS3+YPdyPm/f/G1dt0EdGMGqlH28fZEUKIS+mSthA2HYWX7+zZtvVn4Z1a+EmQVsAd13gCw79Pw3ev6sMMavphGiN9UUKIb6dL9vXXDWc9U0lv7OEzBadV+PX/QoE1+PrEa6GsY9+OEEKIC3TJWgifNcLwXjx8dcOVUJwIyXs876cGTP836mD/l5xzK4QQ4rxLFhCc5zxPHwcqd8AZd+fpnh0Fjx8AiwJLTOeX9wvztDiEEEL0jUsWEPproSFIBb74ENSc6TpthAZWWOAZE7TFlPqzcJWM4gohRJ+5ZAFhWD84fLrj8r9385BZgdUzo+jdH/kPeBw67ek2EkII0Tcu2aByuAZi+kHADwx1qS0YFCeCaYD/un/UwLiv4OthhRDim+qSBQSAnw+BtZ/2bFtzfefBYPdx0EfA4Ii+z6MQQnxbXdIH0wAS/gHLb4P4qAt/MO3ut+BZEyR8p+/zJ4QQ31aXtIUAnmAw63+7H0juTMa/4O6BEgyEEKKvXfIWAnieWM45DH/+Htzei9+D/s/9EAK8eLG/Als9gfWIHSeguWoIwwbr0ARdr0E3ZBhD+vvPp3U3HOXjowpuIGLgMAwDfadDuVGOfczR024ggqjhBq7tzWypFpUTVR9jd3bMm9up4OwwhVdD+JURaHsa+s86UZohQhdx/py7Od9geXQ2nSOs7bhnnSjNHecWa8J1RAQ7d59zDHqNurgGHXV3vX3WR0QxLObanl8rIb5hNAsWLPy974KwsFBCQi5uQLjlKhimg9nlcNIFI/qDLsxT2Qd7/e1z+MU+GPsd+MOoi5o11M9K+OvWfdiarySME3z6wT72WUO56buDuBygtpS/Fr7DF81XEnbuUz54dx9HWm7iZv3lANg/fI0t/6ikLuRyNM3H+Oi9Mj6ov4ZbDVcDdg68voVdljpCwjU0f/ER+977gNMDbsVwdQ8y13KC0sJNvPOFypWXneXTD/ey7+MWbhoRzeXAkX+8TPFHddTbqzl27Jj39TnOK4cyqAczstTaA+zcWsy+D4/C8JuJDu/+fAO5G6y8u+01SvYf4vQ1t3PT1cDHu3j5zY+oqz9JdXu+jvF5UwRDAzPWcoL3tmxi7+dnCNeG0PTFR+wr+4CT/UYwNErT7TXw1931dlK5469sP+xZX/fvUt75oI5rTDdx9cX9CAjxtfSV/UBO0rVgngB/skDyP+Hay2HUAIgKB5fLxblQLZ80hbDfAT+8DjYmwHcv+pf/2Xiv7BNcUXfy00kmBgDcUMJfdpXzbuVt/DjWxt43D+EaeCeTJnrWm/oVUvjB25hvScEUaqZ0v52wm5JJTRwCgPOa1yj43/coHWkg7ngp5SfDGHpvKkmDAZxc/XoB5e+XYroxgajucvfuPzjUfC13TkrxDLSbdBQWHuDtg6NIGdWA4zTwnZtJvqezX3Xr3Ce711JSFYF+oA6On78eXZ5vQA1cv7+Qwg+dDLhuANp6pX25vU4Borh5/I/oLmfKB29jbhrAbfc9QNxAAJWorX/hvQ/KsRsTULu8Bv7NDbWi6+vdv+If7LWFETs+lXGDgRY9/3i5hLffPorB+/8T4tvkK28c/8YIB5Jh5R3w/SiI1MKVrS6G9WvlsWFQ+WNPF9HFDwaAaueUE3TXG2if2BQRTjigNitQd5Rqp4ao4bHt6wd818AATvBJpRNq6znVouHaG85XJhGXawEXLifY607BZddiaP/d0wiuCAdcLpzdZq6eozYnmoFGYtsPHovhGjjx2SGcqLjPgq7/1aA6URQnai++X9wQn8rUaT/nx77fL9Ld+QYYYPoxP3/4EVLHROP7u0fqWRdcOYCrW1ScioJT9U+n2KwcbfB2KV17MwlxdxLbPqVYi6b9tqW7awAoNqzHPN113V3vo7YTcKWBEW3rQ4cydLAG9fNPCPJrtUJ8432lv6nsa7ju/HcdnThxhqioK9F001Xd57QmUn5l8lt0wnIUJVSHIVoHtXYUIhgS6XMnqrua/qFwvM4Ot47jl7/yfdLOyaFPToA2miGDQH/DL/nVXb6rD/HJCdDqh/TgxzCOY2+AiCFRPl+zreNqHVBzCjtX0NAM9RWvsvaQBk2IG1V1oxuRzM/Hdn+3q4nQ0WEWb3fnS8B+tRHotECT/+KGJhUazLz6shmNRoNbVXFfeTPJDyUwJLSSt9/Yi+3yoSRPS2LI4Ju5eTDecYhTnPj3AQ4cj0A/xkgUx3mvy2sAznfeYO8XWobe+0uS7urqetsprwPNVZH43mtcrYsAtR5HEwy5stvLJsQ3ytcmIHz9ODm69w2Kj7iIuvVe7vwO4ADQoPXrKtGhuwKqWwIGTVvqMe/YynvHIxh69ziGBg6e1pl54433sF0+lKQfDO3xbylotP6/Oaq7MgJa3bibVLhcy4Drx3Lv3UPRhYLy0RsUlv2Df/z/9u4/rKn77v/4EwIJBoMp8kNDpcZiZcVi7SWbGr/OsdrqitNVR4fa1q33PVfW3e2+8949rft+r+9uV79d7b1u9bKzu/vrrtarrnbS0s7pd6n1apQNVyuV3Vip0KhRIEIkEiEQ+P6RE0hCwg8JP30/rovrgpyTzzknwHmdz69zDI+weFp/jj1gi3073rBcuFGjTkhnwdJcMnSAs5zitywcMht45O5Mlq5Nw4WWgN6EprMcP1pNo/MSLnUCM1KTQHl0UdjPAMhcvJa0ZtAG95l0+7yVW+WqNQGfvV6nA1y0Xc/Tm4QY5SQQQnFZOVJ8gIrmJLLuXolpqnJ2UcUALpz10HX2aqChCTT+JynfySc2HdO3FpM1MbCq4zhZzP5SG5opJu7PzSIpFqAS8399FLqpQj2N3O8YiIkGV2OD/8ZpaHRBrAZNfDZ5DwXWbnQzM0g9aqPmvA1HfQn7/9EY8nCTZueTd0eIWX59Pd4eacn+xjoC9kyXRUaqBdulc9gwYtDq6Nbnrctk4b2ZAFQefAnze4dI+q6x588AIFaLLjawqNCfdwyqKPA4Hbigs3ZkdzghVktfj06IsUQCIVh9GUXvlNAwIYsleSbS/c+Tkyaix4rT4YZblOvKuss4UaFP8XYJu744QtGhCphiIn9xFvqAXhoX1g+LOHAG0ufns+R2/ynYGeQ+lNHDjjmp0YO10YGbdOWq1s7lK6BKTCGp0Uq51U3SbRkhh7Hq59zPuv4O1+3D8fbOifWUFXfKdDJSeqsHuSh7fy8fcxf538juPEkn6XVQ3YDdOZeJPX0GIcoL/3nrSU1Sgc3b1ORr/LI7nBCXjkHukyVuQMPeqTyy2Ck5WEJNXBZLlweFAYBuFpmToObTEmztAC4qSs/gVKeROU0N7kqOfFBBi2Ehy+8NDgNwnzmC+XQLhgXLg05OfaFj1oxUqC2j5Lz3FVdFCWecatKmT0Md56CyxMyhY7bOd9QcPYEtWku68Tqf99zb8faJBsdZC+aDvjKAWgsnbKBNn4oBF5VHD2A+WQNoSU/S4j5fQZnvWRftNZSfdUBCOkZdL58B4Kq0cMBcRk1775+38fbpaJsrOXHSFbBfumkzeh3xJcRYNCwT03pTU1NDUlISqqHuVa4vYc9bZThDLNLfVUD+HB24KjEXmalsUqFWeXCr9GTOz2NhhhbOHODFD0I1+qgw3v0IxjMvYv4ixOJYI4u/2/uQTHBRaS7CXOlEFafC41ahv20BeQsz0AKuSjNFhytxqtSoozy4PVoMc3LJm5Xa98+gopgXj7iYXZBPjo6ejzecOgt7/lhB0t1K34V/GWoVHrcHrSGH3CXZpEZbMb96gMrYLPLWmDC0Oyg7UEzJeReqODW43TDeQE5uHtkpvX8GVvOrHDgbQ9Y31pL6ae+fd83xt/nTJ3Y8MWpoc6M1zFX2q+8fmRBjhQTCdXI3OWlp7+cs4Iht3IWzxRNmpq8Hl9OFp78zlHvbZASO1zeTOuwMZX++2c0qLbpQT1bq8TPop962JcQNQgJBCCEEIH0IQgghFBIIQgghAAkEIYQQCgkEIYQQgASCEEIIhQSCEEIIQAJBCCGEQgJBQOkzhAAAIABJREFUCCEEIIEghBBCIYEghBACkEAQQgihkEAQQggBSCAIIYRQSCAIIYQAJBCEEEIoJBCEEEIAEghCCCEUEghCCCEACQQhhBAKCQQhhBCABIIQQgiFBIIQQghAAkEIIYRCAkEIIQQggSCEEEIhgSCEEAKQQBBCCKGQQBBCCAFIIAghhFBIIAghhAAkEIQQQigkEIQQQgASCEIIIRQSCEIIIQAJBCGEEAoJBCGEEIAEghBCCIUEghBCCEACQQghhEICoU/K2PXQGja/b+vT2rYPdrD3E2fQq25Ov7ODXX+9HPndE0KICIgZ7h0YLez/OE2Vs6Vv6376MkWpS8m/U9f1YvV+nv7Fy/DdTGagvK5JIvMOIzrVIOywECKsS0fOM7lKzcWHU5jU28rlF4k6rlLWbeSN1xysaQy/+pbcdJ7MUrZxsr1rQUKct4zaWla+6WblAzezOqWfO15by8o3PWz40WTm9fOtfSGBEKCO5+YsZVe4xc98mznPhHh91W84+jMTarcTZ1tXCLidTtDqULeU8dyGX3Hhmz9lyxwd4KT09z9lV8LPeesZI7oQRQohRi7fST9QPb983oUxueuV+2fp2bcwwRsO9TFMop5fvtnM28Dbb1pZ07lmLEeDT/LlF4kyt4bc/tvPW/u4T/0jgRAgmSeOH+cJ348eG0VPruFpq4G0z07TMtWIvVrHP/3X7/je7epu7758YDP3/iOf32gBbPzpyW9TtuQF0t5+nL0OHbxzgKqHXubrpzfz+GcmnnhlKQapHQgxMtXWslI5eUMrk5+3wpQ4dve7oHpeOgm7H4BfPn8VctPp6Dxxe2sc+4zxoa/4fbWKgH0KriF4y6jq9351J4EQhvvzIp7++dOY0wv53fMzMN/7KKXf/hWvTCniX36wiL+seIbfPm5iYi8ndGf5B/wl4Qle+eNSWl75Ht97aD7PudJY8dvfkX9r91ARQowQKSns+xEhmoyaO1c5tt/K/HN+75kyno7gZqDyFjZPUbP7Ty6YEs1ms5XN5qB1TjqIOunorFF0amz2BlGQkDWEfh9gdxIIQdy2Mva/8jTP/dHGgn/5HW+tyWaiqgzf72/i/CfY/ZaJl//PT7n3a2qW/NMzFK7KxqANXV6S6Ql+NV8NztMUOdWo1Ro0rgucLKnANseEQTJBiOER5mTb7aq8B/NWpNPR4xptvHHcw+6lkzv7C54Ms+alI+f5of8LWZP9ahIK6UMYQq117PiXxymb8yhb/iMNjaaFs8dLOctlElblM8t1mtK/2gGY87N3+LOtiF//7l95WvM7nnnAGLLIqrI/setAES+9X0XmQw9S+MMZGFOdnH7rF6ya70T3lUJ+++u1zJBgEGJo9ePED2Deb2Vf4nhWQuirfEVgW34Mq+eoiPpTLbkPp0BwR3OQ+2d1fd+tU9qP9CEMhdhknnjrAwCcn+zl9RJ71zL9eMa3VPCHZ3ZhrlYzY/X/Yss/r2XLK2t7LFLnbsGmyeSRXzzCjIlV/OGHj/P6t37Klge28Mzdp7kwLhejhIEQI1NtLSvNrUArVXPS2ZfVyBtVsCV3PJhdGANGCjXyxmuNkBxURlY8u483Yq6F1QtvpmNh6E11qyGAtwlqRWLg/oSoIRzbbyVMPvXLiAoEewtcuAY1zlhuHQe3JvT+nsGiuzOfwju7fr78SRGv//45SlPX8vPND7L8zol9KidpzgrWtvwn+0+fpNRqww5oLldTesIbNtNyk5A8EGIE8vUd5Mby9nEVjwRcfSfyyCwXk4/Ws9p3wi5vYg1qLnYbSpqAcYKDbRWNGI86AvscgvjXEAA4d5Wo5692Wy9kDWF6H46pF8MeCJ9fhZc/h3dt8Fnn2F7vB6yPhcWTYI0Rlkwegp3xXKXs+H/TfbbBaf7ww+c4ee8TbPnmDNQtZyn969muxUmZ5NwafvCoLj2HHK23nGoOcGHiVHJmGwENaVMlDoQYkXxt+OUXQy6etFDLluddvFGbyOqURt443sqWOZN7bILq6nNo5I3XmjA+HL4vYFKo2sRY7kP435/C0/8Iv9zRCn845/1aMhmevhNmDGatwXONihOl2LstUK7sr9k4eSLEjJT0BGbdOqPPm0ka5zuIFlpcIFUEIUajRJ7MbSHqzfPsS2jn7Qnju3cC1zex8nkHbxPL7sRGova3cZSrbEvUs28ORO2vV5qElKGjc7r6AbxzF7R0TG9RRjnF8NKbzTBLHxQG9fzy+RZyIxASwxIIrjZ4wAKHLvX9PQcuwlE77JoP9/S1F6i/1Mnk/6AwxIIynvvPA5R+5dsUhuk87vT+L/iFGi47/pWntbBitpnXy3y1CW+wnP70I0q1Bu9L5zQ8uCpbJqcJMRplxbP7uHfm8pY5id2XJ8azb0UCvhP+ljmJcOaq33ubOEYjVa85qJqjx3jcyi9J58msRsxV7UqZvhpKIk/+KJFj+61E7W+jY0WMModBz77cFqKev0jpjyYzZwCHMyyB0N8w8GlshfuPwF++Dl/pWxP+kJq4ZAsffE2DTqcG3Ng+PYkdDS0u3856m4xm3LGAnNm+1yQKhBiVlJnE98/S05HZzMo3rUSdCeoEVlw60sgapQZx7Izv1QRWP5wA1GNujMaY7PsZb39EYyxHs4DywLK6mp3qqWqMZmVmAqQkcPSMlR3HrvLyvPHXfUhDHgg/L7u+MPBp64AflsLxJZHbp3Dcx59j1Q/2Yte6cWtnUHh7Ws9vUOvQdTb/qDHckYMhYAUNFuBC2gxyvtJLTUMIMXA93P4BwsxDACCWow+o2KbMVL5/VnxA38Bms5XNCXFc/JGvzyCBfT/yNvNEPe9i9wM3k+u3/qSFN3fOV5g3PZa3zd6JaJ0CJrR5+yPu9zUNZWnYYr4ael/93jdvRfqAm4yimlzugHkVcZoYoqOjBlhsaJ85Ifv9yJT179nwr1+KTFk9cTuctKh8V/0RKk+tQxdmIpsQQgyXIb399UufX9/7Foa4I+Dvr7Os/lLrdRELg87yJAyEECPQkAbCO+f7/54HjfCHBXBLfODr1iaw1EVmv4QQQgxhIFy8BlVN/XvPg0bYNhvuMcMXId57vD4y+yaEEGIIA+H8tf6t7x8G/n0vAWW6Br5fQgghvIYsENrC3M/pQaP3K/i13sIAoLXn2wwKIYTohyELhMQe+mV//+WuUOhrGABMlBm+QggRMUM2D2FGAoxTwTVP4OuvK4/5+f2XYWEyfPPmvoUBwO0TIr+fQghxoxrSUUaLw9xy4vUq+Oe/9S8MAL6WGrl9E0KIG92QBsLqqeGXvV4FM97texh855aem6GEEEL0z5AGwoqb4ashJpn5OMLNMA/hf2YOfH+EEEJ0GfJ7Gf1qNiw4BK3hnyLXq3/Phmx95PapG3cNVZ/ZcQGqCelMn6JDFXK5Cl36dNITApbiabRyxurEA2hTpmNM8a/KeHCeO4P1igfQknSbkdT+1HTa3dRUn8Hu6r5vHpcTlyf4DSo08VrUfY3+VhfOZtDqtF3H3MvxhtpHV1MbMb7ttrpwNnfbMVQaHdowx+5xOXGhRaft2lbX59qHzy14HwKOA4jVkT4tHV1sz4cixI1kSO9l5FN03nvH0+vxw9vg2dmR3R9/7rNm9porUSVlkpbYyKWzNhwTcsj/1mz0ALUW9rxTDkmZpCVc4uxZB9o788mf400o+ydvU3y8Ee2UaUyKtWM9a6dt2mLW5RoBOyf+WEypU0v61EmoL1upvNxGRu46cqf1Yefaa7DsLaK8I5XMNB2XqitxaGeTvyoHPVDx/otYGg2k3RSY86l3LGG2IXSRAcdee4KDB0qxNeuZXZBPjq734w3maazCcuAQFQ4VxrsfYfE0oKKYF485MRhuCrwCSc5myV1BO9bupqbsIH86bsOtn03Bqhx0gKuimL0f2b2fq+cCFedbMN69zlt+X/bB7zgyMsbhrCin0qFl9qp8cgbz4kKIUWRYbn+9/GY4sAge+ztUOvv+vl9kw08H9YZ2NkqOVtKSNJeVK7K9AXCLmVf/XMpHFbPJy7Rx5GA5LSlzWfFN7/Ls8XvZ+/GHlM1cTnZ0GZbjdmJuXUL+19IBcCW+za6/lWC5w0jOJQuldTFkLM0ndwqAi5v+uIvSv1rInmYiqbe9++gQ5c2pzF2x3FtDytaxd+8JPjw5i+WzGrl8BUjOYsnd/b+TauX/ewlztRZDig4670bby/HGBZbhOL6XvZ+40E/So3Z0/WLt9U4giax7F9PznlVy6BUzVVoDqfFQ43vZXcahj2zE3LaE/IXez9Vw8CXMH5mxTsslvdd9cFN2tByX/+91Zhoxu4op+1slOfdk9PvzEmIsGtI+BH+LUuGTJbA5C1Liel43Px1K7h3sMADcdhpcoLvZSOdFo1aDBnA3O6HeygWXiqTbMjuX679kRE8NlRUuqHXQ0K4i9ZauU5Q2To3vyWj2+gaITcU4pXMp4zRASwu9T7p2YLW5UKXMILNz45kYE6HmbDku3HhaQZdwE7hdOJ0u3P1oljPOz2ftQwXk3eb3fIbejjeIPjuPgtUPkv+VNDR+r7tbWyBez03tblxOJy534PuctiqsjR7AiCl/LeseyGOG/5DiL2zUtOswfqnrc83ISEfVbKXyC6DVTtXZGtzt4fcB8Dbhdf6kRqUCVXQvzV9C3ECG9RGaMdGweab3y1zjvTfReZf3mQdJasjSQ24qJAf/Zw8WdTbLv58d8FLNaSvOaB3GNB3U2nGiJd1/RpzuJhKi4VK9He5cyLrv+z8E1UV5ZQ2o00ifDIZb1vH9r/ovLqeyBtSG9B6fw+p1CXsjaNOT/J64qeMmHXCxATvjaGwGx6f7eKlchSrKg9vtQXf7EgoWpIcvVqHS6uh2E9bejpegctVa7/Mggu471djkhsYy9r1WhkqlwuN244nPYskDJtKjK/iw+Ai2uAyWPJRLeohbwdrrGiBWx0T/kNDr0OLG0eDCfuEQh045SfrKWu6fFWof1GTPz6binRL2/bmF7DQtrgsnKG9NYna2PJdCCJ9hDQR/uaner5HDhfVIMQc+ayHpzqXMTQYuA6hQB9RodOjGwYX2oE7Tdgdl7++n5JKWjEULyQjuAK0vo7i4BFtcBrn/I6PPj1VWqQPTURevhQ4PniY3xKnR37yApYsy0EWD81Qxe48e4pDhkZBt7X3cYt+ONywXbtSoE9JZsDSXDB3gLKf4LQuHzAYeuTuTpWvTvB3IPZajQeP/Iel13r6FNg9Jc1ey9g5vB3I4njYVmjgVDc4azl2IoaXeBdH6wDKFuMGNmEAYUVxWjhQfoKI5iay7V2KaqpyqVDGAC2c9fk++bKChCTT+J2rfyT42HdO3FpM1MbBZwnGymP2lNjRTTNyfm0VSLEAl5v/6iJDPb1JPI/c7BmKiwdXY4L9xGhpdEKtBE59N3kOBtRvdzAxSj9qoOW/DUV/C/n80hjzcpNn55N0R4mTa1+PtkZbsb6wjYM90WWSkWrBdOocNIwatrscwiFEBrU4cTYDvNuiXHThRodUA0Wq0PT6zwsqHB0/gNOSSf0+GUhNyUbZ/FyUHSkj/zlykX1kICYTu6ssoeqeEhglZLMkzke5/npw0ET1WnA433KKcgOou40SFPsXbJez64ghFhypgion8xVnoA3ppXFg/LOLAGUifn8+S2/1PQxnkPtRT56aTGj1YGx24SVdqFHYuXwFVYgpJjVbKrW6SbssIORxTP+d+1vX36dt9ON7eObGesuJOmU5GyvVdjuuTk1BxgYZ6/AKhwducNakPz6Sut1HjBnViql+zmNKBftrBpVbQy/BTIYavU3lkslNysISauCyWLg8KAwDdLDInQc2nJdjaAVxUlJ7BqU4jc5oa3JUc+aCCFsNClt8bHAbgPnME8+kWDAuWB4VBX+iYNSMVassoUR405Koo4YxTTdr0aajjHFSWmDl0zNb5jpqjJ7BFa0k39mHMachN9nK8faLBcdaC+aCvDKDWwgkbaNOnYsBF5dEDmE/WhC9iWhbTtW4q/17m7Xxvr8HyiQ0SjMxIBmrLMP/ZQmW4nvlEA6lqcJyv6uq8b6/htNUJ4/RKDU0IITUEf/WVVDUClFP0n+UBi/R3FZA/R0f23bnYi8wUv3wGtcqDW6Unc4HSR3CmEqsbOH+EXS8e8Xu3dzy88awVN2A7souAxbFGFn+3tyGZoL5jMbl1RZjff5EzcSo8bhX6zAUsnK4Gslm8yE7R4WJePKtGHeXB7dFiyFnMwim9FBx+iz0f7/WUoVbhcXvQGuayeEE6YMX6mZXKWB2Zs1IJHV0GFt4zG/uBEna99DFq3Li1BuZ+fS5JgNNWSeUXjbjSssmYGarGkE7uN2bjPKi8PxY8bjeMNzA3d26vw32FuFEMy8S0scDd5KSlvZ+zgCO2cRfOFk+Ymb4eXE4Xnv7OUO5tkxE4Xt9M6p5mKPdSQuexBcykvo59QBU4C1oIIYEghBBCIX0IQgghAAkEIYQQCgkEIYQQgASCEEIIhQSCEEIIQAJBCCGEQgJBCCEEIIEghBBCIYEghBACkEAQQgihkEAQQggBSCAIIYRQSCAIIYQAJBCEEEIougVCe0dHqPWEEEKMcd0CweORQBBCiBtRiEBol1AQQogbUMg+BHerR5qOhBDiBhMyEDo6OmhpaaPN0z7U+yOEEGKYxIRb0NEBbreH1qh2VKoooqLkOctCCDGWhQ0En46ODtrapPlICCHGOpmHIIQQApBAEEIIoZBAEEIIAUggCCGEUEggCCGEACQQhBBCKCQQhBBCABIIQgghFBIIQgghAAkEIYQQCgkEIYQQgASCEEIIhQSCEEIIQAJBCCGEIqZDnowmhBACiGlvl6eiCSGEgJjW1tbh3gchhBAjQIzb3TLc+yCEEGIEiNFq44Z7H4QQQowAUR3SqyyEEAIZdiqEEEIhgSCEEAKQQBBCCKGQQBBCCAFIIAghhFBIIAghhAAgJpKFuVwurl69SmtrK3JLjOEVExODVqslISGBqKioIdlmW1sbTqeT5uZm2trahmSbIrTo6Gg0Gg06nQ6NRjOk2y7+B/z9HNReHdLNiiDRUZB+E5iMMH9q394TkXkIHo+Hmpoa2tvb0Wq1qNXqITsJidA8Hg/Nzc00NTWRlJSETqcb1O01NDTgcDgYP348Go0GlUo1qNsTPWtvb8ftdnP16lXGjRtHSkrKoG/zoyp49gM4f2XQNyX6ae4tsPHrYJjQ83oDDoT29nbOnz9PfHw848ePH0hRYhC0tbVht9vR6/VMmNDLX8N1stvtuN1uEhMT5UJgBLpy5QptbW0YDIZB28aHn8OGdwateBEBN0+And+GlB6uDQfch1BXV4dWq5UwGKFiYmJITk6mvr5+UJpxmpqauHbtGhMnTpQwGKEmTJhAdHQ0DQ0Ng1J+Sxv8378MStEigs5fgW2He15nQIHQ2trKtWvXBr05QgyMSqVCp9PhcDgiXvaVK1dISEiIeLkisiZMmDAov3+At06CvWlQihYR9kEl/HdN+OUDCgSXy4VWqx1IEWKIxMfH43K5Il5uS0sLcXFyg8SRLjo6GrVaTXNzc8TLLvki4kWKQfQ3a/hlAwqEtrY2YmNjB1KEGCLR0dF4PJ6IltnW1iadx6NITEzMoDQbXmyMeJFiEF1yhl82oEDo6OiQ4aU3sI6ODuk3GGUG4+bGcrvksUMmpgkhhAAkEIQQQigkEIQQQgASCEIIIRQSCEIIIQAJBCGEEAoJBDGmndphwrTjVJil9RT/xMT2sn4WWrYdk2k74UoVYrSSQFCc2nEdJwYxwtVT/TkULJgZZrmN6pJ5TJ3cz2KzF1HAHtaHDRoxYtwDpYWwNtzP/X1/D9augtIfd33tvee69nhYRfR5CCNC2XZMj+4JerGAnZbVVP9kGVtLYN6md9l2X6KyrJ7inyxja8k85t1yCrK9J4/69zaw7Klj17EDBey0PEa4U5AYSjaqSwpY9GyYxWWH2cNUdib3t9yZrN40jz1PHeZU4Uz5XY8hmx+G5YlQ9GvYAqy1Q2kGPP5jmP8hFALmr0Kou7c5z0HOr4d4hyNs7AVC9mNYLI91/VxXzIYV1UAiec9ayCvbjunRZZiemsfG/euoXrGePcxj4/5t5AWfGOZu5N1n80ikj8q2Y3o0MochIqCummr2sN7UdYEwb9NOFpnXs7WkazX/5fj+Fihmw4qt9HxJcCzovX76+7cjhs3eH4PR90ML/ObXsEv5cdfH3q+1q+DxubBW+bsp/RAKPx6GnR1kYy8QUK7uv1iHpXAmXKzm2NypbPItzH4Mi2UR203r2brimPzjjkV+tcSCFyxsyw5afp+FPKVmWP2whceClwOQxzZL3mDvqRgOGu8V/+PKj6UfQr7fyX3zw1AK5LzW9dqut5SQuAu+10PROwohR3lAna+WMZqMyUDoVdlh9gDz1hTA7q0sM1VLM89Ykv0Ylv1T2bCimkXZp9huWg8vBJ34645yuKSAdeGak0Kof28DT7HJr7kRvE2OT8HPQtQwxbDxNf34+AKgqBxvLWBHVy0gmCEenLXe7/f+GOzhagN3hWg+qoecHd5v194FjLJaxJgMBNsXx5h3i7dOUH+uGlAeKNp55TiPjfst3n/gwtUU/2QZ6017gvoWAp3aYWL97tDbKwg+2Yjhd7GaY2sWsQ3wfyZI8O/xWKgmnxC1Rm+fEhS80H31qbfC+hUmquXvYMTY8ppydX6Ptw+gMwDugeWazjNCd3dBpgbsjd517ecg56tgnga5b4V+S9GvYcs9UJoFRf61ilEWBjBGA6GbW6eSqIRB95O+t29h/nsbWPbUG5y6r4eawpqd3maoTsrVpxhh6il+bQ8FDz8GQYNDZxZasBR6m4sO54a/AAgoTQmDkP1MJILS07DnUVP3mogYWQ56A2L5j2F5uHXqIfeg99tC8IZKFmymhyYgOzgBg1Ir2Pywt3z/ZqfRYAwGgneo4dQF3n902xfHgHWdnc3ecemBJ/ZTO0ysZycWizQajQm9Ngd5h5su+lnvYeCtUfhGqW2guFvT0CkO71ZGrn35KBtWmNjQQ01TDL/CHf18w0HIORj4ku1j4C6/Fz4G+1ch6Q4o/SrepqNRFgYwJgPBa8+jJroaA9ZjwhsCMxcUwKOvUvxt3z+29x+64AUJgzHjYjXH2BPYHKT8PXhP3NVUM5VFvbT517+3gfWfb+Rdi9J8dOsx1v/hFHn+tcSyw+yhgJ33JQJ5bNsPG1Y8RfGXpU9hxPB1ItdDzqfhh436OM8FNg/19Wq/rD5wyOpoNAYDQRle6veKtwagyF7NxrnL2Kr8Y9e/9yp75m7kXanmjx0BQ49DdCqXhQiMTl3zSBLv24blvq4lMwt3UmBaz/YFvrK8TVPzNr3b1cyYLKOTRoKATmX/TmTlqj7cSXvzw5Ab9JohHqoqlR+SwofJlouBHdmj0RgMhNDm3WJQvksk72cbObxiPdsX7ISnjjFv06a+DTvdvR5TiI7lggjupxgs3mDYM3cj7z4bNFcFlPkqW2HT6h5Gm3knpC17dDuLLI9heO8ptpYUsPPZUX4WGIOCO5Wvm9LJXGH3/rg2AWiB6lDrHoSqLFj+sHf7o9EYCwTfrGO/l+ZuZOOtQasl57Fp02GWPbreO6Kkr+290qk8qgSMKHr0MDstFh4D72iz16b6jSQ6xfYVWzm2ZieWXv4WEu/bxs4vTJ0T0uZt2iTDlUehnjqVnU1+Pyg1ApsyYmh+indIarghq/nl3g5o86rwo5JGsjEWCIlMvXUeG4M6/k7t2NptTW9nM1BymKN1eb22984stGDp/iqPWbq/KoaXLwgKXrBgKfQ1GXWNHqufPJWCkq0sM22l4IV3mfqaUnMo7Mup3TtowauAddJ5PCr1tclobQJQr6zrqy2cDfFGv+Gtv0mAx6eMzlAYcze3m1kY3Jnn/w8M3qt6E+t3e+ci7FxzjK0rTGx4r35od1QMmpmFFiyW8MM/E5PzeMxi4d1N89jz6DK20rfZ6qd2mDCZlPUtFiz7p/KqSf52xrL5KV01hh1zQVfvN0lNqT0s/zGUTvZOSNuFd1bzb86BLqUfN9EbIcZYDSGEuqMcLoGpD9vYblrmHXnkP/Go0IJlge/+Rl3LAFCuIvtHehRGC2+nsbcGscx0OMw8A6XvAeh240KlA7n+vQ2YTHIblNGkT01G/pPUlO+L/Iasbp5M2OGlnbe6GGXGZiDUBd2YbM1O1n20nvXhbmLnN0fh8ALvP3Q9yM3tbgjeZr9FO0xBQ0q7gqDgBQuWHkahdY5Gqitmg8nk/bvr1t8khtLaVd5mG/AOIw0+OfepyehjyPWbbZwbNPO4s+N6DInq6OjouN432+12oqKiGD9+fCT3SQwSm82G0WjsfcU+am1t5dKlS6SkpESsTDF4HA4HWq0Wna6nUfj9t/JVsDZEtEgxiFbNgn8LHlurGHN9CEIIIa6PBIIQQghAAkEIIYRCAkEIIQQggSCEEEIxoECIiooiKioqUvsiRpmoqCgGMEhNDIPB+H9VySlgVOnp1zWgQIiNjaW1tXUgRYgh4vF4UKlUES0zJiYGj8cT0TLF4GltbSUmJvJTj27WR7xIMYjSJoRfNqBAiI+P59q1awMpQgyRpqamQZkvEhcXJ38Do4DH46GtrY24uLiIlz0/clNbxBCYF/b5oQMMBJVKRXx8PI2NjQMpRgyytrY2rl69yoQJPVwaXKebbrqJK1euRLxcEVkOhwO9fnAu5VdlQ/pNg1K0iLD7bodpE8MvH3CncnJyMs3NzTidzoEWJQZBS0sLdXV1JCcnR7zJCLw1BJ1OR11dnTQfjVANDQ2oVKpBCwSAjV+HGBmiMqJ9KRV++rWe1xnQrSt8Ojo6qK2tpbm5mfHjxxMTEyOdzcMoKiqKtrY2mpubcbvdJCcno9VqB3WbjY2NXL58mfj4eGJjYwclfETfdXR04Ha7uXr1KglsdzY4AAAAkElEQVQJCUyc2MNlYYR8ehH+4zCcujTomxL9tCQT/u3rMF7d83oRCQQf3x9ga2urjD4ZZiqVinHjxg3pfaY6OjpwOp1cu3ZNfv/DLCoqCo1G03mBNpQsVfD381B3FeS6cPhER8HNE8A0Db7Ux9uNRTQQhBBCjF7S6ieEEAKQQBBCCKGQQBBCCAFIIAghhFD8f6RNC31z1ruOAAAAAElFTkSuQmCC;align=left;fontStyle=0;fontColor=#000000;" vertex="1" parent="1">
          <mxGeometry x="331.97" y="-50" width="178.03" height="340" as="geometry" />
        </mxCell>
        <mxCell id="_FJcgA4YUxXhmZtNspM3-6" value="&lt;span style=&quot;background-color: rgb(255, 255, 255);&quot;&gt;【前提】：后台在ExecutionListener监听器&lt;/span&gt;&lt;span style=&quot;background-color: rgb(255, 255, 255);&quot;&gt;start事件触发的时候，查找该节&lt;/span&gt;&lt;span style=&quot;background-color: rgb(255, 255, 255);&quot;&gt;点的任务处理人，&lt;br&gt;&lt;/span&gt;&lt;span style=&quot;background-color: rgb(255, 255, 255);&quot;&gt;1：如果该节点为会签节点，则设置到全局&lt;/span&gt;&lt;span style=&quot;background-color: rgb(255, 255, 255);&quot;&gt;变量 assigneeList中（如果下一个节点设置了会签，&lt;/span&gt;&lt;span style=&quot;background-color: rgb(255, 255, 255);&quot;&gt;那么会签的 处理人变量assigneeList 和 单个处理人变量 assignee ，会自动&lt;/span&gt;&lt;span style=&quot;background-color: rgb(255, 255, 255);&quot;&gt;创建并分发任务）&lt;br&gt;&lt;/span&gt;&lt;span style=&quot;background-color: rgb(255, 255, 255);&quot;&gt;2：如果该节点为普通节点，那么查找出单个，并直接setAssignee&lt;/span&gt;" style="rounded=0;whiteSpace=wrap;html=1;fontColor=#000000;strokeColor=#FF0000;align=left;" vertex="1" parent="1">
          <mxGeometry x="20" y="-310" width="480" height="140" as="geometry" />
        </mxCell>
        <mxCell id="_FJcgA4YUxXhmZtNspM3-7" value="调用业务接口之后，会completeTask，complete之前 ，会设置任务变量 和 全局变量 （业务用的）" style="rounded=1;whiteSpace=wrap;html=1;fontColor=#000000;strokeColor=#FF0000;" vertex="1" parent="1">
          <mxGeometry x="30" y="-160" width="280" height="60" as="geometry" />
        </mxCell>
      </root>
    </mxGraphModel>
  </diagram>
</mxfile>
